<svg width="88" height="15" viewBox="0 0 88 15" fill="none" xmlns="http://www.w3.org/2000/svg">
<path d="M5.15556 10.5455C4.22222 10.5455 3.37778 10.3182 2.62222 9.90909C1.86667 9.45454 1.28889 8.86363 0.844444 8.09091C0.399999 7.31818 0.222221 6.45454 0.222221 5.5C0.222221 4.5 0.444444 3.63636 0.844444 2.86363C1.28889 2.09091 1.86667 1.5 2.62222 1.04545C3.37778 0.590906 4.22222 0.409088 5.15556 0.409088C6.08889 0.409088 6.93333 0.636361 7.68889 1.04545C8.44444 1.45454 9.02222 2.09091 9.42222 2.86363C9.86667 3.63636 10.0889 4.5 10.0889 5.5C10.0889 6.45454 9.86667 7.31818 9.42222 8.09091C8.97778 8.86363 8.4 9.45454 7.64444 9.90909C6.88889 10.3636 6.08889 10.5455 5.15556 10.5455ZM5.15556 9.27272C5.82222 9.27272 6.44444 9.09091 7.02222 8.77272C7.55556 8.45454 8 8 8.31111 7.40909C8.62222 6.81818 8.75556 6.18182 8.75556 5.45454C8.75556 4.72727 8.62222 4.09091 8.31111 3.5C8 2.90909 7.55556 2.45454 7.02222 2.13636C6.48889 1.81818 5.86667 1.63636 5.15556 1.63636C4.48889 1.63636 3.86667 1.81818 3.28889 2.13636C2.71111 2.45454 2.31111 2.90909 2 3.5C1.68889 4.09091 1.51111 4.77272 1.51111 5.5C1.51111 6.22727 1.68889 6.86363 2 7.45454C2.31111 8.04545 2.75555 8.45454 3.28889 8.81818C3.82222 9.09091 4.44444 9.27272 5.15556 9.27272Z" fill="white"/>
<path d="M15.4222 14.7273C15.2 14.7273 15.0222 14.6818 14.9333 14.5454C14.8 14.4091 14.7556 14.2273 14.7556 14.0454V5.40907C14.7556 4.45453 14.9778 3.59089 15.4222 2.86362C15.8667 2.09089 16.4444 1.49998 17.2 1.09089C17.9556 0.636347 18.7556 0.454529 19.6889 0.454529C20.6222 0.454529 21.4667 0.681802 22.2222 1.13635C22.9778 1.59089 23.5556 2.1818 24 2.95453C24.4444 3.72726 24.6667 4.59089 24.6667 5.54544C24.6667 6.49998 24.4444 7.36362 24.0444 8.13635C23.6444 8.90907 23.0667 9.49998 22.3111 9.95453C21.6 10.4091 20.7556 10.6363 19.8667 10.6363C19.0667 10.6363 18.3556 10.4545 17.6889 10.1363C17.0222 9.77271 16.5333 9.31816 16.1333 8.77271V14.1363C16.1333 14.3636 16.0889 14.5454 15.9556 14.6363C15.7778 14.6363 15.6 14.7273 15.4222 14.7273ZM19.6444 9.27271C20.3111 9.27271 20.9333 9.09089 21.5111 8.77271C22.0444 8.45453 22.4889 7.99998 22.8 7.40907C23.1111 6.81816 23.2889 6.1818 23.2889 5.45453C23.2889 4.72726 23.1111 4.09089 22.8 3.49998C22.4889 2.90907 22.0444 2.49998 21.5111 2.13635C20.9778 1.77271 20.3556 1.63635 19.6444 1.63635C18.9778 1.63635 18.3556 1.81816 17.8222 2.13635C17.2889 2.45453 16.8444 2.90907 16.5333 3.49998C16.2222 4.09089 16.0889 4.72726 16.0889 5.45453C16.0889 6.1818 16.2222 6.81816 16.5333 7.40907C16.8444 7.99998 17.2889 8.45453 17.8222 8.77271C18.3556 9.09089 18.9778 9.27271 19.6444 9.27271Z" fill="white"/>
<path d="M33.6889 10.5454C32.7111 10.5454 31.8667 10.3182 31.1556 9.90907C30.4444 9.49998 29.8222 8.86362 29.4222 8.13635C29.0222 7.36362 28.8 6.49998 28.8 5.49998C28.8 4.49998 28.9778 3.63635 29.3778 2.86362C29.7778 2.09089 30.3111 1.49998 31.0222 1.09089C31.7333 0.636347 32.5333 0.454529 33.4222 0.454529C34.3111 0.454529 35.1111 0.681802 35.7778 1.09089C36.4444 1.45453 36.9333 2.04544 37.3333 2.77271C37.6889 3.49998 37.8667 4.36362 37.8667 5.31816C37.8667 5.49998 37.8222 5.6818 37.6889 5.77271C37.5556 5.90907 37.4222 5.95453 37.2444 5.95453H29.6889V4.77271H37.3778L36.6222 5.31816C36.6222 4.63635 36.4889 3.99998 36.2667 3.40907C36 2.86362 35.6444 2.40907 35.1556 2.09089C34.6667 1.77271 34.0889 1.63635 33.4222 1.63635C32.7556 1.63635 32.1333 1.81817 31.6444 2.13635C31.1556 2.45453 30.7556 2.90907 30.4444 3.49998C30.1333 4.09089 30.0444 4.72726 30.0444 5.45453C30.0444 6.1818 30.2222 6.86362 30.5333 7.40907C30.8444 7.99998 31.2889 8.40907 31.8222 8.77271C32.3556 9.09089 32.9778 9.27271 33.6889 9.27271C34.1333 9.27271 34.5333 9.1818 34.9778 9.04544C35.4222 8.90907 35.7778 8.6818 36 8.45453C36.1333 8.36362 36.2667 8.27271 36.4444 8.27271C36.6222 8.27271 36.7556 8.31816 36.8889 8.40907C37.0222 8.54544 37.1111 8.72726 37.1111 8.86362C37.1111 9.04544 37.0667 9.1818 36.8889 9.31816C36.4889 9.63635 36 9.95453 35.3778 10.1818C34.8 10.4545 34.2222 10.5454 33.6889 10.5454Z" fill="white"/>
<path d="M42.8444 10.4545C42.6222 10.4545 42.4444 10.4091 42.3556 10.2727C42.2667 10.1363 42.1778 9.99998 42.1778 9.77271V1.22726C42.1778 0.999983 42.2222 0.818165 42.3556 0.727256C42.4889 0.636347 42.6667 0.545438 42.8444 0.545438C43.0667 0.545438 43.2 0.590892 43.3333 0.727256C43.4667 0.86362 43.5111 1.04544 43.5111 1.22726V9.77271C43.5111 9.99998 43.4667 10.1363 43.3333 10.2727C43.2 10.4091 43.0667 10.4545 42.8444 10.4545ZM50.4889 10.4545C50.2667 10.4545 50.1333 10.4091 50 10.2727C49.8667 10.1363 49.8222 9.95453 49.8222 9.77271V5.04544C49.8222 4.27271 49.6889 3.6818 49.4222 3.1818C49.1556 2.6818 48.7556 2.31816 48.2667 2.09089C47.7778 1.86362 47.2444 1.72726 46.6222 1.72726C46.0444 1.72726 45.5111 1.86362 45.0667 2.09089C44.5778 2.31816 44.2222 2.63635 43.9556 3.04544C43.6889 3.45453 43.5556 3.90907 43.5556 4.40907H42.5778C42.6222 3.63635 42.8 2.95453 43.2 2.36362C43.6 1.77271 44.0889 1.27271 44.7111 0.954529C45.3333 0.590892 46.0444 0.454529 46.8 0.454529C47.6444 0.454529 48.4 0.636347 49.0667 0.999983C49.7333 1.36362 50.2667 1.86362 50.6222 2.59089C51.0222 3.27271 51.2 4.13635 51.2 5.13635V9.86362C51.2 10.0454 51.1556 10.2273 51.0222 10.3636C50.8444 10.4091 50.6667 10.4545 50.4889 10.4545Z" fill="white"/>
<path d="M60.5778 10.5454C59.6 10.5454 58.7556 10.3182 58.0444 9.90907C57.3333 9.49998 56.7111 8.86362 56.3111 8.13635C55.9111 7.40907 55.6889 6.49998 55.6889 5.49998C55.6889 4.49998 55.8667 3.63635 56.2667 2.86362C56.6667 2.09089 57.2 1.49998 57.9111 1.09089C58.6222 0.636347 59.4222 0.454529 60.3111 0.454529C61.2 0.454529 62 0.681802 62.6667 1.09089C63.3333 1.49998 63.8667 2.09089 64.2222 2.81817C64.5778 3.54544 64.7555 4.40907 64.7555 5.36362C64.7555 5.54544 64.7111 5.72726 64.5778 5.81817C64.4444 5.95453 64.3111 5.99998 64.1333 5.99998H56.5778V4.81817H64.2667L63.5111 5.36362C63.5111 4.6818 63.3778 4.04544 63.1556 3.45453C62.8889 2.90907 62.5333 2.45453 62.0444 2.13635C61.5556 1.81817 60.9778 1.6818 60.3111 1.6818C59.6444 1.6818 59.0222 1.86362 58.5333 2.1818C58.0444 2.49998 57.6444 2.95453 57.3333 3.54544C57.0667 4.13635 56.9333 4.77271 56.9333 5.49998C56.9333 6.22726 57.1111 6.90907 57.4222 7.45453C57.7333 8.04544 58.1778 8.45453 58.7111 8.81816C59.2444 9.13635 59.8667 9.31816 60.5778 9.31816C61.0222 9.31816 61.4222 9.22726 61.8667 9.09089C62.3111 8.95453 62.6667 8.72726 62.8889 8.49998C63.0222 8.40907 63.1555 8.31816 63.3333 8.31816C63.5111 8.31816 63.6444 8.36362 63.7778 8.45453C63.9111 8.59089 64 8.77271 64 8.90907C64 9.09089 63.9555 9.22726 63.7778 9.36362C63.3778 9.6818 62.8889 9.99998 62.2667 10.2273C61.6889 10.4545 61.1111 10.5454 60.5778 10.5454Z" fill="white"/>
<path d="M72.4444 10.5455C71.7333 10.5455 71.0667 10.4091 70.3556 10.1818C69.6444 9.95454 69.1111 9.59091 68.6667 9.09091C68.5333 8.95454 68.4889 8.77272 68.4889 8.59091C68.4889 8.40909 68.6222 8.27272 68.7556 8.13636C68.9333 8 69.1111 7.95454 69.2889 8C69.4667 8.04545 69.6 8.09091 69.7333 8.22727C70 8.54545 70.4 8.81818 70.8444 9C71.3333 9.18182 71.8222 9.27272 72.4 9.27272C73.2889 9.27272 73.9111 9.13636 74.3111 8.81818C74.7111 8.5 74.8889 8.13636 74.9333 7.68182C74.9333 7.22727 74.7111 6.86363 74.3111 6.59091C73.9111 6.31818 73.2444 6.09091 72.3111 5.90909C71.1111 5.72727 70.2222 5.36363 69.6889 4.90909C69.1556 4.45454 68.8889 3.86363 68.8889 3.18182C68.8889 2.54545 69.0667 2.04545 69.3778 1.63636C69.6889 1.22727 70.1333 0.909088 70.6667 0.72727C71.2 0.499997 71.7778 0.409088 72.4444 0.409088C73.2444 0.409088 73.9111 0.545452 74.4889 0.818179C75.0667 1.09091 75.5111 1.45454 75.8667 1.95454C76 2.09091 76.0445 2.27272 76 2.45454C75.9556 2.63636 75.8667 2.77272 75.7333 2.86363C75.6 2.95454 75.4222 2.95454 75.2445 2.95454C75.0667 2.90909 74.8889 2.81818 74.7556 2.68182C74.4444 2.31818 74.1333 2.09091 73.7333 1.90909C73.3333 1.72727 72.8889 1.68182 72.4 1.68182C71.7333 1.68182 71.2444 1.81818 70.8444 2.09091C70.4444 2.36363 70.2222 2.68182 70.2222 3.09091C70.2222 3.36363 70.3111 3.59091 70.4444 3.81818C70.5778 4.04545 70.8444 4.22727 71.2 4.36363C71.5556 4.5 72.0889 4.63636 72.7111 4.77272C73.6 4.90909 74.3111 5.13636 74.8 5.40909C75.3333 5.68182 75.6889 6.04545 75.9111 6.40909C76.1333 6.77272 76.2222 7.22727 76.2222 7.63636C76.2222 8.22727 76.0444 8.72727 75.7333 9.13636C75.4222 9.54545 74.9778 9.90909 74.4 10.1364C73.8667 10.4091 73.2 10.5455 72.4444 10.5455Z" fill="white"/>
<path d="M84 10.5455C83.2889 10.5455 82.6222 10.4091 81.9111 10.1818C81.2444 9.95454 80.6667 9.59091 80.2222 9.09091C80.0889 8.95454 80.0444 8.77272 80.0444 8.59091C80.0889 8.40909 80.1778 8.27272 80.3111 8.13636C80.4889 8 80.6667 7.95454 80.8444 8C81.0222 8.04545 81.1555 8.09091 81.2889 8.22727C81.5555 8.54545 81.9555 8.81818 82.4 9C82.8889 9.18182 83.3778 9.27272 83.9556 9.27272C84.8444 9.27272 85.4667 9.13636 85.8667 8.81818C86.2667 8.5 86.4444 8.13636 86.4889 7.68182C86.4889 7.22727 86.2667 6.86363 85.8667 6.59091C85.4667 6.31818 84.8 6.09091 83.8667 5.90909C82.6667 5.72727 81.7778 5.36363 81.2444 4.90909C80.7111 4.45454 80.4444 3.86363 80.4444 3.18182C80.4444 2.54545 80.6222 2.04545 80.9333 1.63636C81.2444 1.22727 81.6889 0.909088 82.2222 0.72727C82.7556 0.499997 83.3333 0.409088 84 0.409088C84.8 0.409088 85.4667 0.545452 86.0444 0.818179C86.6222 1.09091 87.0667 1.45454 87.4222 1.95454C87.5556 2.09091 87.6 2.27272 87.5556 2.45454C87.5111 2.63636 87.4222 2.77272 87.2889 2.86363C87.1556 2.95454 86.9778 2.95454 86.8 2.95454C86.6222 2.90909 86.4444 2.81818 86.3111 2.68182C86 2.31818 85.6889 2.09091 85.2889 1.90909C84.8889 1.72727 84.4444 1.68182 83.9556 1.68182C83.2889 1.68182 82.8 1.81818 82.4 2.09091C82 2.36363 81.8222 2.72727 81.8222 3.13636C81.8222 3.40909 81.9111 3.63636 82.0444 3.86363C82.1778 4.09091 82.4444 4.27272 82.8 4.40909C83.1556 4.54545 83.6889 4.68182 84.3111 4.81818C85.2 4.95454 85.9111 5.18182 86.4 5.45454C86.9333 5.72727 87.2889 6.09091 87.5111 6.45454C87.7333 6.81818 87.8222 7.27272 87.8222 7.68182C87.8222 8.27272 87.6444 8.77273 87.3333 9.18182C87.0222 9.59091 86.5778 9.95454 86 10.1818C85.4222 10.4091 84.7556 10.5455 84 10.5455Z" fill="white"/>
</svg>
