<?xml version="1.0" encoding="UTF-8"?>
<svg width="24px" height="24px" viewBox="0 0 24 24" version="1.1" xmlns="http://www.w3.org/2000/svg" xmlns:xlink="http://www.w3.org/1999/xlink">
    <title>Social/github</title>
    <g id="Page-1" stroke="none" stroke-width="1" fill="none" fill-rule="evenodd">
        <g id="001-Openess-Landing" transform="translate(-268.000000, -658.000000)">
            <g id="Copy-&amp;-Content" transform="translate(140.000000, 240.000000)">
                <g id="More-Block" transform="translate(0.000000, 354.000000)">
                    <g id="Icons" transform="translate(0.000000, 64.000000)">
                        <g id="Group" transform="translate(128.000000, 0.000000)">
                            <rect id="Rectangle" x="0" y="0" width="24" height="24"></rect>
                            <path d="M0,12.3044338 C0,17.7398363 3.43804291,22.3519218 8.2065134,23.9789169 C8.80690015,24.0922174 9.0256914,23.7122831 9.0256914,23.3859777 C9.0256914,23.0936624 9.015378,22.3201977 9.00948464,21.2936952 C5.67162896,22.0369464 4.96737162,19.6440399 4.96737162,19.6440399 C4.42149851,18.2224964 3.63473403,17.8440727 3.63473403,17.8440727 C2.54519783,17.0804274 3.71724117,17.0962895 3.71724117,17.0962895 C4.92169803,17.1831532 5.55523497,18.3644997 5.55523497,18.3644997 C6.6263544,20.2445326 8.36416096,19.7014455 9.04779152,19.3864702 C9.15681881,18.5911007 9.46695724,18.0495243 9.80950919,17.741347 C7.14497069,17.4309036 4.3434114,16.3756983 4.3434114,11.660887 C4.3434114,10.3171431 4.8111974,9.21888367 5.57880843,8.35855524 C5.4557844,8.04735654 5.04398539,6.79651907 5.69667577,5.10305433 C5.69667577,5.10305433 6.70444151,4.77146154 8.99622456,6.36371118 C9.95389668,6.09103465 10.9800792,5.95431872 12.0003683,5.9497867 C13.0199208,5.95431872 14.0461033,6.09103465 15.0052488,6.36371118 C17.2955585,4.77146154 18.3018509,5.10305433 18.3018509,5.10305433 C18.9560146,6.79651907 18.5442156,8.04735654 18.4211916,8.35855524 C19.1902759,9.21888367 19.6543786,10.3171431 19.6543786,11.660887 C19.6543786,16.3870284 16.8491359,17.4271269 14.1757574,17.7322829 C14.6067098,18.1122172 14.9897787,18.8630219 14.9897787,20.0103782 C14.9897787,21.6555014 14.9757819,22.9826279 14.9757819,23.3859777 C14.9757819,23.7153044 15.1916265,24.0975048 15.8008533,23.9774062 C20.5649038,22.3473898 24,17.7390809 24,12.3044338 C24,5.5086701 18.6267227,0 11.998895,0 C5.37327726,0 0,5.5086701 0,12.3044338 Z" id="Shape" fill="#FFFFFF"></path>
                        </g>
                    </g>
                </g>
            </g>
        </g>
    </g>
</svg>