<?xml version="1.0" encoding="UTF-8"?>
<svg width="21px" height="18px" viewBox="0 0 21 18" version="1.1" xmlns="http://www.w3.org/2000/svg" xmlns:xlink="http://www.w3.org/1999/xlink">
    <title>Social/twitter</title>
    <g id="Page-1" stroke="none" stroke-width="1" fill="none" fill-rule="evenodd">
        <g id="001-Openess-Landing" transform="translate(-142.000000, -662.000000)">
            <g id="Copy-&amp;-Content" transform="translate(140.000000, 240.000000)">
                <g id="More-Block" transform="translate(0.000000, 354.000000)">
                    <g id="Group" transform="translate(0.000000, 64.000000)">
                        <rect id="Rectangle" x="0" y="0" width="24" height="24"></rect>
                        <path d="M20.526149,6.84573162 C21.4160944,6.28412538 22.0989611,5.39361548 22.41944,4.3328037 C21.5861948,4.85410949 20.6654341,5.23111368 19.6830428,5.43521595 C18.899102,4.55120612 17.7786582,4 16.5386512,4 C14.1597112,4 12.231907,6.03452261 12.231907,8.54355048 C12.231907,8.89975444 12.2676528,9.2468583 12.3416094,9.57836198 C8.762106,9.38855987 5.58813171,7.58153979 3.46187709,4.83070923 C3.09086107,5.50411671 2.87885191,6.28412538 2.87885191,7.11613462 C2.87885191,8.69175213 3.63937313,10.0827676 4.7955626,10.8991767 C4.08927628,10.8757764 3.42489875,10.6690741 2.84310618,10.3310703 L2.84310618,10.386971 C2.84310618,12.5891954 4.32717028,14.4261158 6.30058109,14.8421205 C5.93819334,14.9487217 5.55854904,15.0020222 5.1641134,15.0020222 C4.88677584,15.0020222 4.61560134,14.9747219 4.35428773,14.9214213 C4.90156718,16.7258414 6.49286846,18.041456 8.37876387,18.0765564 C6.90332805,19.29597 5.04578271,20.021378 3.02799789,20.021378 C2.68040148,20.021378 2.33650291,20.0018778 2,19.9589773 C3.9068498,21.2472916 6.17115689,22 8.60433175,22 C16.5300229,22 20.8614193,15.0761231 20.8614193,9.07135635 C20.8614193,8.87375415 20.858954,8.67745197 20.8503258,8.48374982 C21.6921993,7.8428427 22.4243705,7.0420338 23,6.13072367 C22.2271527,6.49212769 21.3963726,6.73653041 20.526149,6.84573162 Z" id="Shape" fill="#FFFFFF"></path>
                    </g>
                </g>
            </g>
        </g>
    </g>
</svg>