<svg xmlns="http://www.w3.org/2000/svg" xmlns:xlink="http://www.w3.org/1999/xlink" viewBox="0 0 420 420"><defs><style>.a{fill:#cb35b1;}.b{fill:#8256ef;}.c{fill:#a3a3a1;}.d{fill:#9f683f;}.e,.j{fill:#fff;}.f{fill:#6a3401;}.g{fill:#16130b;}.h{fill:#040405;}.i{fill:#999;}.j{stroke:#afafaf;stroke-miterlimit:10;}.k{fill:url(#a);}.l{fill:#ffcb48;}.m{fill:#8ad613;}</style><linearGradient id="a" x1="288.37" y1="313.12" x2="328.37" y2="273.12" gradientUnits="userSpaceOnUse"><stop offset="0" stop-color="#2d2b27"/><stop offset="1" stop-color="#191919"/></linearGradient></defs><path class="a" d="M33.24,382.42s-1.51-27.9,7.5-46.29,39.42-75.46,39.42-75.46l45.43,107.74Z"/><path class="a" d="M87.67,346.18s-25.15-7.72-40.92,4.12-13.51,41.18-13.51,41.18,1.12,18.53,7.88,20.07,95-2.91,95-2.91Z"/><path class="a" d="M386.76,382.42s1.51-27.9-7.5-46.29-39.42-75.46-39.42-75.46L294.41,368.41Z"/><path class="a" d="M332.33,346.18s25.15-7.72,40.92,4.12,13.51,41.18,13.51,41.18-1.12,18.53-7.88,20.07-95-2.91-95-2.91Z"/><polygon class="b" points="291.37 189.63 286.12 232.24 122.44 232.99 123 185.13 291.37 189.63"/><polygon class="c" points="191.94 6.71 187.35 59.56 158.93 14.77 191.94 6.71"/><path class="d" d="M121.56,179.15s-15.83,8.89-8.7,28.41,25.72,33.79,25.72,33.79Z"/><polygon class="c" points="130.12 23.81 144.93 74.75 102.24 43.25 130.12 23.81"/><polygon class="c" points="231.01 6.71 235.6 59.56 264.02 14.77 231.01 6.71"/><path class="d" d="M288.91,183s12.44,2.56,11.09,15.95-5.95,21.92-18.66,28.76S288.91,183,288.91,183Z"/><polygon class="c" points="292.83 23.81 278.02 74.75 320.71 43.25 292.83 23.81"/><path class="d" d="M274.76,242.94s14.64-38.85,15.2-45.05,8.45-84.18-30.41-94.32-124.16-3.94-129.23,21.68-3.1,81.37-3.1,81.37l10.7,38Z"/><path class="e" d="M188,216.85a13,13,0,1,1-23.22-2.35A22.8,22.8,0,0,0,151,235.25c0,12.61,10.6,22.84,23.68,22.84s21.68-10.23,21.68-22.84C196.33,227.7,193.25,221,188,216.85Z"/><path class="f" d="M175.78,234.5A13,13,0,0,0,188,216.85a21.18,21.18,0,0,0-13.32-4.44,24.28,24.28,0,0,0-9.9,2.09,13,13,0,0,0,11,20Zm0-20.64a7.59,7.59,0,1,1-7.59,7.59A7.6,7.6,0,0,1,175.78,213.86Z"/><path class="g" d="M175.78,229a7.59,7.59,0,1,0-7.59-7.59A7.61,7.61,0,0,0,175.78,229Z"/><path class="e" d="M258.42,216.2a13.05,13.05,0,1,1-23.12-1.45c-7.25,3.72-11.63,11.5-11.63,20.5,0,12.61,8.6,22.84,21.68,22.84S269,247.86,269,235.25A22.63,22.63,0,0,0,258.42,216.2Z"/><path class="f" d="M246.48,234.5a13,13,0,0,0,11.94-18.3,24.25,24.25,0,0,0-13.07-3.79,21.81,21.81,0,0,0-10,2.34,13,13,0,0,0,11.18,19.75Zm0-20.64a7.59,7.59,0,1,1-7.59,7.59A7.59,7.59,0,0,1,246.48,213.86Z"/><path class="g" d="M246.48,229a7.59,7.59,0,1,0-7.59-7.59A7.6,7.6,0,0,0,246.48,229Z"/><path class="e" d="M248.48,219.92a2,2,0,1,1,2-2A2,2,0,0,1,248.48,219.92Z"/><path class="e" d="M177.78,219.92a2,2,0,1,1,2-2A2,2,0,0,1,177.78,219.92Z"/><path class="h" d="M156.6,206.21a2.5,2.5,0,0,1-1.83-4.2c.26-.28,6.65-7,24-7,2.33,0,4.79.12,7.3.35a2.5,2.5,0,0,1,2.26,2.73,2.48,2.48,0,0,1-2.48,2.26h-.25c-2.32-.22-4.59-.33-6.74-.33-15,0-20.44,5.34-20.5,5.39A2.52,2.52,0,0,1,156.6,206.21Z"/><path class="h" d="M261.3,206.21a2.57,2.57,0,0,1-1.82-.78s-5.54-5.38-20.46-5.38c-2.16,0-4.43.11-6.76.33H232a2.5,2.5,0,0,1-.22-5c2.52-.23,5-.35,7.3-.35,17.38,0,23.78,6.68,24,7a2.51,2.51,0,0,1-.13,3.53A2.47,2.47,0,0,1,261.3,206.21Z"/><path class="b" d="M151,88.22a12.46,12.46,0,0,0-4.23,7.6A161,161,0,0,0,145,125c.26,12.46,4.5,28.44,7.6,33.79s33.51,32.09,50.68,34.35,33.23-2.54,47.3-.29c10.9,1.75,14.36,4,14.36,4l-1.4-13.52,3.94,8.45,3.94-7.89s10.14,6.76,10.7,16.9a89.27,89.27,0,0,1-.56,17.17,28.52,28.52,0,0,0,7.6-14.64c2-9.57,6.47-40.26,5.63-52.93s-4.22-52.09-52.37-71.52S157.07,83,157.07,83Z"/><path class="b" d="M148.34,98.22s-9.86-.56-16.9,9.57-11.82,16.9-12.38,25.63-1.13,25.34.28,36.32,7.6,38.57,9,42.51l1.41,3.94,1.12-26.37,5.63-6-1.12-4.5,9.38,2.63L144,171.43l5.26,5.25,2.62-34.91Z"/><path class="i" d="M344.33,413.64H75.67a10,10,0,0,1-10-9.41L55.87,238a10,10,0,0,1,10-10.59h288.3a10,10,0,0,1,10,10.59l-9.82,166.2A10,10,0,0,1,344.33,413.64Z"/><path class="j" d="M210,354.53a28.22,28.22,0,0,1-14.3-3.55,25.78,25.78,0,0,1-9.75-9.8,31,31,0,0,1,0-28.8,25.78,25.78,0,0,1,9.75-9.8,30.38,30.38,0,0,1,28.5,0,25.78,25.78,0,0,1,9.75,9.8,31.18,31.18,0,0,1,0,28.8,25.37,25.37,0,0,1-9.7,9.8A28.22,28.22,0,0,1,210,354.53Zm0-9a17.53,17.53,0,0,0,9.2-2.4,16.76,16.76,0,0,0,6.25-6.6,20.22,20.22,0,0,0,2.25-9.7,20.51,20.51,0,0,0-2.25-9.75,16.7,16.7,0,0,0-6.25-6.65,18.83,18.83,0,0,0-18.4,0,17,17,0,0,0-6.3,6.65,20.18,20.18,0,0,0-2.3,9.75,19.9,19.9,0,0,0,2.3,9.7,17.09,17.09,0,0,0,6.3,6.6A17.53,17.53,0,0,0,210,345.53Z"/><path class="k" d="M309.85,261.26h0a30.39,30.39,0,0,0-26.31,15.19h0a30.36,30.36,0,0,0,0,30.38h0A30.39,30.39,0,0,0,309.85,322h0a30.39,30.39,0,0,0,26.31-15.19h0a30.36,30.36,0,0,0,0-30.38h0A30.39,30.39,0,0,0,309.85,261.26Z"/><path class="e" d="M309.85,262.65a29,29,0,1,1-25.11,14.49,29.08,29.08,0,0,1,25.11-14.49m0-1.39a30.38,30.38,0,1,0,26.31,15.19,30.39,30.39,0,0,0-26.31-15.19Z"/><path class="e" d="M289.85,295.42v-5.76l11.6-3.22v3.33L292,292.3v.49l9.43,2.53v3.33Z"/><path class="e" d="M312.43,279.37l3.16,1-8.29,25.36-3.19-1Z"/><path class="e" d="M318.25,298.65v-3.33l9.44-2.53v-.49l-9.44-2.53v-3.33l11.6,3.22v5.76Z"/><polygon class="l" points="126.61 296.2 78.8 296.2 76.8 247.39 125.61 247.39 126.61 296.2"/><path class="e" d="M124.26,248.78l.94,46H80.13l-1.88-46h46m1.35-1.39H76.8l2,48.81h47.81l-1-48.81Z"/><polygon class="m" points="156.26 270.14 125.47 270.14 111.07 296.8 127.47 322.47 154.26 322.47 170.65 296.8 156.26 270.14"/><path class="e" d="M155.43,271.53,169,296.75,153.5,321.08H128.23l-15.55-24.33,13.62-25.22h29.13m.83-1.39H125.47l-14.4,26.66,16.4,25.67h26.79l16.39-25.67-14.39-26.66Z"/></svg>