<svg xmlns="http://www.w3.org/2000/svg" viewBox="0 0 420 420"><defs><style>.a{fill:#ef14df;}.b{fill:#c564e5;opacity:0.6;isolation:isolate;}.c{opacity:0.8;}.d{fill:#ff3d99;}.e{fill:#00bdff;}</style></defs><path d="M170.47,195.84s-36,32.1-37.73,43.93,28.16,60.81,28.16,60.81,5.07,3.95,2.81,19.15S156.27,380,156.27,380l-1,7.32,2.59-8.28.15,7.16,1.36-7.81,4.34-18.09s7.89-40,6.76-51.25-33.79-65.32-33.79-65.32L176.1,206Z"/><path d="M163.71,157.93s-30.4,31.53-30,33-13.51-25.15-16.52-28.9-10.13-18.4-16.89-23.65S89,129.77,89,129.77l-5.63-6.38,1.5,6-7.51,4.13,10.14-.76S98,144,101.77,150.79s7.88,16.15,10.14,17.65,7.88,14.26,10.88,17.27,10.52,13.14,11.64,11.64S169,160.93,169,160.93Z"/><path d="M172.22,119.26s-18,8.26-24.77,10.89l-6.76,2.62-2.25,1.51s-4.13-2.26.37-8.26,12.76-18.77,13.52-22.53a19.76,19.76,0,0,0-.38-7.88s3.75,1.13,4.13-6-2.25-38.29-2.25-38.29,4.13-1.88,3.75-3.38l-6.66,1.78-3.66-4.22s1.69,6.76,2.25,7.89,2.25,15.76,2,22.52-5.07,14.64-5.07,16.61a9.12,9.12,0,0,0,.85,3.66s-9.58,21.12-11.26,27a19.15,19.15,0,0,0,0,10.7s-.29,5.35.84,5.07,30.69-3.1,30.69-3.1Z"/><path d="M249.53,195.84s36,32.1,37.73,43.93-28.16,60.81-28.16,60.81-5.07,3.95-2.81,19.15S263.73,380,263.73,380l1,7.32L262.14,379l-.15,7.16-1.36-7.81-4.34-18.09s-7.89-40-6.76-51.25,33.79-65.32,33.79-65.32L243.9,206Z"/><path d="M256.29,157.93s30.4,31.53,30,33,13.51-25.15,16.52-28.9,10.13-18.4,16.89-23.65S331,129.77,331,129.77l5.63-6.38-1.5,6,7.51,4.13-10.14-.76S322,144,318.23,150.79s-7.88,16.15-10.14,17.65-7.88,14.26-10.88,17.27-10.52,13.14-11.64,11.64S251,160.93,251,160.93Z"/><path d="M247.78,119.26s18,8.26,24.77,10.89l6.76,2.62,2.25,1.51s4.13-2.26-.37-8.26-12.76-18.77-13.52-22.53a19.76,19.76,0,0,1,.38-7.88s-3.75,1.13-4.13-6,2.25-38.29,2.25-38.29-4.13-1.88-3.75-3.38l6.66,1.78,3.66-4.22s-1.69,6.76-2.25,7.89-2.25,15.76-2,22.52,5.07,14.64,5.07,16.61a9.12,9.12,0,0,1-.85,3.66s9.58,21.12,11.26,27a19.15,19.15,0,0,1,0,10.7s.29,5.35-.84,5.07-30.69-3.1-30.69-3.1Z"/><path class="a" d="M258.24,93.92h0c0-20.15-16-31.78-35.51-34.28-1.67-.22-2.37-5.33-4.1-5.33l-9.13,4-8.13-4c-2.74,0-4.41,5.28-7,5.81-18,3.69-32.62,14.66-32.62,33.8h0a16.33,16.33,0,0,0,16.33,16.33H179c-9.41,10.39-16.57,24-16.57,37.3,0,11.61,4.63,22.45,11.67,31.07-5.7,7.48-9.09,19.15-9.09,37.28C165,260.13,185.13,326,210,326s45-65.86,45-110.09c0-18.13-3.39-29.8-9.09-37.28,7-8.62,11.67-19.46,11.67-31.07,0-13.33-7.16-26.91-16.57-37.3h.88A16.33,16.33,0,0,0,258.24,93.92Z"/><path class="b" d="M228.74,115.32,215.6,156.24s23.85,59.5,22.35,76-15.39,51.81-15,59.31-4.13,19.53,1.5,29.29,54.75,80.71,66.07,80.71c31.91,0,76.58-15.77,74.71-58.94S346.83,275,346.83,275Z"/><path class="b" d="M191.65,115.32l13.14,40.92s-23.86,59.5-22.35,76,15.39,51.81,15,59.31,4.13,19.53-1.5,29.29-54.75,80.71-66.07,80.71c-31.91,0-76.59-15.77-74.71-58.94S73.56,275,73.56,275Z"/><g class="c"><path class="d" d="M192.81,130.28q-8.09,12-16.57,23.8T159,177.36c-6,7.64-11.92,15.28-18.24,22.64-1.59,1.83-3.17,3.66-4.84,5.43-.81.9-1.67,1.76-2.55,2.62-.44.42-.86.86-1.31,1.28l-1.44,1.18a43.61,43.61,0,0,1-6.3,3.69c-2.17,1.09-4.39,2.06-6.64,3A70.45,70.45,0,0,0,130,209.71l1.31-1.18c.42-.42.81-.87,1.22-1.31.82-.87,1.63-1.75,2.39-2.69l2.34-2.75,2.28-2.8q4.53-5.64,9-11.36c3-3.81,5.92-7.63,8.84-11.47l17.63-23Q183.8,141.64,192.81,130.28Z"/><path class="d" d="M196.14,140.73q-9.63,13.86-19.69,27.39t-20.51,26.79c-7,8.78-14.06,17.56-21.86,25.75l-1.53,1.49A15.2,15.2,0,0,1,131,223.6a19.21,19.21,0,0,1-1.71,1.36c-.59.36-1.2.78-1.81,1.13a79,79,0,0,1-7.54,3.9,135.54,135.54,0,0,1-15.83,5.89,162.25,162.25,0,0,0,15.4-6.77,78,78,0,0,0,7.28-4.14c.59-.36,1.14-.77,1.72-1.16s1-.87,1.55-1.3a15.36,15.36,0,0,0,1.48-1.43l1.45-1.5c3.75-4.13,7.35-8.43,10.89-12.78s7.06-8.73,10.54-13.14c7-8.79,13.89-17.65,20.83-26.49S189.1,149.51,196.14,140.73Z"/><path class="d" d="M200.28,151.7c-6.55,8.12-13.1,16.23-19.5,24.46s-12.84,16.43-19.14,24.73S149.09,217.54,143,226s-12.19,16.9-18,25.51c-11.94,17.08-23.07,34.7-34,52.47q-8.18,13.32-15.87,26.93T60.31,358.45c8.56-19,18.72-37.32,29.3-55.3,5.27-9,10.8-17.86,16.38-26.68s11.33-17.54,17.26-26.13q17.88-25.71,37.18-50.38,9.67-12.3,19.59-24.41C186.69,167.52,193.39,159.53,200.28,151.7Z"/><path class="d" d="M123.76,207c-4.43,6.39-9,12.67-13.62,18.94l-14,18.64c-4.69,6.2-9.41,12.36-13.94,18.66a206.55,206.55,0,0,0-12.65,19.43,82.46,82.46,0,0,0-4.74,10.5c-1.37,3.6-2.58,7.28-3.67,11s-2,7.46-2.85,11.23S56.74,323,56.2,326.81a97.14,97.14,0,0,0-.79,23.11,47.42,47.42,0,0,0,2.4,11.3,27.18,27.18,0,0,0,5.94,9.87,26.19,26.19,0,0,1-6.39-9.7A48.65,48.65,0,0,1,54.5,350a95.51,95.51,0,0,1,.26-23.41c.46-3.87,1.1-7.73,1.87-11.56s1.73-7.62,2.79-11.38,2.27-7.49,3.64-11.16a86.86,86.86,0,0,1,4.77-10.77,173.37,173.37,0,0,1,12.84-19.6c4.61-6.28,9.35-12.44,14.16-18.56l14.49-18.27C114.17,219.26,119,213.13,123.76,207Z"/><path class="d" d="M153.15,212c-2.19,6.72-4.27,13.47-6.14,20.28s-3.78,13.61-5.43,20.47c-3.35,13.71-6.34,27.51-8.48,41.45-1.13,7-2.08,13.94-2.78,20.95-.43,3.5-.59,7-.86,10.54s-.42,7-.65,10.57l-1.21,21.16L127,368l-.31,5.29-.15,2.64-.06,1.33V378h0v-4.77l.08-5.3.2-10.61.66-21.19c.11-3.54.19-7.07.46-10.61s.36-7.08.77-10.6c.64-7.06,1.54-14.09,2.62-21.1a424.18,424.18,0,0,1,9-41.51A391,391,0,0,1,153.15,212Z"/><path class="d" d="M162.53,198.1,164.6,214q1.05,7.92,2,15.85l4,31.71c1.36,10.55,2.71,21.15,4.5,31.58.1.66.24,1.28.39,1.91s.25,1.25.44,1.89l1.08,3.87q1.06,3.85,2,7.74,2,7.76,3.82,15.54l.16.69-.63.28A114.48,114.48,0,0,1,169,329.84c-4.51,1.36-9.06,2.54-13.65,3.59s-9.2,1.9-13.84,2.61c-2.32.4-4.65.66-7,1s-4.66.5-7,.76c4.63-.72,9.26-1.46,13.86-2.38s9.15-2,13.7-3.07,9-2.43,13.47-3.89,8.75-3.12,13-5l-.47,1q-1.91-7.75-3.93-15.48c-.68-2.57-1.38-5.14-2.1-7.69l-1.1-3.83c-.33-1.29-.68-2.68-.91-4l-.69-4-.58-4c-.4-2.65-.73-5.29-1.09-7.93q-1-7.93-2-15.88c-1.29-10.58-2.36-21.18-3.43-31.78q-.82-8-1.53-15.92C163.43,208.72,162.94,203.41,162.53,198.1Z"/></g><g class="c"><path class="d" d="M227.19,130.28q9,11.35,17.82,22.87l17.63,23c2.92,3.84,5.88,7.66,8.84,11.47s5.94,7.6,9,11.36l2.28,2.8,2.34,2.75c.76.94,1.57,1.82,2.39,2.69.41.44.8.89,1.22,1.31l1.31,1.18a70.51,70.51,0,0,0,12.34,7.42c-2.25-.89-4.47-1.86-6.64-2.95a43.61,43.61,0,0,1-6.3-3.69L288,209.31c-.45-.42-.87-.86-1.31-1.28-.88-.86-1.74-1.72-2.55-2.62-1.67-1.77-3.25-3.6-4.84-5.43-6.32-7.34-12.28-15-18.19-22.62s-11.64-15.43-17.29-23.28S232.58,138.31,227.19,130.28Z"/><path class="d" d="M223.86,140.73q10.56,13.17,20.93,26.44c6.94,8.84,13.84,17.7,20.83,26.49q5.22,6.61,10.54,13.14c3.54,4.35,7.14,8.65,10.89,12.78l1.45,1.5a15.36,15.36,0,0,0,1.48,1.43c.52.43,1,.9,1.55,1.3s1.13.8,1.72,1.16a78,78,0,0,0,7.28,4.14,162.25,162.25,0,0,0,15.4,6.77A135.49,135.49,0,0,1,300.1,230a79,79,0,0,1-7.54-3.9c-.61-.35-1.21-.75-1.81-1.13a21.67,21.67,0,0,1-1.71-1.36,16.77,16.77,0,0,1-1.59-1.45l-1.53-1.49c-7.8-8.19-14.84-17-21.86-25.75s-13.81-17.76-20.51-26.79S230.28,150,223.86,140.73Z"/><path class="d" d="M219.72,151.7c6.89,7.83,13.59,15.82,20.26,23.85s13.14,16.21,19.59,24.41q19.29,24.64,37.18,50.38c5.93,8.59,11.65,17.32,17.26,26.13s11.11,17.67,16.38,26.68c10.58,18,20.74,36.26,29.3,55.3q-7-14-14.75-27.58t-15.87-26.93c-10.9-17.77-22-35.39-34-52.47C289.21,242.86,283.13,234.4,277,226s-12.42-16.74-18.69-25.07-12.68-16.55-19.14-24.73S226.27,159.82,219.72,151.7Z"/><path class="d" d="M296.24,207c4.81,6.11,9.59,12.24,14.44,18.31l14.49,18.27c4.81,6.12,9.55,12.28,14.16,18.56a173.37,173.37,0,0,1,12.84,19.6,88.37,88.37,0,0,1,4.77,10.77c1.37,3.67,2.57,7.4,3.64,11.16s2,7.55,2.79,11.38,1.41,7.69,1.87,11.56A95.84,95.84,0,0,1,365.5,350a48.37,48.37,0,0,1-2.84,11.36,26.19,26.19,0,0,1-6.39,9.7,27.18,27.18,0,0,0,5.94-9.87,47.42,47.42,0,0,0,2.4-11.3,97.14,97.14,0,0,0-.79-23.11c-.54-3.83-1.25-7.63-2.09-11.41s-1.77-7.52-2.85-11.23-2.3-7.39-3.67-11a82.46,82.46,0,0,0-4.74-10.5,206.55,206.55,0,0,0-12.65-19.43c-4.53-6.3-9.25-12.46-13.94-18.66l-14-18.64C305.26,219.69,300.67,213.41,296.24,207Z"/><path class="d" d="M266.85,212a391.2,391.2,0,0,1,13,40.37,423.55,423.55,0,0,1,9,41.51c1.08,7,2,14,2.62,21.1.41,3.52.53,7.07.77,10.6s.35,7.07.46,10.61l.66,21.19.2,10.61.08,5.3v4.77h0v-.78l-.06-1.33-.15-2.64-.31-5.29-.65-10.59-1.21-21.16c-.23-3.53-.38-7.07-.65-10.57s-.43-7-.86-10.54c-.7-7-1.65-14-2.78-21-2.14-13.94-5.13-27.74-8.48-41.45-1.65-6.86-3.49-13.68-5.43-20.47S269,218.71,266.85,212Z"/><path class="d" d="M257.47,198.1c-.41,5.31-.9,10.62-1.37,15.92s-1,10.62-1.53,15.92c-1.07,10.6-2.14,21.2-3.43,31.78q-.94,7.95-2,15.88c-.36,2.64-.69,5.28-1.09,7.93l-.58,4-.69,4c-.23,1.31-.58,2.7-.91,4l-1.1,3.83c-.72,2.55-1.42,5.12-2.1,7.69q-2,7.72-3.93,15.48l-.47-1q6.38,2.82,13,5c4.44,1.46,8.94,2.73,13.47,3.89s9.1,2.19,13.7,3.07,9.23,1.66,13.86,2.38c-2.33-.26-4.67-.47-7-.76s-4.66-.6-7-1q-7-1.07-13.84-2.61c-4.59-1.05-9.14-2.23-13.65-3.59A113.54,113.54,0,0,1,237.58,325l-.63-.28.16-.69q1.84-7.8,3.82-15.54,1-3.89,2-7.74l1.08-3.87c.19-.64.29-1.26.44-1.89s.29-1.25.39-1.91c1.79-10.43,3.14-21,4.5-31.58l4-31.71q1-7.93,2-15.85Z"/></g><path class="e" d="M201.5,75.71c.21-2.13-.3-10.66-5-17.1a4.3,4.3,0,0,1-2.15,1.51c-18,3.69-32.62,14.66-32.62,33.8h0a16.29,16.29,0,0,0,3.87,10.55c8.23-2.58,21.55-6.83,23.86-8.11C192.87,94.48,201.13,79.47,201.5,75.71Z"/><path class="e" d="M222.77,59.64a29.82,29.82,0,0,0-4.27,16.07c.37,3.76,8.63,18.77,12,20.65,2.31,1.28,15.63,5.53,23.86,8.11a16.29,16.29,0,0,0,3.87-10.55h0C258.24,73.79,242.22,62.15,222.77,59.64Z"/></svg>