<svg xmlns="http://www.w3.org/2000/svg" xmlns:xlink="http://www.w3.org/1999/xlink" viewBox="0 0 420 420"><defs><style>.a{fill:#0a0a2b;}.b{fill:#684500;}.c{fill:#fcdd00;}.d{fill:#f9cf00;}.e{fill:url(#a);}.f{fill:none;}.g{fill:#d3eeef;}.h,.j{opacity:0.4;}.i{fill:#ff7900;}.j{fill:#fff;}</style><radialGradient id="a" cx="171.49" cy="367.34" r="396.64" gradientTransform="matrix(-1, 0.01, 0.01, 1, 458.55, -1.7)" gradientUnits="userSpaceOnUse"><stop offset="0.04" stop-color="#fff"/><stop offset="0.11" stop-color="#fcdd00"/><stop offset="0.18" stop-color="#f8e501"/><stop offset="0.39" stop-color="#eff404"/><stop offset="0.63" stop-color="#eafc06"/><stop offset="1" stop-color="#e8ff06"/></radialGradient></defs><path class="a" d="M188.65,98.61s-4.69-12.2-4.88-16.14.94-7,2.44-7.32,2.82,2.44,2.63,6.94,1.31,17.46,1.31,17.46Z"/><path class="a" d="M144.91,130.71l-18.58.38a84.6,84.6,0,0,0-17.27-24c-9-8.52-16.89-15.78-19.91-18.53a2.35,2.35,0,0,0-2.9-.21,22.37,22.37,0,0,0-5.16,4.85A27.15,27.15,0,0,0,77.77,99a2.05,2.05,0,0,0,1.34,2.77,58,58,0,0,1,27.14,17.11c13,14.65,15.58,18.4,15.58,18.4s-.57,7.7.56,7.88,19-6,19-6Z"/><path class="a" d="M79.78,96.36,79.1,89a3.23,3.23,0,0,0-3-2.93s-10.16,1.93-10.72-2c-1.25-8.72-11.55-9.3-8.73-3.1l2.66,8.57a4,4,0,0,0,4,3.71l11.54-.12a5.15,5.15,0,0,1,2.92.86Z"/><path class="a" d="M118.82,186l-11.23-5.22a2.85,2.85,0,0,0-4,2.87l.35,3.48s-9.29,14.92-17.74,20a50.66,50.66,0,0,1-14.8,5.95,1.52,1.52,0,0,0-1.19,1.54l.06,1.42a5.09,5.09,0,0,0,3.8,4.7l3.19.82a3.82,3.82,0,0,0,3.42-.78c4.57-3.85,18.08-15.53,21.57-21.82a97.76,97.76,0,0,0,5.07-9.85L120,192.47Z"/><path class="a" d="M106.72,278.9c-1.5,4.13-9.63,7.26-14.89,8.89a3.08,3.08,0,0,0-1.59,4.71,11.76,11.76,0,0,1,2.12,4.71c.56,3.94,6.19,23.37,1.4,39.13-2.91,9.61-5.1,14.1-6.36,16.13a2.38,2.38,0,0,0,.6,3.2,9.75,9.75,0,0,0,8,1.79,13.38,13.38,0,0,0,7.1-4.65,5.69,5.69,0,0,0,1.22-2.94c.52-4.86,2.07-21.31.41-33-2-13.79-5.35-20.55-5.35-20.55L114.6,284S109,272.71,106.72,278.9Z"/><path class="a" d="M93.76,354.08s-1.4,4.79-4.5,7.32-9,5.07-8.45,8.45,10.4,11.82,12.11,11.82c.56,0,9.57-8.44,5.35-10.7a23.52,23.52,0,0,0-6-2,1.08,1.08,0,0,1-.39-1.87c1.55-1.29,3.53-3.35,3.53-5.41A24.93,24.93,0,0,0,93.76,354.08Z"/><path class="a" d="M74.21,215.68s-4.5,4.79-9.57,4.5-10.14-.28-10.42,4.23,1.13,7.6,3.66,8.16,3.1-4.78,3.1-4.78l.84-3.95s4.91,1.13,8-1.4A15.78,15.78,0,0,0,74.21,215.68Z"/><path class="a" d="M231.35,98.61s4.69-12.2,4.88-16.14-.94-7-2.44-7.32-2.82,2.44-2.63,6.94-1.31,17.46-1.31,17.46Z"/><path class="a" d="M275.09,130.71l18.58.38a84.6,84.6,0,0,1,17.27-24c9-8.52,16.89-15.78,19.91-18.53a2.35,2.35,0,0,1,2.9-.21,22.37,22.37,0,0,1,5.16,4.85A27.15,27.15,0,0,1,342.23,99a2.05,2.05,0,0,1-1.34,2.77,58,58,0,0,0-27.14,17.11c-12.95,14.65-15.58,18.4-15.58,18.4s.57,7.7-.56,7.88-19-6-19-6Z"/><path class="a" d="M340.22,96.36,340.9,89A3.23,3.23,0,0,1,344,86.08s10.16,1.93,10.72-2c1.25-8.72,11.55-9.3,8.73-3.1l-2.66,8.57a4,4,0,0,1-4,3.71l-11.54-.12a5.15,5.15,0,0,0-2.92.86Z"/><path class="a" d="M301.18,186l11.23-5.22a2.85,2.85,0,0,1,4,2.87l-.35,3.48s9.29,14.92,17.74,20a50.66,50.66,0,0,0,14.8,5.95,1.52,1.52,0,0,1,1.19,1.54l-.06,1.42a5.09,5.09,0,0,1-3.8,4.7l-3.19.82a3.82,3.82,0,0,1-3.42-.78c-4.57-3.85-18.08-15.53-21.57-21.82a97.76,97.76,0,0,1-5.07-9.85l-12.67,3.38Z"/><path class="a" d="M313.28,278.9c1.5,4.13,9.63,7.26,14.89,8.89a3.08,3.08,0,0,1,1.59,4.71,11.76,11.76,0,0,0-2.12,4.71c-.56,3.94-6.19,23.37-1.4,39.13,2.91,9.61,5.1,14.1,6.36,16.13a2.38,2.38,0,0,1-.6,3.2,9.75,9.75,0,0,1-8,1.79,13.38,13.38,0,0,1-7.1-4.65,5.69,5.69,0,0,1-1.22-2.94c-.52-4.86-2.07-21.31-.41-33,2-13.79,5.35-20.55,5.35-20.55L305.4,284S311,272.71,313.28,278.9Z"/><path class="a" d="M326.24,354.08s1.4,4.79,4.5,7.32,9,5.07,8.45,8.45-10.4,11.82-12.11,11.82c-.56,0-9.57-8.44-5.35-10.7a23.52,23.52,0,0,1,6-2,1.08,1.08,0,0,0,.39-1.87c-1.55-1.29-3.53-3.35-3.53-5.41A24.93,24.93,0,0,1,326.24,354.08Z"/><path class="a" d="M345.79,215.68s4.5,4.79,9.57,4.5,10.14-.28,10.42,4.23-1.13,7.6-3.66,8.16-3.1-4.78-3.1-4.78l-.84-3.95s-4.91,1.13-8-1.4A15.78,15.78,0,0,1,345.79,215.68Z"/><path class="a" d="M183,102.37s7.13-9.89,26.65-9.89S237,102.37,237,102.37l-27,6Z"/><path d="M240,139.34v1h0c11.07,0,23.86,1.09,34.72,9.13,13,9.66,24.29,25.41,32.56,45.55,7.72,18.83,12,39.63,12,58.57a113.22,113.22,0,0,1-32,79.45,107.17,107.17,0,0,1-154.5,0,113.22,113.22,0,0,1-32-79.45c0-18.45,4.5-39.08,12.66-58.09,8.43-19.63,20.12-35.76,32.91-45.42,11.2-8.46,23.55-9.62,35.22-9.62,4.36,0,8.79.18,13.47.38,4.85.2,9.87.41,15,.41s10.47-.24,15.53-.47,9.76-.44,14.47-.44v-1m0,0c-9.62,0-19.73.91-30,.91-10,0-19.47-.79-28.47-.79-13.05,0-25,1.67-35.85,9.83-27.32,20.64-46,66.82-46,104.35C99.7,316.27,149.08,367,210,367s110.3-50.76,110.3-113.39c0-37.9-17.17-84.37-45-105C265,141,252.91,139.34,240,139.34Z"/><path class="b" d="M320.3,253.64C320.3,316.27,270.92,367,210,367S99.7,316.27,99.7,253.64c0-37.53,18.66-83.71,46-104.35,18.27-13.8,39.91-9,64.32-9,24.05,0,47.22-5,65.34,8.43C303.13,169.27,320.3,215.74,320.3,253.64Z"/><path class="c" d="M132.62,296.7c18,11.74,67.33-89.85,76.38-108.93l-1.53,173a3.64,3.64,0,0,1-3.82,3.61C147.37,362,102.18,316.24,98.39,259,110.13,274.64,123.46,290.74,132.62,296.7Z"/><path class="d" d="M132.62,296.7c-9.16-6-22.49-22.06-34.23-37.71-.19-2.92-.28-5.86-.25-8.83.33-37.53,19.4-83.55,46.9-103.94,17.59-13,38.1-9.09,61.2-8.53a3.26,3.26,0,0,1,3.17,3.3L209,187.77C200,206.85,150.66,308.44,132.62,296.7Z"/><path class="c" d="M287.27,296.7c-18,11.74-67.33-89.85-76.38-108.93l1.52,173a3.65,3.65,0,0,0,3.82,3.61C272.51,362,317.71,316.24,321.49,259,309.76,274.64,296.42,290.74,287.27,296.7Z"/><path class="e" d="M287.27,296.7c9.15-6,22.49-22.06,34.22-37.71.2-2.92.28-5.86.26-8.83-.33-37.53-19.4-83.55-46.91-103.94-17.58-13-38.09-9.09-61.19-8.53a3.26,3.26,0,0,0-3.17,3.3l.41,46.78C219.94,206.85,269.23,308.44,287.27,296.7Z"/><path class="f" d="M212.41,360.8a3.66,3.66,0,0,0,3.82,3.61c59.15-2.57,106.06-52.93,105.52-114.25-.33-37.53-19.4-83.55-46.91-103.94-17.58-13-38.09-9.09-61.19-8.53a3.25,3.25,0,0,0-3.17,3.29Z"/><path class="d" d="M287.27,296.7c9.15-6,22.49-22.06,34.22-37.71.2-2.92.28-5.86.26-8.83-.33-37.53-19.4-83.55-46.91-103.94-17.58-13-38.09-9.09-61.19-8.53a3.26,3.26,0,0,0-3.17,3.3l.41,46.78C219.94,206.85,269.23,308.44,287.27,296.7Z"/><path class="a" d="M281.86,159.59a3,3,0,0,0,1.73-4.11A57,57,0,0,1,279,137.34c-1.41-14-8.16-30.41-22.24-33.63s-47.3-2.34-47.3-2.34h1.12s-33.22-.88-47.3,2.34S142.43,123.3,141,137.34a47.35,47.35,0,0,1-5.27,18.1,3,3,0,0,0,1.62,4.26A224.8,224.8,0,0,0,209,171.91,233.1,233.1,0,0,0,281.86,159.59Z"/><path class="g" d="M256.74,103.71c-6.86-1.57-18.25-2.16-28.14-2.36,2.15,11.46,7.1,33.3,14.18,37.62,8.42,5.15,24.72-.06,35.81-4.72C276.55,121,269.8,106.69,256.74,103.71Z"/><path class="g" d="M163.19,103.71c6.86-1.57,18.25-2.16,28.14-2.36-2.15,11.46-7.1,33.3-14.18,37.62-8.42,5.15-24.72-.06-35.81-4.72C143.38,121,150.13,106.69,163.19,103.71Z"/><g class="h"><ellipse class="i" cx="271.26" cy="206.49" rx="23.65" ry="27.22" transform="translate(-33.13 52.98) rotate(-10.52)"/><path class="i" d="M211.58,263.16c14.53-.1,27.23-11.12,27.14-24.61s-12.94-24.33-27.47-24.23Z"/><ellipse class="i" cx="268.04" cy="261.98" rx="12.01" ry="10.6" transform="translate(-21.43 500.07) rotate(-83.78)"/><path class="i" d="M296,265.44c-1.48,14.5-.6,26.69,4.43,27.2s12.3-10.84,13.78-25.34-1.4-26.67-6.43-27.19S297.5,250.94,296,265.44Z"/><path class="i" d="M243.89,309.74c-6.39,11.23-5.84,22.79,3.57,28.14s22.21.57,28.59-10.66,5.83-22.79-3.58-28.14S250.27,298.51,243.89,309.74Z"/></g><g class="h"><ellipse class="i" cx="148.27" cy="206.49" rx="27.22" ry="23.65" transform="translate(-81.76 314.69) rotate(-79.51)"/><path class="i" d="M208,263.13c-14.53-.09-27.24-11.1-27.15-24.59s12.93-24.33,27.46-24.24Z"/><ellipse class="i" cx="151.52" cy="261.98" rx="10.6" ry="12.01" transform="translate(-27.6 18.04) rotate(-6.24)"/><path class="i" d="M123.54,265.46c1.49,14.5.61,26.69-4.42,27.2s-12.3-10.84-13.79-25.34,1.39-26.67,6.42-27.19S122.06,251,123.54,265.46Z"/><path class="i" d="M175.7,309.73c6.38,11.23,5.84,22.79-3.56,28.14s-22.21.58-28.6-10.64-5.84-22.79,3.56-28.14S169.31,298.5,175.7,309.73Z"/></g><path class="j" d="M134.08,161.37s24.09,7.71,41.11,10.42a233.35,233.35,0,0,0,32.66,2.81v3.1s-57.44-3.38-72.36-14.08c-3.72-2.67-1.41-2.25-1.41-2.25"/><path class="j" d="M285.92,161.37s-24.09,7.71-41.11,10.42a233.35,233.35,0,0,1-32.66,2.81v3.1s57.44-3.38,72.36-14.08c3.72-2.67,1.41-2.25,1.41-2.25"/></svg>