<svg xmlns="http://www.w3.org/2000/svg" viewBox="0 0 420 420"><defs><style>.a{fill:#0d722e;}.b{fill:#40cc72;}</style></defs><path class="a" d="M79,158.74H76.27c-7.67,0-13.84,2.18-18.34,6.48s-6.83,10.71-6.83,18.95v49.34c0,8.14,2.33,14.5,6.9,18.9S68.71,259,76.27,259H79c7.56,0,13.7-2.21,18.27-6.56s6.89-10.74,6.89-18.88V184.17c0-8.23-2.3-14.6-6.82-18.95S86.67,158.74,79,158.74ZM67,211.81V181.58a7.7,7.7,0,0,1,2.56-5.8,9.25,9.25,0,0,1,6.68-2.48H79a9.19,9.19,0,0,1,6.67,2.48,7.75,7.75,0,0,1,2.53,5.16ZM88.24,206v30.12a7.73,7.73,0,0,1-2.56,5.79A9.19,9.19,0,0,1,79,244.4H76.27a9.23,9.23,0,0,1-6.68-2.49,7.79,7.79,0,0,1-2.53-5.16Z"/><polygon class="a" points="160.27 158.75 140.17 166.26 140.17 181.91 159.5 174.79 159.5 244.4 141.55 244.4 141.55 258.95 190.37 258.95 190.37 244.4 175.43 244.4 175.43 158.75 160.27 158.75"/><path class="a" d="M254.43,158.74h-2.75c-7.67,0-13.84,2.18-18.33,6.48s-6.84,10.71-6.84,18.95v49.34c0,8.14,2.33,14.5,6.9,18.9S244.12,259,251.68,259h2.75c7.55,0,13.7-2.21,18.26-6.56s6.9-10.74,6.9-18.88V184.17c0-8.23-2.3-14.6-6.83-18.95S262.09,158.74,254.43,158.74Zm-12,53.07V181.58a7.67,7.67,0,0,1,2.56-5.8,9.22,9.22,0,0,1,6.67-2.48h2.75a9.18,9.18,0,0,1,6.66,2.48,7.76,7.76,0,0,1,2.54,5.16Zm21.2-5.81v30.12a7.73,7.73,0,0,1-2.56,5.79,9.18,9.18,0,0,1-6.66,2.49h-2.75a9.21,9.21,0,0,1-6.67-2.49,7.76,7.76,0,0,1-2.54-5.16Z"/><polygon class="a" points="335.68 158.75 315.59 166.26 315.59 181.91 334.91 174.79 334.91 244.4 316.96 244.4 316.96 258.95 365.78 258.95 365.78 244.4 350.84 244.4 350.84 158.75 335.68 158.75"/><polygon class="a" points="87.73 278.86 72.56 278.86 52.47 286.37 52.47 302.03 71.79 294.9 71.79 364.51 53.84 364.51 53.84 379.07 102.67 379.07 102.67 364.51 87.73 364.51 87.73 278.86"/><path class="a" d="M166.71,278.86H164c-7.67,0-13.84,2.17-18.33,6.47s-6.84,10.71-6.84,19v49.33c0,8.15,2.33,14.51,6.9,18.91s10.71,6.54,18.27,6.54h2.74c7.56,0,13.71-2.21,18.27-6.56s6.9-10.74,6.9-18.89V304.29c0-8.23-2.3-14.61-6.83-19S174.38,278.86,166.71,278.86Zm-12,53.06V301.69a7.7,7.7,0,0,1,2.56-5.8,9.21,9.21,0,0,1,6.67-2.48h2.74a9.19,9.19,0,0,1,6.67,2.48,7.8,7.8,0,0,1,2.54,5.17Zm21.2-5.8v30.11a7.73,7.73,0,0,1-2.56,5.79,9.19,9.19,0,0,1-6.67,2.49H164A9.21,9.21,0,0,1,157.3,362a7.76,7.76,0,0,1-2.54-5.15Z"/><polygon class="a" points="263.14 278.86 247.98 278.86 227.88 286.37 227.88 302.03 247.21 294.9 247.21 364.51 229.26 364.51 229.26 379.07 278.1 379.07 278.1 364.51 263.14 364.51 263.14 278.86"/><path class="a" d="M342.13,278.86h-2.75c-7.67,0-13.84,2.17-18.33,6.47s-6.83,10.71-6.83,19v49.33c0,8.15,2.32,14.51,6.9,18.91s10.7,6.54,18.26,6.54h2.75c7.55,0,13.7-2.21,18.27-6.56s6.89-10.74,6.89-18.89V304.29c0-8.23-2.3-14.61-6.83-19S349.79,278.86,342.13,278.86Zm-12,53.06V301.69a7.73,7.73,0,0,1,2.56-5.8,9.22,9.22,0,0,1,6.67-2.48h2.75a9.18,9.18,0,0,1,6.66,2.48,7.76,7.76,0,0,1,2.54,5.17Zm21.2-5.8v30.11a7.69,7.69,0,0,1-2.56,5.79,9.17,9.17,0,0,1-6.66,2.49h-2.75a9.22,9.22,0,0,1-6.67-2.49,7.8,7.8,0,0,1-2.54-5.15Z"/><polygon class="a" points="71.79 124.3 53.84 124.3 53.84 138.85 102.67 138.85 102.67 124.3 87.73 124.3 87.73 38.65 72.56 38.65 52.47 46.16 52.47 61.82 71.79 54.69 71.79 124.3"/><path class="a" d="M166.71,38.65H164c-7.67,0-13.84,2.17-18.33,6.47s-6.84,10.71-6.84,18.95v49.34c0,8.15,2.33,14.5,6.9,18.9s10.71,6.54,18.27,6.54h2.74c7.56,0,13.71-2.2,18.27-6.55s6.9-10.74,6.9-18.89V64.07c0-8.23-2.3-14.6-6.83-18.95S174.38,38.65,166.71,38.65Zm-12,53.06V61.48a7.67,7.67,0,0,1,2.56-5.8A9.21,9.21,0,0,1,164,53.2h2.74a9.19,9.19,0,0,1,6.67,2.48,7.76,7.76,0,0,1,2.54,5.17Zm21.2-5.8V116a7.73,7.73,0,0,1-2.56,5.79,9.19,9.19,0,0,1-6.67,2.49H164a9.21,9.21,0,0,1-6.67-2.49,7.76,7.76,0,0,1-2.54-5.16Z"/><polygon class="a" points="247.21 124.3 229.26 124.3 229.26 138.85 278.08 138.85 278.08 124.3 263.14 124.3 263.14 38.65 247.98 38.65 227.88 46.16 227.88 61.82 247.21 54.69 247.21 124.3"/><path class="a" d="M360.46,45.14v0c-4.5-4.3-10.67-6.47-18.33-6.47h-2.75c-7.67,0-13.84,2.17-18.33,6.47s-6.83,10.71-6.83,18.95v49.34c0,8.15,2.32,14.5,6.9,18.9s10.7,6.54,18.26,6.54h2.75c7.55,0,13.7-2.2,18.27-6.55s6.89-10.74,6.89-18.89V64.07C367.29,55.84,365,49.47,360.46,45.14ZM330.15,91.71V61.48a7.7,7.7,0,0,1,2.56-5.8,9.22,9.22,0,0,1,6.67-2.48h2.75a9.18,9.18,0,0,1,6.66,2.48,7.72,7.72,0,0,1,2.54,5.17Zm21.2-5.8V116a7.69,7.69,0,0,1-2.56,5.79,9.17,9.17,0,0,1-6.66,2.49h-2.75a9.22,9.22,0,0,1-6.67-2.49,7.8,7.8,0,0,1-2.54-5.16Z"/><polygon class="b" points="351.29 326.41 357.91 304.86 320.53 362.33 330.08 357.01 351.29 326.41"/><path class="b" d="M339.38,293.41h2.75a9.54,9.54,0,0,1,5.52,1.57c-1.76-3-5.68-6.92-14-6.1-11.4,1.12-11.46,13.26-11.46,13.26l.6,41.1,7.44-11.48,0-30.07a7.73,7.73,0,0,1,2.56-5.8A9.22,9.22,0,0,1,339.38,293.41Z"/><path class="b" d="M358.79,304.27s.63,48.66,0,53.28-4.67,14.78-14.34,15.09a41.57,41.57,0,0,1-18.09-4s6.95,8,12.11,10.39c.31,0,.6,0,.91,0h2.75c7.55,0,13.7-2.21,18.27-6.56s6.89-10.74,6.89-18.89V304.29a30,30,0,0,0-2.61-13Z"/><polygon class="b" points="175.88 326.41 182.5 304.86 145.12 362.33 154.67 357.01 175.88 326.41"/><path class="b" d="M164,293.41h2.75a9.54,9.54,0,0,1,5.52,1.57c-1.76-3-5.68-6.92-14.05-6.1-11.4,1.12-11.46,13.26-11.46,13.26l.6,41.1,7.43-11.48,0-30.07a7.7,7.7,0,0,1,2.56-5.8A9.22,9.22,0,0,1,164,293.41Z"/><path class="b" d="M183.38,304.27s.62,48.66,0,53.28S178.7,372.33,169,372.64a41.57,41.57,0,0,1-18.09-4s7,8,12.11,10.39c.31,0,.6,0,.91,0h2.75c7.55,0,13.7-2.21,18.26-6.56s6.9-10.74,6.9-18.89V304.29a30,30,0,0,0-2.61-13Z"/><polygon class="b" points="351.29 86.28 357.91 64.72 320.53 122.2 330.08 116.87 351.29 86.28"/><path class="b" d="M330.18,91.62l0-30.06a7.74,7.74,0,0,1,2.56-5.81,9.26,9.26,0,0,1,6.67-2.47h2.75a9.54,9.54,0,0,1,5.52,1.56c-1.76-3-5.68-6.92-14-6.1C322.2,49.86,322.14,62,322.14,62l.6,41.09Z"/><path class="b" d="M364.68,51.11l-5.89,13s.63,48.65,0,53.27-4.67,14.79-14.34,15.09a41.57,41.57,0,0,1-18.09-4s6.95,8,12.11,10.39c.31,0,.6,0,.91,0h2.75c7.55,0,13.7-2.21,18.27-6.56s6.89-10.74,6.89-18.89V64.15A30,30,0,0,0,364.68,51.11Z"/><polygon class="b" points="175.88 86.28 182.5 64.72 145.12 122.2 154.67 116.87 175.88 86.28"/><path class="b" d="M154.76,91.62l0-30.06a7.7,7.7,0,0,1,2.56-5.81A9.26,9.26,0,0,1,164,53.28h2.75a9.54,9.54,0,0,1,5.52,1.56c-1.76-3-5.68-6.92-14.05-6.1C146.79,49.86,146.73,62,146.73,62l.6,41.09Z"/><path class="b" d="M183.38,64.14s.62,48.65,0,53.27S178.7,132.2,169,132.5a41.57,41.57,0,0,1-18.09-4s7,8,12.11,10.39c.31,0,.6,0,.91,0h2.75c7.55,0,13.7-2.21,18.26-6.56s6.9-10.74,6.9-18.89V64.15a30,30,0,0,0-2.61-13Z"/><polygon class="b" points="242.52 237.06 263.73 206.47 270.35 184.91 232.97 242.39 242.52 237.06"/><path class="b" d="M251.82,173.47h2.74a9.52,9.52,0,0,1,5.52,1.56c-1.75-3-5.67-6.91-14-6.09-11.4,1.11-11.45,13.26-11.45,13.26l.6,41.09,7.43-11.47,0-30.07a7.7,7.7,0,0,1,2.56-5.8A9.25,9.25,0,0,1,251.82,173.47Z"/><path class="b" d="M271.23,184.33s.62,48.66,0,53.28-4.68,14.78-14.35,15.09a41.48,41.48,0,0,1-18.08-4s6.95,8,12.11,10.4c.3,0,.6,0,.91,0h2.74c7.56,0,13.7-2.21,18.27-6.56s6.89-10.74,6.89-18.88V184.34a30.2,30.2,0,0,0-2.6-13Z"/><polygon class="b" points="67.11 237.06 88.31 206.47 94.94 184.91 57.56 242.39 67.11 237.06"/><path class="b" d="M76.41,173.47h2.74A9.52,9.52,0,0,1,84.67,175c-1.76-3-5.67-6.91-14-6.09-11.4,1.11-11.46,13.26-11.46,13.26l.61,41.09,7.43-11.47,0-30.07a7.7,7.7,0,0,1,2.56-5.8A9.23,9.23,0,0,1,76.41,173.47Z"/><path class="b" d="M95.81,184.33s.63,48.66,0,53.28-4.67,14.78-14.34,15.09a41.5,41.5,0,0,1-18.09-4s7,8,12.11,10.4c.31,0,.61,0,.92,0h2.74c7.55,0,13.7-2.21,18.27-6.56s6.89-10.74,6.89-18.88V184.34a30.2,30.2,0,0,0-2.6-13Z"/><polygon class="b" points="256.14 278.85 248.01 278.85 227.86 291.95 227.86 301.99 255.34 279.81 247.03 294.86 247.03 364.5 255.74 370.25 229.26 373.27 229.26 379.01 278.1 379.15 278.1 373.41 256.14 370.25 256.14 278.85"/><polygon class="b" points="80.72 278.92 72.58 278.92 52.44 292.02 52.44 302.06 79.91 279.88 71.61 294.93 71.61 364.57 80.31 370.32 53.83 373.34 53.83 379.08 102.67 379.22 102.67 373.48 80.72 370.32 80.72 278.92"/><polygon class="b" points="316.92 258.88 365.76 259.02 365.76 253.28 343.8 250.12 343.8 158.72 335.67 158.72 315.52 171.82 315.52 181.85 343 159.68 334.69 174.73 334.69 244.37 343.4 250.12 316.92 253.14 316.92 258.88"/><polygon class="b" points="141.49 258.95 190.33 259.09 190.33 253.35 168.38 250.19 168.38 158.79 160.24 158.79 140.1 171.89 140.1 181.93 167.57 159.75 159.27 174.8 159.27 244.44 167.97 250.19 141.49 253.21 141.49 258.95"/><polygon class="b" points="247.03 54.59 247.03 124.23 255.74 129.98 229.26 133.01 229.26 138.75 278.1 138.89 278.1 133.15 256.14 129.98 256.14 38.59 248.01 38.59 227.86 51.69 227.86 61.72 255.34 39.55 247.03 54.59"/><polygon class="b" points="71.61 54.66 71.61 124.3 80.31 130.05 53.83 133.08 53.83 138.82 102.67 138.96 102.67 133.22 80.72 130.05 80.72 38.66 72.58 38.66 52.44 51.76 52.44 61.79 79.91 39.62 71.61 54.66"/></svg>