<svg xmlns="http://www.w3.org/2000/svg" viewBox="0 0 420 420"><defs><style>.a{fill:#3b007f;}.b{fill:#c1c1c1;}.c{fill:#ff2c80;}.d{fill:#f4f4f4;}</style></defs><path class="a" d="M294.39,259l-39.14,42.35C296,339,323.14,364.44,339.79,384H384.4V347.44C365.56,325.19,337,298.44,294.39,259Z"/><path class="a" d="M220.23,309.84s11.66-3.75,20.4,1.25l4.11,2.7h0A106.1,106.1,0,0,1,259,326.91l2.36,2.36a2.62,2.62,0,0,0,3.5.19l3-2.39a2,2,0,0,1,2.85.31h0a2,2,0,0,1-.31,2.86L268.15,332a2.64,2.64,0,0,0-.22,3.91l7.56,7.55a2.62,2.62,0,0,0,3.5.19l2.74-2.2a2,2,0,0,1,2.86.31h0a2,2,0,0,1-.31,2.85l-2,1.57a2.63,2.63,0,0,0-.21,3.9l5.76,5.76a2.29,2.29,0,0,0,2.46.52c2.54-1,21.41-14.33,37.2-30.23,14.7-14.8,26.42-32.19,27.5-34.89a2.29,2.29,0,0,0-.52-2.46L348.75,283a2.62,2.62,0,0,0-3.9.21l-1.57,1.95a2,2,0,0,1-2.85.31h0a2,2,0,0,1-.31-2.85l2.2-2.74a2.63,2.63,0,0,0-.19-3.51l-7.55-7.55a2.63,2.63,0,0,0-3.91.21l-1.75,2.18a2,2,0,0,1-2.86.31h0a2,2,0,0,1-.31-2.85l2.39-3a2.63,2.63,0,0,0-.19-3.51l-2.36-2.36a105.39,105.39,0,0,1-13.12-14.21h0l-2.7-4.11c-5-8.74-1.25-20.4-1.25-20.4Z"/><path class="b" d="M27.55,152.2H147.44a0,0,0,0,1,0,0v14.14a0,0,0,0,1,0,0H24a3.88,3.88,0,0,1-3.88-3.88v-2.86a7.41,7.41,0,0,1,7.41-7.41Z" transform="translate(137.16 -12.6) rotate(45)"/><path class="b" d="M98.39,77.88H221.8a0,0,0,0,1,0,0V92a0,0,0,0,1,0,0H101.91a7.41,7.41,0,0,1-7.41-7.41V81.76A3.88,3.88,0,0,1,98.39,77.88Z" transform="translate(106.4 -86.95) rotate(45)"/><path class="a" d="M327.79,207.7c1.24-5.42-7.91-11.25-12.49-12.91s-7.08-.83-10.41-3.33-6.25-11.66-13.32-23.32c-5.68-9.35-21.83-25.42-28-31.39a10.24,10.24,0,0,1-3-5.7s-6.36-35.59-7.58-36.81l-8.66-8.66a3.35,3.35,0,0,0-4.73,0S205.48,117,166.45,154.73s-82.87,86.11-82.87,86.11a3.33,3.33,0,0,0,0,4.72l8.66,8.66a8.24,8.24,0,0,0,4.51,2.31l32.31,5.27a10.16,10.16,0,0,1,5.69,3c6,6.15,22,22.29,31.4,28,11.66,7.08,20.81,10,23.31,13.32s1.67,5.83,3.33,10.41,7.5,13.74,12.91,12.49c2.62-.6,35.89-24.37,63.7-54.54C328.09,210.73,327.79,207.7,327.79,207.7Z"/><circle class="c" cx="88.62" cy="330.53" r="51.67"/><polygon class="d" points="113.69 315.89 103.25 305.46 88.62 320.09 73.98 305.46 63.55 315.89 78.18 330.53 63.55 345.16 73.98 355.6 88.62 340.96 103.25 355.6 113.69 345.16 99.05 330.53 113.69 315.89"/></svg>