<svg xmlns="http://www.w3.org/2000/svg" xmlns:xlink="http://www.w3.org/1999/xlink" viewBox="0 0 420 420"><defs><style>.a{fill:#0dd129;}.b{fill:#ff9100;}.c{fill:#a3a3a1;}.d{fill:#c6956c;}.e,.j{fill:#fff;}.f{fill:#6a3401;}.g{fill:#16130b;}.h{fill:#861b15;}.i{fill:#999;}.j{stroke:#afafaf;stroke-miterlimit:10;}.k{fill:url(#a);}.l{fill:#ffcb48;}.m{fill:#8ad613;}</style><linearGradient id="a" x1="288.37" y1="313.62" x2="328.37" y2="273.62" gradientUnits="userSpaceOnUse"><stop offset="0" stop-color="#2d2b27"/><stop offset="1" stop-color="#191919"/></linearGradient></defs><path class="a" d="M33.24,382.92s-1.51-27.9,7.5-46.3,39.42-75.45,39.42-75.45l45.43,107.74Z"/><path class="a" d="M87.67,346.68S62.52,339,46.75,350.8,33.24,392,33.24,392s1.12,18.53,7.88,20.08,95-2.92,95-2.92Z"/><path class="a" d="M386.76,382.92s1.51-27.9-7.5-46.3-39.42-75.45-39.42-75.45L294.41,368.91Z"/><path class="a" d="M332.33,346.68s25.15-7.72,40.92,4.12S386.76,392,386.76,392s-1.12,18.53-7.88,20.08-95-2.92-95-2.92Z"/><polygon class="b" points="291.37 190.13 286.12 232.74 122.44 233.49 123 185.62 291.37 190.13"/><polygon class="c" points="191.94 7.21 187.35 60.06 158.93 15.26 191.94 7.21"/><path class="d" d="M121.56,179.65s-15.83,8.88-8.7,28.4,25.72,33.79,25.72,33.79Z"/><polygon class="c" points="130.12 24.3 144.93 75.25 102.24 43.74 130.12 24.3"/><polygon class="c" points="231.01 7.21 235.6 60.06 264.02 15.26 231.01 7.21"/><path class="d" d="M288.91,183.47S301.35,186,300,199.41s-5.95,21.93-18.66,28.76S288.91,183.47,288.91,183.47Z"/><polygon class="c" points="292.83 24.3 278.02 75.25 320.71 43.74 292.83 24.3"/><path class="d" d="M274.76,243.44s14.64-38.86,15.2-45.05,8.45-84.19-30.41-94.32-124.16-3.95-129.23,21.68-3.1,81.37-3.1,81.37l10.7,38Z"/><path class="e" d="M188,217.35A13,13,0,1,1,164.75,215,22.82,22.82,0,0,0,151,235.74c0,12.61,10.6,22.84,23.68,22.84s21.68-10.23,21.68-22.84C196.33,228.2,193.25,221.51,188,217.35Z"/><path class="f" d="M175.78,235A13,13,0,0,0,188,217.35a21.19,21.19,0,0,0-13.32-4.45,24.28,24.28,0,0,0-9.9,2.09,13,13,0,0,0,11,20Zm0-20.64a7.6,7.6,0,1,1-7.59,7.6A7.61,7.61,0,0,1,175.78,214.35Z"/><path class="g" d="M175.78,229.54a7.6,7.6,0,1,0-7.59-7.59A7.61,7.61,0,0,0,175.78,229.54Z"/><path class="e" d="M258.42,216.7a13.05,13.05,0,1,1-23.12-1.45c-7.25,3.72-11.63,11.5-11.63,20.49,0,12.61,8.6,22.84,21.68,22.84S269,248.35,269,235.74A22.62,22.62,0,0,0,258.42,216.7Z"/><path class="f" d="M246.48,235a13,13,0,0,0,11.94-18.29,24.18,24.18,0,0,0-13.07-3.8,21.81,21.81,0,0,0-10,2.35A13,13,0,0,0,246.48,235Zm0-20.64a7.6,7.6,0,1,1-7.59,7.6A7.6,7.6,0,0,1,246.48,214.35Z"/><path class="g" d="M246.48,229.54a7.6,7.6,0,1,0-7.59-7.59A7.6,7.6,0,0,0,246.48,229.54Z"/><path class="e" d="M248.48,220.41a2,2,0,1,1,2-2A2,2,0,0,1,248.48,220.41Z"/><path class="e" d="M177.78,220.41a2,2,0,1,1,2-2A2,2,0,0,1,177.78,220.41Z"/><path class="h" d="M156.6,206.7a2.46,2.46,0,0,1-1.71-.68,2.49,2.49,0,0,1-.12-3.51c.26-.29,6.65-7,24-7,2.33,0,4.79.12,7.3.36a2.5,2.5,0,0,1,1.7.89,2.54,2.54,0,0,1,.56,1.83,2.49,2.49,0,0,1-2.48,2.27h-.25c-2.32-.22-4.59-.33-6.74-.33-15,0-20.44,5.33-20.5,5.39A2.51,2.51,0,0,1,156.6,206.7Z"/><path class="h" d="M261.3,206.71a2.54,2.54,0,0,1-1.82-.79s-5.54-5.38-20.46-5.38c-2.16,0-4.43.12-6.76.34H232a2.5,2.5,0,0,1-1.91-4.1,2.46,2.46,0,0,1,1.69-.89c2.52-.24,5-.36,7.3-.36,17.38,0,23.78,6.68,24,7a2.5,2.5,0,0,1-1.84,4.2Z"/><path class="b" d="M151,88.72a12.43,12.43,0,0,0-4.23,7.6A160.85,160.85,0,0,0,145,125.46c.26,12.47,4.5,28.44,7.6,33.79s33.51,32.1,50.68,34.35,33.23-2.53,47.3-.28c10.9,1.74,14.36,3.94,14.36,3.94l-1.4-13.51,3.94,8.44,3.94-7.88s10.14,6.76,10.7,16.89a89.34,89.34,0,0,1-.56,17.18,28.57,28.57,0,0,0,7.6-14.64c2-9.58,6.47-40.27,5.63-52.94s-4.22-52.08-52.37-71.51-85.31,4.22-85.31,4.22Z"/><path class="b" d="M148.34,98.72s-9.86-.57-16.9,9.57-11.82,16.89-12.38,25.62-1.13,25.34.28,36.32,7.6,38.58,9,42.52l1.41,3.94,1.12-26.37,5.63-6-1.12-4.5,9.38,2.62L144,171.92l5.26,5.26,2.62-34.92Z"/><path class="i" d="M344.33,414.14H75.67a10,10,0,0,1-10-9.41L55.87,238.52a10,10,0,0,1,10-10.59h288.3a10,10,0,0,1,10,10.59l-9.82,166.21A10,10,0,0,1,344.33,414.14Z"/><path class="j" d="M210,355a28.22,28.22,0,0,1-14.3-3.55,25.71,25.71,0,0,1-9.75-9.8,31,31,0,0,1,0-28.8,25.85,25.85,0,0,1,9.75-9.8,30.38,30.38,0,0,1,28.5,0,25.85,25.85,0,0,1,9.75,9.8,31.18,31.18,0,0,1,0,28.8,25.31,25.31,0,0,1-9.7,9.8A28.22,28.22,0,0,1,210,355Zm0-9a17.53,17.53,0,0,0,9.2-2.4,16.76,16.76,0,0,0,6.25-6.6,20.22,20.22,0,0,0,2.25-9.7,20.56,20.56,0,0,0-2.25-9.75,16.7,16.7,0,0,0-6.25-6.65,18.83,18.83,0,0,0-18.4,0,17,17,0,0,0-6.3,6.65,20.24,20.24,0,0,0-2.3,9.75,19.9,19.9,0,0,0,2.3,9.7,17.09,17.09,0,0,0,6.3,6.6A17.53,17.53,0,0,0,210,346Z"/><path class="k" d="M309.85,261.75h0a30.39,30.39,0,0,0-26.31,15.19h0a30.36,30.36,0,0,0,0,30.38h0a30.39,30.39,0,0,0,26.31,15.19h0a30.39,30.39,0,0,0,26.31-15.19h0a30.36,30.36,0,0,0,0-30.38h0A30.39,30.39,0,0,0,309.85,261.75Z"/><path class="e" d="M309.85,263.14a29,29,0,1,1-25.11,14.5,29.09,29.09,0,0,1,25.11-14.5m0-1.39a30.38,30.38,0,1,0,26.31,15.19,30.39,30.39,0,0,0-26.31-15.19Z"/><path class="e" d="M289.85,295.92v-5.77l11.6-3.22v3.34L292,292.79v.5l9.43,2.52v3.33Z"/><path class="e" d="M312.43,279.86l3.16,1-8.29,25.35-3.19-1Z"/><path class="e" d="M318.25,299.14v-3.33l9.44-2.52v-.5l-9.44-2.52v-3.34l11.6,3.22v5.77Z"/><polygon class="l" points="126.61 296.7 78.8 296.7 76.8 247.88 125.61 247.88 126.61 296.7"/><path class="e" d="M124.26,249.27l.94,46H80.13l-1.88-46h46m1.35-1.39H76.8l2,48.82h47.81l-1-48.82Z"/><polygon class="m" points="156.26 270.63 125.47 270.63 111.07 297.3 127.47 322.96 154.26 322.96 170.65 297.3 156.26 270.63"/><path class="e" d="M155.43,272,169,297.24,153.5,321.58H128.23l-15.55-24.34L126.3,272h29.13m.83-1.38H125.47l-14.4,26.66L127.47,323h26.79l16.39-25.66-14.39-26.66Z"/></svg>