<svg xmlns="http://www.w3.org/2000/svg" viewBox="0 0 420 420"><defs><style>.a{fill:#5be500;}.b{fill:#00e198;}.c{fill:#ff0080;}.d{fill:#e2006c;}.e{fill:#a000d4;}.f{fill:#ff0c00;}.g{fill:#f3ff00;}.h{fill:#00ffa3;}.i{fill:#ffbc00;}.j{fill:#0080ff;}.k{fill:#96ff00;}.l{fill:#7aed00;}.m{fill:#bf002e;}.n{fill:#e17200;}.o{fill:#b8e800;}.p{fill:#004cab;}.q{fill:#7300bb;}.r{fill:#00eab2;}</style></defs><path class="a" d="M209.7,270.28a4.91,4.91,0,0,0-1.57.32S204.64,280,197.58,286l-7.05,6s14.94-8.88,19.07-16.23a9.4,9.4,0,0,0,1.52-4.08,1.24,1.24,0,0,0-1.42-1.37"/><path class="a" d="M212,281.38a2.69,2.69,0,0,0-1.07.27,13.36,13.36,0,0,1-1.25,2.86c-.6,3.42-2.16,9.94-5.85,15.27l-5.27,7.59s12.13-12.45,14.21-20.63a13.66,13.66,0,0,0,.53-3.34c0-1.57-.62-2-1.3-2"/><path class="b" d="M255.11,328.47a4.11,4.11,0,0,0-2,.79s-.93,10-6.2,17.6l-5.26,7.6S253.8,342,255.89,333.83a14.12,14.12,0,0,0,.52-3.34c0-1.57-.61-2-1.3-2"/><path class="b" d="M268.33,329.36a3.84,3.84,0,0,0-2,1v.34c0,1.84-.21,10.6-4.07,17.87l-4.33,8.17s10.57-13.8,11.67-22.16a16.25,16.25,0,0,0,.18-2.4c0-2.22-.67-2.85-1.41-2.85"/><path class="b" d="M244.88,315.19a3.69,3.69,0,0,0-1.63.41l-.42,4.26-1,10.25-.53,5.24L248,318.76c-.61-2.92-2-3.57-3.16-3.57"/><path d="M46.58,97.41a8,8,0,0,1-4.91-14.32c26.17-20.29,50-9.23,58.91-.53a8,8,0,0,1-11.11,11.5c-1.7-1.58-16.86-14.71-38,1.68A7.93,7.93,0,0,1,46.58,97.41Z"/><path class="c" d="M208.4,312.24A53.76,53.76,0,0,1,186,322.83a53.89,53.89,0,0,0,44.49,8.61,53.32,53.32,0,0,1-12.89-8.32A50.47,50.47,0,0,1,208.4,312.24Z"/><path class="d" d="M271.52,279.07c0-29.8-42.8-27-42.8-9a53.84,53.84,0,0,1-20.32,42.18,50.47,50.47,0,0,0,9.23,10.88,53.32,53.32,0,0,0,12.89,8.32A54,54,0,0,0,271.52,279.07Z"/><path class="c" d="M194.89,174.72a107.32,107.32,0,0,1-55,93.74,108.5,108.5,0,0,0,16.33,1.24A107.22,107.22,0,0,0,243.44,225C256.12,207.34,194.89,121,194.89,174.72Z"/><path class="d" d="M195.24,176.62a140.2,140.2,0,0,1-35.55,69,24,24,0,0,0,4.57,16.08c2.82,4,8.14,6.73,13.83,8.56a140.57,140.57,0,0,0,83.32-55.14C278,192.08,197,167.81,195.24,176.62Z"/><path class="c" d="M109.85,172.22a79.89,79.89,0,0,1-1.42,66.29,79.66,79.66,0,0,0,52.2-74.78C160.63,119.75,97.62,144,109.85,172.22Z"/><path class="d" d="M105.35,167.11a93.88,93.88,0,0,1,7.71,37.38c0,.72,0,1.43,0,2.14,4.68,3.29,10.5,6.32,16.88,7.23a70.09,70.09,0,0,0,16.14.42,93.74,93.74,0,0,0,19.37-57.21C165.42,105.06,90.89,133.7,105.35,167.11Z"/><path class="e" d="M317,359.28c-32.3,0-61.44-12.71-86.64-37.79-18.13-18-32.11-40.14-45.64-61.51-32-50.51-49.66-72.64-85.06-72.64a50,50,0,0,1,0-100c42.29,0,79.81,18.75,111.52,47.85,24.76,22.71,42.44,46.66,58.05,71.31C290,239.34,300.61,259.28,314,259.28c27.61,0,53,22.39,53,50A50,50,0,0,1,317,359.28Z"/><path class="f" d="M186.23,132.32a64.51,64.51,0,0,0-2.79-18.81C162.22,99.69,139,90.58,113.86,88.06a64.71,64.71,0,0,1,2.42,101.23,56.41,56.41,0,0,1,16.05,6.84A64.74,64.74,0,0,0,186.23,132.32Z"/><path class="g" d="M265.54,200.73c-12.77-19.63-27.12-38.79-45.6-57.19a107.56,107.56,0,0,1-69.12,68.64c10.39,11.56,21,27.35,33.92,47.8,3,4.75,6,9.54,9.14,14.31C231.75,262.91,260,234.8,265.54,200.73Z"/><path class="h" d="M307.52,279.83a90.81,90.81,0,0,0-3.28-24.21c-5.37-4-10.83-11.24-17.33-21.14-13.49,28.75-44.14,50.48-81.63,56.71a230.35,230.35,0,0,0,25.1,30.3q19.92,19.83,43,29.29A90.67,90.67,0,0,0,307.52,279.83Z"/><path class="c" d="M139.49,139.64a64.61,64.61,0,0,0-25.63-51.58,141.26,141.26,0,0,0-14.18-.72,50,50,0,0,0,0,100,67.12,67.12,0,0,1,16.6,1.95A64.61,64.61,0,0,0,139.49,139.64Z"/><path class="i" d="M219.94,143.54c-2.82-2.8-5.72-5.59-8.74-8.35a213,213,0,0,0-27.76-21.68,64.73,64.73,0,0,1-51.11,82.62,86.33,86.33,0,0,1,18.49,16.05,107.56,107.56,0,0,0,69.12-68.64Z"/><path class="j" d="M314,259.28a16.19,16.19,0,0,1-9.78-3.66,90.86,90.86,0,0,1-30.84,95.16,111.89,111.89,0,0,0,18.3,5.75,91,91,0,0,0,34.4-95.81A52.46,52.46,0,0,0,314,259.28Z"/><path class="k" d="M286.91,234.48c-5.09-7.76-10.82-17.17-17.66-28-1.23-1.93-2.46-3.85-3.71-5.77-5.58,34.07-33.79,62.18-71.66,73.56,3.69,5.69,7.46,11.35,11.4,16.9C242.77,285,273.42,263.23,286.91,234.48Z"/><circle cx="102.1" cy="128.74" r="13.23"/><path d="M116.41,91.22A8,8,0,0,1,111.5,76.9c26.17-20.3,50-9.23,58.91-.54a8,8,0,0,1-11.12,11.51c-1.69-1.59-16.85-14.72-38,1.67A8,8,0,0,1,116.41,91.22Z"/><path class="c" d="M110.23,78.31s0-.77-.68-.25c-2,1.63-7.87,6-9.39,11.64-2,7.42,14.92,8.1,14.92,8.1s6-6.68,8.26-9.14c.25-.27-.16-.52-.7-.68C120,87.26,110.23,78.31,110.23,78.31Z"/><path class="l" d="M199.8,274.05s-4.07,9.19-11.49,14.71l-7.41,5.52s15.47-7.94,20-15-1.15-5.21-1.15-5.21"/><path class="m" d="M141.32,142.3a3.85,3.85,0,1,0,3.85,3.85,3.85,3.85,0,0,0-3.85-3.85"/><path class="m" d="M158.35,143.28a3.86,3.86,0,1,0,3.86,3.85,3.86,3.86,0,0,0-3.86-3.85"/><path class="m" d="M149.49,149.9a3.85,3.85,0,1,0,3.85,3.85,3.85,3.85,0,0,0-3.85-3.85"/><path class="m" d="M164.27,164.68a3.85,3.85,0,1,0,3.85,3.85,3.85,3.85,0,0,0-3.85-3.85"/><path class="n" d="M177.78,167.07a3.86,3.86,0,1,0,3.85,3.86,3.86,3.86,0,0,0-3.85-3.86"/><path class="n" d="M186.79,181a3.85,3.85,0,1,0,3.85,3.85,3.85,3.85,0,0,0-3.85-3.85"/><path class="o" d="M201.57,198.05a3.85,3.85,0,1,0,3.86,3.85,3.85,3.85,0,0,0-3.86-3.85"/><path class="o" d="M217.11,212A3.85,3.85,0,1,0,221,215.8a3.85,3.85,0,0,0-3.85-3.85"/><path class="o" d="M226.86,217.46a3.86,3.86,0,1,0,3.85,3.85,3.85,3.85,0,0,0-3.85-3.85"/><path class="o" d="M234.42,240.91a3.85,3.85,0,1,0,3.85,3.85,3.85,3.85,0,0,0-3.85-3.85"/><path class="m" d="M138.35,166.92l-6.93,13.91L142,171.22a4,4,0,0,0,.21-1.2c0-2.82-3.86-3.1-3.86-3.1"/><path class="m" d="M151.06,179.26l-6.36,14.18,10.19-10a4.36,4.36,0,0,0,.15-1.07c0-2.95-4-3.09-4-3.09"/><path class="n" d="M169.15,196a6.45,6.45,0,0,0-2.45.61l.63,10.36,4-9.34a2,2,0,0,0-2.15-1.63"/><path class="o" d="M178.68,207.33h0l-7.85,19.3,12-13.92a6.91,6.91,0,0,0,.23-1.62c0-3.75-4.29-3.76-4.35-3.76"/><path class="o" d="M197.61,225.4l-7.33,13.83,9.88-9.52a4.56,4.56,0,0,0,.33-1.59c0-2.45-2.88-2.72-2.88-2.72"/><path class="o" d="M209,238.11a4.31,4.31,0,0,0-.9.09l-2.44,15.46,6.26-12.21v-.2c0-2.72-1.8-3.14-2.92-3.14"/><path class="o" d="M219.09,252.15a4.26,4.26,0,0,0-1.72.4l1.11,15.61,3.34-13.3c-.44-2.2-1.67-2.71-2.73-2.71"/><path class="n" d="M149.43,203.4a5.2,5.2,0,0,0-2.62,1.08,23.52,23.52,0,0,1,.11,2.47,28.77,28.77,0,0,1-3.87,14.8l-4.88,7.88s12.39-13.51,13.14-21.4c.05-.51.08-1,.08-1.38,0-2.71-.93-3.45-2-3.45"/><path class="o" d="M155.11,216.64a4.23,4.23,0,0,0-1.93.68s-.45,8.61-5.33,15.14L143,239s11.48-10.71,13.17-17.74a11.29,11.29,0,0,0,.37-2.57c0-1.6-.67-2-1.4-2"/><path class="n" d="M139.65,200.57a5.57,5.57,0,0,0-2.47.81v.06c0,.82-.14,9.74-5.56,16.72l-5.68,7.32s13.75-12.13,15.32-19.89a11.61,11.61,0,0,0,.28-2.37c0-2.08-.91-2.65-1.89-2.65"/><path class="m" d="M125,200.54a4.85,4.85,0,0,0-2.14.7v0c0,.71-.12,8.43-4.8,14.47l-4.9,6.34s11.86-10.5,13.23-17.22a11,11,0,0,0,.24-2c0-1.8-.78-2.29-1.63-2.29"/><path class="o" d="M164.5,221.14a4.17,4.17,0,0,0-1.93.68s-.45,8.61-5.34,15.15l-4.88,6.53s11.48-10.72,13.17-17.74a11.37,11.37,0,0,0,.37-2.58c0-1.59-.66-2-1.39-2"/><path class="o" d="M192.19,262.83a5.14,5.14,0,0,0-1.39.22s-4.07,9.19-11.49,14.71l-7.41,5.52s15.46-7.94,20-15c1.31-2,1.78-3.32,1.78-4.13,0-1.05-.79-1.3-1.54-1.3"/><path class="o" d="M203.19,262.83a5.14,5.14,0,0,0-1.39.22s-4.07,9.19-11.49,14.71l-7.41,5.52s15.46-7.94,20-15c1.31-2,1.78-3.32,1.78-4.13,0-1.05-.79-1.3-1.54-1.3"/><path class="a" d="M209.7,279.28a5,5,0,0,0-1.57.31S204.64,289,197.58,295l-7.05,6s14.94-8.88,19.07-16.23l.12-.22a13.36,13.36,0,0,0,1.25-2.86,4.11,4.11,0,0,0,.15-1,1.24,1.24,0,0,0-1.42-1.37"/><path class="a" d="M215.38,288a3.78,3.78,0,0,0-1.81.81s-2.29,11.07-8.06,19.29l-5.77,8.22S212.29,303,215.33,294a15.44,15.44,0,0,0,1-4.5c0-1.13-.44-1.48-1-1.48"/><polyline class="m" points="142.87 81.81 141.18 101.52 145.68 101.24 142.87 81.81"/><polyline class="m" points="170.56 87.67 156.94 103.21 160.6 106.59 170.56 87.67"/><polyline class="m" points="188.48 97.3 172.15 116.72 177.22 118.7 188.48 97.3"/><polyline class="n" points="209.6 109.69 191.29 129.68 194.96 132.49 209.6 109.69"/><polyline class="n" points="228.18 129.11 209.03 144.04 211.57 147.98 228.18 129.11"/><polyline class="o" points="247.04 149.39 227.34 162.9 230.43 166.56 247.04 149.39"/><polyline class="o" points="258.02 160.65 238.6 177.82 243.1 181.48 258.02 160.65"/><path class="o" d="M277.73,177.26l-2.38,2a25.16,25.16,0,0,0,2.38-2"/><path class="o" d="M275.35,179.26a75.9,75.9,0,0,1-6.63,4.48,23.46,23.46,0,0,1-4.11,1.92c-3.1,3-6,5.68-6,5.68l-3.94-1.13,4-2.91a54.26,54.26,0,0,1-7.05.94l5.35,6.48,18.45-15.46"/><path class="o" d="M285.62,190.21l-2.4,2a26.84,26.84,0,0,0,2.4-2"/><path class="o" d="M283.22,192.22a76.16,76.16,0,0,1-6.61,4.47,30.27,30.27,0,0,1-8.68,3.25c-1.67,1.57-2.87,2.66-2.87,2.66l-3.94-1.12.67-.5c-1.45.17-2.36.21-2.36.21l5.35,6.48,18.44-15.45"/><path class="a" d="M290.19,203.17l-2.14,2.25a25.27,25.27,0,0,0,2.14-2.25"/><path class="a" d="M288.05,205.42a76,76,0,0,1-6.09,5.19,61.37,61.37,0,0,1-13.24,7.48l2.71,4.75,16.62-17.42"/><path class="a" d="M304.07,225.29l-2.62,1.7a27.7,27.7,0,0,0,2.62-1.7"/><path class="a" d="M301.45,227a75.69,75.69,0,0,1-7.11,3.63,61.58,61.58,0,0,1-14.61,4.21l1.53,5.25L301.45,227"/><path class="b" d="M317.43,235l-2.88,2.52a32.4,32.4,0,0,0,2.88-2.52"/><path class="o" d="M271.82,177.54,258.6,187.3l-4,2.91,3.94,1.13s2.92-2.66,6-5.68c3.35-3.26,6.92-6.95,7.21-8.12"/><path class="o" d="M278.3,188.81,261.79,201l-.67.5,3.94,1.12s1.2-1.09,2.87-2.66c3.77-3.55,10-9.57,10.37-11.13"/><path class="a" d="M285.33,199.5l-17.17,12.68,3.94,1.12s12.67-11.54,13.23-13.8"/><path class="a" d="M294.91,220.34,277.73,233l3.95,1.13s12.67-11.55,13.23-13.8"/><polyline class="m" points="145.68 113.63 143.15 131.93 147.93 133.06 145.68 113.63"/><polyline class="m" points="163.7 117.85 161.17 136.15 165.96 137.28 163.7 117.85"/><polyline class="m" points="187 133.62 172.97 145.65 175.81 149.66 187 133.62"/><polyline class="n" points="196.1 147.22 185.25 162.17 188.95 165.42 196.1 147.22"/><polyline class="n" points="205.03 160.39 195.87 173.03 198.99 175.77 205.03 160.39"/><polyline class="o" points="218.99 174.58 210.88 185.22 214.07 187.85 218.99 174.58"/><polyline class="o" points="231.87 194.06 224.48 203.36 227.71 205.9 231.87 194.06"/><polyline class="o" points="251.25 213.08 240.56 218.25 242.37 221.94 251.25 213.08"/><polyline class="a" points="269.76 233.93 258.46 237.6 259.75 241.5 269.76 233.93"/><path class="p" d="M309.4,324.66a2.08,2.08,0,0,0-2.21,1.76L324.25,342l-11.07-16a8,8,0,0,0-3.78-1.31"/><path class="q" d="M343.4,344.66a2.09,2.09,0,0,0-2.21,1.77L358.25,362l-11.07-16a8,8,0,0,0-3.78-1.31"/><path class="p" d="M281,346c-.88,0-1.78,1.25-1.78,1.25a41.88,41.88,0,0,1,.62,7.35,33.4,33.4,0,0,1-1.33,9.66l-2.48,8s6.67-13.38,6.68-21.17c0-.19,0-.37,0-.55-.16-3.59-.92-4.55-1.7-4.55"/><path class="q" d="M315.91,348.54c-1,0-1.63,1.66-1.63,1.66s2.13,8.41,3.35,16.7c1.11,7.64,2.48,8.37,2.48,8.37s-.62-19.12-1.67-22.69c-.93-3.13-1.82-4-2.53-4"/><path class="p" d="M339.68,247.93a106.61,106.61,0,0,1-9.86,13.52c-5,6-8.07,6.7-9.28,6.7a1.74,1.74,0,0,1-.59-.08l4.4,7.25,15.33-27.39"/><path class="q" d="M352.91,253.85a107.46,107.46,0,0,1-9.85,13.51c-5,6-8.08,6.7-9.29,6.7a1.74,1.74,0,0,1-.59-.08l4.4,7.25,15.33-27.38"/><path class="q" d="M372.77,268.36a106,106,0,0,1-14,9.14c-4.65,2.62-7.59,3.25-9.34,3.25a3.44,3.44,0,0,1-2.24-.55l1.55,8.34,24-20.18"/><path class="q" d="M381.5,278.5a106,106,0,0,1-14,9.14c-4.65,2.62-7.59,3.25-9.34,3.25a3.44,3.44,0,0,1-2.24-.55l1.55,8.33,24-20.17"/><path class="p" d="M327.63,242.57l-.85,2.85-.18.58-6.19,20.72,3.9-1.26s3.43-17.3,3.42-21.94a3.08,3.08,0,0,0-.1-1"/><path class="q" d="M340.58,248.77l-7.22,24.14,3.9-1.26s3.43-17.29,3.42-21.93a3.08,3.08,0,0,0-.1-.95"/><path class="q" d="M358.85,262.88l-19.48,16,3.94,1.13s15-14.88,15.54-17.13"/><polyline class="q" points="326.13 302.19 325.87 306.29 338.03 302.99 326.13 302.19"/><polyline class="q" points="337.58 288.28 336.93 294.07 358.81 288.9 337.58 288.28"/><polyline class="q" points="337.84 316.47 335.06 321.59 357.27 325.04 337.84 316.47"/><polyline class="q" points="359.82 329.74 356.36 331.53 379.28 347.42 359.82 329.74"/><path class="r" d="M233.27,323.37s-1.72,9-7,15.52L221,345.4S232.7,335,235.26,327.72s-2-4.35-2-4.35"/><path class="r" d="M245.66,329.75s-1.72,9-7,15.52l-5.29,6.51s11.73-10.41,14.29-17.67-2-4.36-2-4.36"/><path class="r" d="M256.17,339.51s-1.72,9-7,15.53l-5.29,6.5s11.73-10.41,14.29-17.67-2-4.36-2-4.36"/><path class="r" d="M266.73,343.53s-.53,9.16-4.94,16.3L257.38,367s10.29-11.84,11.89-19.37-2.54-4.06-2.54-4.06"/><path class="b" d="M250.48,271.55a3.85,3.85,0,1,0,3.85,3.85,3.85,3.85,0,0,0-3.85-3.85"/><path class="b" d="M266.44,285.22a3.85,3.85,0,1,0,3.85,3.85,3.85,3.85,0,0,0-3.85-3.85"/><path class="b" d="M264.52,303.15a3.85,3.85,0,1,0,3.85,3.85,3.85,3.85,0,0,0-3.85-3.85"/><path class="b" d="M284.06,298.83a3.85,3.85,0,1,0,3.86,3.85,3.86,3.86,0,0,0-3.86-3.85"/><path class="b" d="M236.88,290.19a3.63,3.63,0,0,0-1.62.41l2,19.75L240,293.76c-.61-2.92-2-3.57-3.16-3.57"/><path class="b" d="M270,318.25a3.49,3.49,0,0,0-2.19.92l3.36,19.57,2.1-17.79c-1.08-2.11-2.28-2.7-3.27-2.7"/><path class="b" d="M287.82,322.18a3.27,3.27,0,0,0-2.76,1.76l13,23.45-5.76-22.62c-1.9-2-3.39-2.59-4.52-2.59"/><path class="b" d="M226.31,307a3.83,3.83,0,0,0-1.68.57s-1.71,9-7,15.52l-5.29,6.51s11.72-10.41,14.29-17.67a11.37,11.37,0,0,0,.78-3.47c0-1.14-.52-1.46-1.1-1.46"/><path class="b" d="M314.55,237.5a90.53,90.53,0,0,1-8,5.6,67.73,67.73,0,0,1-16.68,7.23l2.3,6.67,22.37-19.5"/><path class="b" d="M319.92,255.34c-.39.48-.8,1-1.23,1.49A33.12,33.12,0,0,1,302.49,267l4.4,7.24,13-18.85"/><path class="b" d="M308.71,230.76l-19.43,16.05,3.94,1.12s14.92-14.92,15.49-17.17"/><path class="b" d="M316.9,242.13l-13.1,21.53,4.1-.23s9-18.55,9-21.22v-.08"/><polyline class="b" points="305.51 293.24 298.47 294.62 300.02 298.38 305.51 293.24"/><polyline class="b" points="280.38 274.77 279.47 280.2 292.87 277.98 280.38 274.77"/><path class="b" d="M255.11,328.47a4.11,4.11,0,0,0-2,.79s-.93,10-6.2,17.6l-5.26,7.6S253.8,342,255.89,333.83a14.12,14.12,0,0,0,.52-3.34c0-1.57-.61-2-1.3-2"/></svg>