<svg xmlns="http://www.w3.org/2000/svg" viewBox="0 0 420 420"><defs><style>.a{fill:#0080ff;}.b{fill:#ff7f00;}.c{fill:#00dbff;}</style></defs><path d="M46.58,97.41a8,8,0,0,1-4.91-14.32c26.17-20.29,50-9.23,58.91-.53a8,8,0,0,1-11.11,11.5c-1.7-1.58-16.86-14.71-38,1.68A7.93,7.93,0,0,1,46.58,97.41Z"/><path class="a" d="M208.13,270.59S204.64,280,197.58,286l-7.05,6s14.94-8.88,19.07-16.23S208.13,270.59,208.13,270.59Z"/><path class="a" d="M210.06,282.17s-.93,10-6.19,17.61l-5.27,7.59s12.13-12.45,14.21-20.63S210.06,282.17,210.06,282.17Z"/><path class="a" d="M241.12,320.62s-.92,10-6.19,17.61l-5.27,7.59s12.13-12.45,14.22-20.62S241.12,320.62,241.12,320.62Z"/><path class="a" d="M253.14,329.26s-.93,10-6.2,17.6l-5.26,7.6S253.8,342,255.89,333.83,253.14,329.26,253.14,329.26Z"/><path class="a" d="M266.29,330.39s.26,10.05-4.07,18.21l-4.33,8.17s10.57-13.8,11.68-22.16S266.29,330.39,266.29,330.39Z"/><path class="b" d="M208.4,312.24A53.76,53.76,0,0,1,186,322.83a53.89,53.89,0,0,0,44.49,8.61,53.32,53.32,0,0,1-12.89-8.32A50.47,50.47,0,0,1,208.4,312.24Z"/><path class="a" d="M271.52,279.07c0-29.8-42.8-27-42.8-9a53.84,53.84,0,0,1-20.32,42.18,50.47,50.47,0,0,0,9.23,10.88,53.32,53.32,0,0,0,12.89,8.32A54,54,0,0,0,271.52,279.07Z"/><path class="b" d="M194.89,174.72a107.32,107.32,0,0,1-55,93.74,108.5,108.5,0,0,0,16.33,1.24A107.22,107.22,0,0,0,243.44,225C256.12,207.34,194.89,121,194.89,174.72Z"/><path class="a" d="M195.24,176.62a140.2,140.2,0,0,1-35.55,69,24,24,0,0,0,4.57,16.08c2.82,4,8.14,6.73,13.83,8.56a140.57,140.57,0,0,0,83.32-55.14C278,192.08,197,167.81,195.24,176.62Z"/><path class="b" d="M109.85,172.22a79.89,79.89,0,0,1-1.42,66.29,79.66,79.66,0,0,0,52.2-74.78C160.63,119.75,97.62,144,109.85,172.22Z"/><path class="a" d="M105.35,167.11a93.88,93.88,0,0,1,7.71,37.38c0,.72,0,1.43,0,2.14,4.68,3.29,10.5,6.32,16.88,7.23a70.09,70.09,0,0,0,16.14.42,93.74,93.74,0,0,0,19.37-57.21C165.42,105.06,90.89,133.7,105.35,167.11Z"/><path class="c" d="M317,359.28c-32.3,0-61.44-12.71-86.64-37.79-18.13-18-32.11-40.14-45.64-61.51-32-50.51-49.66-72.64-85.06-72.64a50,50,0,0,1,0-100c42.29,0,79.81,18.75,111.52,47.85,24.76,22.71,42.44,46.66,58.05,71.31C290,239.34,300.61,259.28,314,259.28c27.61,0,53,22.39,53,50A50,50,0,0,1,317,359.28Z"/><path class="b" d="M139.49,139.64a64.61,64.61,0,0,0-25.63-51.58,141.26,141.26,0,0,0-14.18-.72,50,50,0,0,0,0,100,67.12,67.12,0,0,1,16.6,1.95A64.61,64.61,0,0,0,139.49,139.64Z"/><path class="a" d="M211.2,135.19a213,213,0,0,0-27.76-21.68,64.73,64.73,0,0,1-51.11,82.62,86.33,86.33,0,0,1,18.49,16.05,107.56,107.56,0,0,0,69.12-68.64C217.12,140.74,214.22,138,211.2,135.19Z"/><path class="a" d="M304.24,255.62a90.86,90.86,0,0,1-30.84,95.16,111.89,111.89,0,0,0,18.3,5.75,91,91,0,0,0,34.4-95.81A52.46,52.46,0,0,0,314,259.28,16.19,16.19,0,0,1,304.24,255.62Z"/><path class="a" d="M286.91,234.48c-5.09-7.76-10.82-17.17-17.66-28-1.23-1.93-2.46-3.85-3.71-5.77-5.58,34.07-33.79,62.18-71.66,73.56,3.69,5.69,7.46,11.35,11.4,16.9C242.77,285,273.42,263.23,286.91,234.48Z"/><circle cx="102.1" cy="128.74" r="13.23"/><path d="M116.41,91.22A8,8,0,0,1,111.5,76.9c26.17-20.3,50-9.23,58.91-.54a8,8,0,0,1-11.12,11.51c-1.69-1.59-16.85-14.72-38,1.67A8,8,0,0,1,116.41,91.22Z"/><path class="b" d="M110.23,78.31s0-.77-.68-.25c-2,1.63-7.87,6-9.39,11.64-2,7.42,14.92,8.1,14.92,8.1s6-6.68,8.26-9.14c.25-.27-.16-.52-.7-.68C120,87.26,110.23,78.31,110.23,78.31Z"/><circle class="a" cx="141.32" cy="146.15" r="3.85"/><circle class="a" cx="158.35" cy="147.13" r="3.85"/><circle class="a" cx="149.49" cy="153.75" r="3.85"/><circle class="a" cx="164.27" cy="168.53" r="3.85"/><circle class="a" cx="177.78" cy="170.93" r="3.85"/><circle class="a" cx="186.79" cy="184.86" r="3.85"/><circle class="a" cx="201.57" cy="201.9" r="3.85"/><circle class="a" cx="217.11" cy="215.8" r="3.85"/><circle class="a" cx="226.86" cy="221.31" r="3.85"/><circle class="a" cx="234.42" cy="244.76" r="3.85"/><circle class="a" cx="250.48" cy="275.4" r="3.85"/><circle class="a" cx="266.44" cy="289.07" r="3.85"/><circle class="a" cx="264.52" cy="307" r="3.85"/><circle class="a" cx="284.06" cy="302.68" r="3.85"/><path class="a" d="M138.34,166.92s4.91.36,3.66,4.3l-10.58,9.61Z"/><path class="a" d="M151.06,179.26s4.91.17,3.83,4.16l-10.19,10Z"/><path class="a" d="M166.7,196.62s3.88-1.9,4.6,1l-4,9.35Z"/><path class="a" d="M178.68,207.33s5.53,0,4.12,5.38l-12,13.92Z"/><path class="a" d="M197.61,225.4s4,.39,2.55,4.31l-9.88,9.52Z"/><path class="a" d="M208.08,238.2s3.94-.94,3.82,3.25l-6.25,12.21Z"/><path class="a" d="M217.37,252.55s3.63-1.81,4.45,2.31l-3.34,13.3Z"/><path class="a" d="M235.26,290.6s3.69-2.07,4.78,3.16l-2.76,16.59Z"/><path class="a" d="M243.26,315.6s3.69-2.07,4.78,3.16l-6.76,16.59Z"/><path class="a" d="M267.8,319.18s3-3,5.45,1.77l-2.1,17.79Z"/><path class="a" d="M285.06,323.94s2.18-4.46,7.28.83l5.76,22.62Z"/><path class="a" d="M307.19,326.42s.44-3.65,6-.45l11.07,16Z"/><path class="a" d="M341.19,346.43s.44-3.66,6-.46l11.07,16Z"/><path class="c" d="M146.81,204.48s1.12,9.38-3.76,17.27l-4.88,7.88s12.39-13.51,13.14-21.4S146.81,204.48,146.81,204.48Z"/><path class="c" d="M153.18,217.32s-.45,8.61-5.33,15.14L143,239s11.49-10.71,13.18-17.74S153.18,217.32,153.18,217.32Z"/><path class="c" d="M137.18,201.38s.13,9.45-5.56,16.78l-5.68,7.32s13.74-12.13,15.32-19.89S137.18,201.38,137.18,201.38Z"/><path class="c" d="M122.88,201.24s.11,8.18-4.8,14.52l-4.9,6.34s11.86-10.5,13.23-17.22S122.88,201.24,122.88,201.24Z"/><path class="c" d="M162.56,221.82s-.44,8.61-5.33,15.15l-4.88,6.53s11.48-10.72,13.17-17.74S162.56,221.82,162.56,221.82Z"/><path class="c" d="M190.8,263.05s-4.07,9.19-11.49,14.71l-7.41,5.51s15.47-7.93,20-15S190.8,263.05,190.8,263.05Z"/><path class="c" d="M201.8,263.05s-4.07,9.19-11.49,14.71l-7.41,5.51s15.47-7.93,20-15S201.8,263.05,201.8,263.05Z"/><path class="c" d="M199.8,274.05s-4.07,9.19-11.49,14.71l-7.41,5.52s15.47-7.94,20-15S199.8,274.05,199.8,274.05Z"/><path class="c" d="M208.13,279.59S204.64,289,197.58,295l-7.05,6s14.94-8.88,19.07-16.23S208.13,279.59,208.13,279.59Z"/><path class="c" d="M213.57,288.84s-2.29,11.06-8.06,19.29l-5.77,8.22S212.29,303,215.33,294,213.57,288.84,213.57,288.84Z"/><path class="c" d="M224.63,307.6s-1.71,9-7,15.52l-5.29,6.51s11.73-10.41,14.29-17.67S224.63,307.6,224.63,307.6Z"/><path class="c" d="M233.27,323.37s-1.72,9-7,15.52L221,345.4S232.7,335,235.26,327.72,233.27,323.37,233.27,323.37Z"/><path class="c" d="M245.65,329.75s-1.71,9-7,15.52l-5.29,6.51s11.73-10.41,14.29-17.67S245.65,329.75,245.65,329.75Z"/><path class="c" d="M256.17,339.51s-1.72,9-7,15.52l-5.29,6.51s11.73-10.41,14.29-17.67S256.17,339.51,256.17,339.51Z"/><path class="c" d="M266.73,343.53s-.53,9.16-4.94,16.3L257.38,367s10.29-11.84,11.89-19.37S266.73,343.53,266.73,343.53Z"/><path class="c" d="M279.17,347.26s1.78,9-.71,17l-2.48,8s7-14,6.67-21.72S279.17,347.26,279.17,347.26Z"/><path class="c" d="M314.28,350.2s2.13,8.41,3.35,16.7c1.11,7.64,2.48,8.37,2.48,8.37s-.62-19.12-1.67-22.69C316.26,345.19,314.28,350.2,314.28,350.2Z"/><polygon class="c" points="141.18 101.52 142.87 81.81 145.68 101.24 141.18 101.52"/><polygon class="c" points="156.94 103.21 170.56 87.67 160.6 106.59 156.94 103.21"/><polygon class="c" points="172.15 116.73 188.48 97.3 177.22 118.7 172.15 116.73"/><polygon class="c" points="191.29 129.68 209.6 109.69 194.96 132.49 191.29 129.68"/><polygon class="c" points="209.03 144.04 228.18 129.12 211.57 147.98 209.03 144.04"/><polygon class="c" points="227.33 162.9 247.04 149.39 230.43 166.56 227.33 162.9"/><polygon class="c" points="238.6 177.82 258.02 160.65 243.1 181.49 238.6 177.82"/><path class="c" d="M251.55,188.24s10.7-.56,17.17-4.5,9-6.48,9-6.48L256.9,194.72Z"/><path class="c" d="M259.43,201.19s10.7-.56,17.18-4.5a52.62,52.62,0,0,0,9-6.48l-20.84,17.46Z"/><path class="c" d="M268.72,218.09A61.12,61.12,0,0,0,282,210.61c6-4.64,8.23-7.44,8.23-7.44l-18.76,19.67Z"/><path class="c" d="M279.73,234.83a61.58,61.58,0,0,0,14.61-4.21,52.91,52.91,0,0,0,9.73-5.33l-22.81,14.79Z"/><path class="c" d="M289.88,250.33a67.73,67.73,0,0,0,16.68-7.23c7.78-4.9,10.87-8.12,10.87-8.12l-25.25,22Z"/><path class="c" d="M302.49,267a33.12,33.12,0,0,0,16.2-10.12c6.63-7.91,8.88-12.56,8.88-12.56l-20.68,29.92Z"/><path class="c" d="M320,268.07s3.24,1.29,9.87-6.62a106.61,106.61,0,0,0,9.86-13.52l-15.33,27.39Z"/><path class="c" d="M333.18,274s3.25,1.29,9.88-6.63a107.46,107.46,0,0,0,9.85-13.51l-15.33,27.38Z"/><path class="c" d="M347.18,280.2s2.58,2.36,11.58-2.69a106.53,106.53,0,0,0,14-9.15l-24,20.18Z"/><path class="c" d="M355.91,290.34s2.58,2.36,11.58-2.7a106,106,0,0,0,14-9.14l-24,20.17Z"/><path class="c" d="M258.59,191.34s12.67-11.54,13.23-13.8l-17.17,12.67Z"/><path class="c" d="M265.06,202.6s12.67-11.54,13.24-13.79l-17.18,12.67Z"/><path class="c" d="M272.1,213.3s12.67-11.54,13.24-13.8l-17.18,12.67Z"/><path class="c" d="M281.68,234.14s12.67-11.55,13.23-13.8L277.73,233Z"/><path class="c" d="M293.22,247.93S308.14,233,308.7,230.76l-19.42,16.05Z"/><path class="c" d="M307.9,263.43s9.2-19,9-21.3l-13.1,21.53Z"/><path class="c" d="M324.31,265.46s4.1-20.7,3.32-22.89l-7.22,24.15Z"/><path class="c" d="M337.26,271.65s4.1-20.7,3.32-22.88l-7.22,24.14Z"/><path class="c" d="M343.31,280s15-14.88,15.54-17.13l-19.48,16Z"/><polygon class="a" points="143.15 131.93 145.68 113.63 147.93 133.06 143.15 131.93"/><polygon class="a" points="161.17 136.15 163.7 117.85 165.95 137.28 161.17 136.15"/><polygon class="a" points="172.97 145.65 187 133.62 175.81 149.66 172.97 145.65"/><polygon class="a" points="185.25 162.17 196.1 147.22 188.94 165.42 185.25 162.17"/><polygon class="a" points="195.87 173.03 205.03 160.39 198.99 175.77 195.87 173.03"/><polygon class="a" points="210.88 185.23 218.99 174.58 214.07 187.85 210.88 185.23"/><polygon class="a" points="224.48 203.36 231.87 194.06 227.71 205.9 224.48 203.36"/><polygon class="a" points="240.56 218.26 251.25 213.08 242.37 221.94 240.56 218.26"/><polygon class="a" points="258.46 237.6 269.76 233.93 259.75 241.5 258.46 237.6"/><polygon class="a" points="298.47 294.62 305.51 293.24 300.02 298.38 298.47 294.62"/><polygon class="a" points="280.38 274.77 292.87 277.98 279.47 280.2 280.38 274.77"/><polygon class="a" points="326.13 302.19 338.03 302.99 325.87 306.29 326.13 302.19"/><polygon class="a" points="337.57 288.28 358.81 288.9 336.93 294.07 337.57 288.28"/><polygon class="a" points="337.84 316.47 357.27 325.04 335.06 321.59 337.84 316.47"/><polygon class="a" points="359.82 329.74 379.28 347.42 356.36 331.53 359.82 329.74"/></svg>