<svg xmlns="http://www.w3.org/2000/svg" viewBox="0 0 420 420"><defs><style>.a{fill:#70ee86;}.b{fill:#b5bfc3;}.c{fill:#cbd5d8;}.d{fill:#7e7e7f;}.d,.e,.f,.l{opacity:0.2;}.e{fill:#7c7c7c;}.g{fill:#424447;opacity:0.44;}.h{fill:#6c7071;}.i{fill:#0c0d11;}.j{fill:#00bfb5;}.k,.l{fill:#fff;}.k{opacity:0.4;}.m{fill:#00c165;}.n{fill:#002d08;}</style></defs><path class="a" d="M333.7,365.49s28.15-7.32,34.69-36.41c3.19-14.19,8.08-46.47,4-83.85s5-71.48-3.08-84.86-17.12-17.17-17.12-17.17,2.7,17.88.5,28.79S338.08,192.2,325,188.66s-15.66-31.32-7.58-43.44S330.51,126,330.51,126s-9.6-.51-22.73,13.13S275.45,194.22,282,206.34,333.7,365.49,333.7,365.49Z"/><path class="a" d="M99.75,165.09S85.91,156.26,88.05,140s5.72-23.5,8-26.25L98.43,111S73.86,116.92,66,135.3s-14.12,27.9-18.9,58.19,2.41,55.27.24,72.68S46.11,333.69,52,341.22c13.61,17.28,59.84,36,59.84,36Z"/><path class="a" d="M61.24,367.51s-14-7.4-15.73-20.31,6-24,4.66-33.38a92.22,92.22,0,0,0-3-14.43s7.38,4.7,11.07,9.73,7.38,16.78,7,24.83c-.23,5.52-1.41,11-1,15.9.17,2.24,6.29-1.05,7.34.85,3.36,6,10.46,25.51,10.46,25.51Z"/><path class="b" d="M58,294.05c0-34.95,68.27-63.28,152.49-63.28S363,259.1,363,294.05l0-.13v43.3h0c0,34.95-68.27,63.28-152.48,63.28S58,372.17,58,337.22V294.05Z"/><path class="c" d="M210.49,355.69c-83,0-150.49-27.16-152.44-61,0,.5,0,1,0,1.5,0,34.49,68.27,62.46,152.49,62.46S363,330.72,363,296.23c0-.5,0-1,0-1.5C361,328.53,293.48,355.69,210.49,355.69Z"/><path class="d" d="M210.49,232.73c83,0,150.49,28.15,152.44,62,0-.5,0-1,0-1.5,0-34.5-68.27-62.46-152.48-62.46S58,258.69,58,293.19c0,.5,0,1,0,1.5C60,260.88,127.5,232.73,210.49,232.73Z"/><path class="e" d="M210.49,398.5C126.27,398.5,58,370.17,58,335.22v3c0,34.95,68.27,63.28,152.49,63.28S363,373.17,363,338.22h0v-2l0-1C363,370.17,294.7,398.5,210.49,398.5Z"/><ellipse class="f" cx="210" cy="289.85" rx="152.48" ry="62.97"/><path class="b" d="M58,243.23C58,208.28,126.27,180,210.49,180S363,208.28,363,243.23l0-.13v43.3h0c0,35-68.27,63.28-152.48,63.28S58,321.35,58,286.4V243.23Z"/><path class="g" d="M65.6,275.35c.65-.06,1.4,0,2.27,0,3.38,0,6.13,5.31,6.13,11.84S71.25,299,67.87,299a20.91,20.91,0,0,1-2.13,0Z"/><ellipse class="h" cx="65.66" cy="287.18" rx="6.13" ry="11.84"/><ellipse class="i" cx="65.62" cy="287.18" rx="5.4" ry="10.44"/><path class="j" d="M71,287.25c0,6.67-2.76,10-4.33,10-5.12,0-9.27-4.47-9.27-10s4.15-10,9.27-10C68.24,277.27,71,280.58,71,287.25Z"/><path class="k" d="M66.05,287.25c0,3.62-.73,6.55-2.61,6.55-3.08,0-5.27-3.44-5.27-6.55s2.19-6.55,5.27-6.55C65.1,280.7,66.05,283.4,66.05,287.25Z"/><path class="l" d="M65.75,275.34h0c3.36,0,6.08,5.32,6.08,11.83S69.07,299,65.71,299h0c3.39,0,6.3-5.3,6.3-11.84S69.14,275.34,65.75,275.34Z"/><path class="c" d="M210.49,304.86c-83,0-150.49-27.15-152.44-61,0,.49,0,1,0,1.5,0,34.49,68.27,62.45,152.49,62.45S363,279.9,363,245.41c0-.51,0-1,0-1.5C361,277.71,293.48,304.86,210.49,304.86Z"/><path class="d" d="M210.49,181.9c83,0,150.49,28.16,152.44,62,0-.49,0-1,0-1.5,0-34.49-68.27-62.46-152.48-62.46S58,207.87,58,242.36c0,.51,0,1,0,1.5C60,210.06,127.5,181.9,210.49,181.9Z"/><path class="e" d="M210.49,347.68C126.27,347.68,58,319.35,58,284.4v3c0,35,68.27,63.28,152.49,63.28S363,322.35,363,287.4h0v-2l0-1C363,319.35,294.7,347.68,210.49,347.68Z"/><ellipse class="f" cx="210" cy="239.03" rx="152.48" ry="62.97"/><path class="b" d="M58,192.56c0-34.95,68.27-63.28,152.49-63.28S363,157.61,363,192.56l0-.13v43.3h0c0,35-68.27,63.28-152.48,63.28S58,270.68,58,235.73V192.56Z"/><path class="g" d="M65.6,224.69c.65-.07,1.4,0,2.27,0,3.38,0,6.13,5.3,6.13,11.84s-2.75,11.84-6.13,11.84a18.15,18.15,0,0,1-2.13,0Z"/><ellipse class="h" cx="65.66" cy="236.52" rx="6.13" ry="11.84"/><ellipse class="i" cx="65.62" cy="236.52" rx="5.4" ry="10.44"/><path class="j" d="M71,236.58c0,6.67-2.76,10-4.33,10-5.12,0-9.27-4.47-9.27-10s4.15-10,9.27-10C68.24,226.61,71,229.92,71,236.58Z"/><path class="k" d="M66.05,236.58c0,3.62-.73,6.55-2.61,6.55-3.08,0-5.27-3.43-5.27-6.55S60.36,230,63.44,230C65.1,230,66.05,232.74,66.05,236.58Z"/><path class="l" d="M65.75,224.68h0c3.36,0,6.08,5.33,6.08,11.84s-2.72,11.79-6.08,11.84h0c3.39,0,6.3-5.3,6.3-11.84S69.14,224.68,65.75,224.68Z"/><path class="c" d="M210.49,254.2c-83,0-150.49-27.16-152.44-61,0,.5,0,1,0,1.5,0,34.49,68.27,62.46,152.49,62.46S363,229.23,363,194.74c0-.5,0-1,0-1.5C361,227,293.48,254.2,210.49,254.2Z"/><path class="d" d="M210.49,131.24c83,0,150.49,28.16,152.44,62,0-.5,0-1,0-1.5,0-34.5-68.27-62.46-152.48-62.46S58,157.2,58,191.7c0,.5,0,1,0,1.5C60,159.4,127.5,131.24,210.49,131.24Z"/><path class="e" d="M210.49,297C126.27,297,58,268.68,58,233.73v3c0,35,68.27,63.28,152.49,63.28S363,271.68,363,236.73h0v-2l0-1C363,268.68,294.7,297,210.49,297Z"/><path class="a" d="M149.84,59.59c-.28,10.41-9.58,12.23-13.24,19.55-3.07,6.15-2,18.86-2,18.86S146,88.13,149,80.27C152.37,71.54,149.84,59.59,149.84,59.59Z"/><path class="a" d="M278,195.61s23.08-21.3,22.52-44.11c-.93-37.56-14.64-48.71-14.64-48.71s2.63,13.14-3,15.77-9,1.88-9,1.88-12.11-2.07-6.85-22.72S265.18,66,265.18,66,255,44.51,230.93,26.49,203.61,7.34,203.61,7.34s5.64,17.83,3.76,29.85S201.74,58.87,196.86,60s-10.51-.65-10.51-.65-9.39,18-11.64,27-3.76,12-5.26,21.77,1.79,20.55-7.22,23.37c-5.49,1.71-13.43,1.69-16-7.32s-2.82-21.12-2.82-21.12S130,117.53,125.53,134,121,159.48,130,175.25s15.77,23.27,15.77,23.27,4.88,4.13.38,5.63-13.8-5.63-13.8-5.63l11.54,11.26s20.84,22.53,63.35,24.78c29.17,1.55,71.33-22,74.34-26.47s3.47-.84-5.92-2S278,195.61,278,195.61Z"/><path class="m" d="M235.71,225c5.63-7,18.3-12.67,27.6-20.84s15.2-26.46,15.2-26.46a9.72,9.72,0,0,1-10.7,0c-5.63-3.66,1.41-18.87,3.1-25.91s-2.54-11-2.54-11-13,11-23.08-2c-7.13-9.1,1.12-25.62-.85-49.55S216,47,216,47s0,4.23-.28,13.24S209,73.51,194.89,90.68s-12.11,31.82-13,46.74-7.32,19.43-16,23.09-20.84-13.8-20.84-13.8-1.86,16.32,1.13,29C149.56,190.07,165,210.07,176,218a138.22,138.22,0,0,1,17.61,14.8l1.05.48c3,.48,6.18.86,9.48,1.12a66.4,66.4,0,0,0,19.5-1.07q3.27-.61,6.57-1.43Z"/><path class="n" d="M238.81,212c7.32-8.17,11.54-29,11.54-29s-2.81.28-7-3.66-2-12.11-2-12.11S238.25,169,227,165.58,223,118,223,118s-9.2,5.13-20.83,20.55c-11.27,14.92-11.83,40.26-15.21,45.33s-14.08,0-14.08,0l.57,6.48c.56,6.47,16.33,25.9,20.27,29.84,3.12,3.12,8.35,11,10.4,14.15,1,.08,2.06.15,3.11.21a71.37,71.37,0,0,0,16.39-1.28,30.69,30.69,0,0,1,1.63-5.76C227,223.3,231.49,220.2,238.81,212Z"/><path class="g" d="M65.6,326.17c.65-.06,1.4,0,2.27,0,3.38,0,6.13,5.3,6.13,11.84s-2.75,11.84-6.13,11.84a18.15,18.15,0,0,1-2.13,0Z"/><ellipse class="h" cx="65.66" cy="338.01" rx="6.13" ry="11.84"/><ellipse class="i" cx="65.62" cy="338.01" rx="5.4" ry="10.44"/><path class="j" d="M71,338.07c0,6.67-2.76,10-4.33,10-5.12,0-9.27-4.47-9.27-10s4.15-10,9.27-10C68.24,328.1,71,331.4,71,338.07Z"/><path class="k" d="M66.05,338.07c0,3.62-.73,6.55-2.61,6.55-3.08,0-5.27-3.44-5.27-6.55s2.19-6.55,5.27-6.55C65.1,331.52,66.05,334.23,66.05,338.07Z"/><path class="l" d="M65.75,326.17h0c3.36,0,6.08,5.32,6.08,11.84s-2.72,11.79-6.08,11.83h0c3.39,0,6.3-5.31,6.3-11.84S69.14,326.17,65.75,326.17Z"/><path class="a" d="M336,377.31s23.51-12.42,26.39-34.09-10.06-40.24-7.81-56S359.6,263,359.6,263s-12.39,7.88-18.58,16.33S328.63,307.48,329.19,321s4.51,27-1.13,37.17-20.27,28.71-20.27,28.71Z"/><path class="a" d="M302.8,390.23s19.95-2.46,22.25-21.81-9.49-33.76-7.68-47.85,4.21-21.65,4.21-21.65-10.95,7.18-16.36,14.8S294.53,339,295.2,351s4.37,24.05-.53,33.16-17.92,10.55-17.92,10.55Z"/><path class="a" d="M84.68,381.22C70.75,372.78,58,367.48,56.52,363.49,55.27,360,63.21,355.44,68.84,340s3.45-20.12,1.48-33.91c-2.25-15.77,19.15-38.58,19.15-38.58s-8.17,22-2,30.41,11.82,21.4,11.26,34.92-4.23,27.33-.42,38.29C104.11,387.7,125.82,389,125.82,389S98.61,389.67,84.68,381.22Z"/></svg>