<svg xmlns="http://www.w3.org/2000/svg" xmlns:xlink="http://www.w3.org/1999/xlink" viewBox="0 0 420 420"><defs><style>.a{fill:#48cae3;}.b{fill:#ea8ce3;}.c{fill:#a3a3a1;}.d{fill:#e6b692;}.e,.j{fill:#fff;}.f{fill:#1735ab;}.g{fill:#16130b;}.h{fill:#b5684b;}.i{fill:#999;}.j{stroke:#afafaf;stroke-miterlimit:10;}.k{fill:url(#a);}.l{fill:#ffcb48;}.m{fill:#8ad613;}</style><linearGradient id="a" x1="287.86" y1="313.12" x2="327.86" y2="273.12" gradientUnits="userSpaceOnUse"><stop offset="0" stop-color="#2d2b27"/><stop offset="1" stop-color="#191919"/></linearGradient></defs><path class="a" d="M32.73,382.42s-1.5-27.9,7.51-46.29,39.42-75.46,39.42-75.46l45.42,107.74Z"/><path class="a" d="M87.17,346.18S62,338.46,46.25,350.3s-13.52,41.18-13.52,41.18,1.13,18.53,7.88,20.07,95-2.91,95-2.91Z"/><path class="a" d="M386.26,382.42s1.5-27.9-7.51-46.29-39.42-75.46-39.42-75.46L293.91,368.41Z"/><path class="a" d="M331.82,346.18s25.16-7.72,40.92,4.12,13.52,41.18,13.52,41.18-1.13,18.53-7.88,20.07-95-2.91-95-2.91Z"/><polygon class="b" points="290.87 189.63 285.61 232.24 121.93 232.99 122.49 185.13 290.87 189.63"/><polygon class="c" points="191.44 6.71 186.85 59.56 158.42 14.77 191.44 6.71"/><path class="d" d="M126.05,179.15s-15.83,8.89-8.69,28.41,25.71,33.79,25.71,33.79Z"/><polygon class="c" points="129.61 23.81 144.43 74.75 101.74 43.25 129.61 23.81"/><polygon class="c" points="230.5 6.71 235.09 59.56 263.52 14.77 230.5 6.71"/><path class="d" d="M284.41,185s12.43,2.56,11.08,15.95-5.95,21.92-18.65,28.76S284.41,185,284.41,185Z"/><polygon class="c" points="292.33 23.81 277.51 74.75 320.2 43.25 292.33 23.81"/><path class="d" d="M274.25,242.94s14.64-38.85,15.21-45.05,8.44-84.18-30.41-94.32-124.17-3.94-129.24,21.68-3.09,81.37-3.09,81.37l10.7,38Z"/><path class="e" d="M187.47,216.85a13,13,0,1,1-23.22-2.35,22.8,22.8,0,0,0-13.79,20.75c0,12.61,10.6,22.84,23.68,22.84s21.68-10.23,21.68-22.84C195.82,227.7,192.74,221,187.47,216.85Z"/><path class="f" d="M175.27,234.5a13,13,0,0,0,12.2-17.65,21.19,21.19,0,0,0-13.33-4.44,24.27,24.27,0,0,0-9.89,2.09,12.88,12.88,0,0,0-2,6.95A13,13,0,0,0,175.27,234.5Zm0-20.64a7.59,7.59,0,1,1-7.59,7.59A7.59,7.59,0,0,1,175.27,213.86Z"/><path class="g" d="M175.27,229a7.59,7.59,0,1,0-7.59-7.59A7.6,7.6,0,0,0,175.27,229Z"/><path class="e" d="M257.91,216.2a13,13,0,1,1-23.11-1.45c-7.26,3.72-11.63,11.5-11.63,20.5,0,12.61,8.6,22.84,21.68,22.84s23.68-10.23,23.68-22.84A22.61,22.61,0,0,0,257.91,216.2Z"/><path class="f" d="M246,234.5a13,13,0,0,0,11.93-18.3,24.19,24.19,0,0,0-13.06-3.79,21.78,21.78,0,0,0-10,2.34A13,13,0,0,0,246,234.5Zm0-20.64a7.59,7.59,0,1,1-7.6,7.59A7.6,7.6,0,0,1,246,213.86Z"/><path class="g" d="M246,229a7.59,7.59,0,1,0-7.6-7.59A7.61,7.61,0,0,0,246,229Z"/><path class="h" d="M156.09,206.21a2.5,2.5,0,0,1-1.83-4.2c.26-.28,6.65-7,24-7,2.33,0,4.79.12,7.31.35a2.49,2.49,0,0,1,1.69.9,2.42,2.42,0,0,1,.56,1.83,2.47,2.47,0,0,1-2.47,2.26h-.26c-2.32-.22-4.59-.33-6.73-.33-15,0-20.45,5.34-20.5,5.39A2.52,2.52,0,0,1,156.09,206.21Z"/><path class="e" d="M248,219.92a2,2,0,1,1,2-2A2,2,0,0,1,248,219.92Z"/><path class="e" d="M177.27,219.92a2,2,0,1,1,2-2A2,2,0,0,1,177.27,219.92Z"/><path class="h" d="M260.8,206.21a2.53,2.53,0,0,1-1.82-.78s-5.54-5.38-20.47-5.38c-2.15,0-4.42.11-6.76.33h-.24a2.48,2.48,0,0,1-2.48-2.26,2.5,2.5,0,0,1,2.25-2.73c2.52-.23,5-.35,7.31-.35,17.37,0,23.78,6.68,24,7a2.5,2.5,0,0,1-.13,3.53A2.45,2.45,0,0,1,260.8,206.21Z"/><path class="b" d="M147.83,98.22s-9.85-.56-16.89,9.57-11.83,16.9-12.39,25.63-1.12,25.34.28,36.32,7.6,38.57,9,42.51l1.41,3.94,1.13-26.37,5.63-6-1.13-4.5,9.39,2.63-.75-10.51,5.25,5.25,2.63-34.91Z"/><path class="b" d="M150.46,88.22a12.52,12.52,0,0,0-4.24,7.6A161.9,161.9,0,0,0,144.45,125c.27,12.46,4.51,28.44,7.61,33.79s33.5,32.09,50.68,34.35,33.22-2.54,47.3-.29c10.9,1.75,14.36,4,14.36,4L263,183.25l3.94,8.45,3.95-7.89s10.13,6.76,10.69,16.9a88.29,88.29,0,0,1-.56,17.17,28.52,28.52,0,0,0,7.6-14.64c2-9.57,6.48-40.26,5.63-52.93S290,98.22,241.87,78.79,156.56,83,156.56,83Z"/><path class="i" d="M343.82,413.64H75.17a10,10,0,0,1-10-9.41L55.37,238a10,10,0,0,1,10-10.59H353.64a10,10,0,0,1,10,10.59l-9.82,166.2A10,10,0,0,1,343.82,413.64Z"/><path class="j" d="M209.45,354.53a28.22,28.22,0,0,1-14.3-3.55,25.64,25.64,0,0,1-9.75-9.8,31,31,0,0,1,0-28.8,25.64,25.64,0,0,1,9.75-9.8,30.38,30.38,0,0,1,28.5,0,25.78,25.78,0,0,1,9.75,9.8,31.18,31.18,0,0,1,0,28.8,25.44,25.44,0,0,1-9.7,9.8A28.25,28.25,0,0,1,209.45,354.53Zm0-9a17.56,17.56,0,0,0,9.2-2.4,16.83,16.83,0,0,0,6.25-6.6,20.22,20.22,0,0,0,2.25-9.7,20.51,20.51,0,0,0-2.25-9.75,16.77,16.77,0,0,0-6.25-6.65,18.83,18.83,0,0,0-18.4,0,17,17,0,0,0-6.3,6.65,20.07,20.07,0,0,0-2.3,9.75,19.79,19.79,0,0,0,2.3,9.7,17.09,17.09,0,0,0,6.3,6.6A17.51,17.51,0,0,0,209.45,345.53Z"/><path class="k" d="M309.34,261.26h0A30.39,30.39,0,0,0,283,276.45h0a30.41,30.41,0,0,0,0,30.38h0A30.39,30.39,0,0,0,309.34,322h0a30.36,30.36,0,0,0,26.31-15.19h0a30.36,30.36,0,0,0,0-30.38h0A30.36,30.36,0,0,0,309.34,261.26Z"/><path class="e" d="M309.34,262.65a29,29,0,1,1-25.1,14.49,29.06,29.06,0,0,1,25.1-14.49m0-1.39a30.38,30.38,0,1,0,26.31,15.19,30.39,30.39,0,0,0-26.31-15.19Z"/><path class="e" d="M289.35,295.42v-5.76l11.59-3.22v3.33l-9.43,2.53v.49l9.43,2.53v3.33Z"/><path class="e" d="M311.92,279.37l3.17,1-8.29,25.36-3.19-1Z"/><path class="e" d="M317.75,298.65v-3.33l9.43-2.53v-.49l-9.43-2.53v-3.33l11.59,3.22v5.76Z"/><polygon class="l" points="126.11 296.2 78.3 296.2 76.3 247.39 125.11 247.39 126.11 296.2"/><path class="e" d="M123.75,248.78l.94,46H79.63l-1.89-46h46m1.36-1.39H76.3l2,48.81h47.81l-1-48.81Z"/><polygon class="m" points="155.75 270.14 124.96 270.14 110.57 296.8 126.96 322.47 153.75 322.47 170.15 296.8 155.75 270.14"/><path class="e" d="M154.93,271.53l13.61,25.22L153,321.08H127.72l-15.54-24.33,13.61-25.22h29.14m.82-1.39H125L110.57,296.8,127,322.47h26.79l16.4-25.67-14.4-26.66Z"/></svg>