<svg xmlns="http://www.w3.org/2000/svg" viewBox="0 0 420 420"><defs><style>.a{fill:#191919;}</style></defs><path class="a" d="M79,158.74H76.27c-7.67,0-13.84,2.18-18.34,6.48s-6.83,10.71-6.83,18.95v49.34c0,8.14,2.33,14.5,6.9,18.9S68.71,259,76.27,259H79c7.56,0,13.7-2.21,18.27-6.56s6.89-10.74,6.89-18.88V184.17c0-8.23-2.3-14.6-6.82-18.95S86.67,158.74,79,158.74ZM67,211.81V181.58a7.7,7.7,0,0,1,2.56-5.8,9.25,9.25,0,0,1,6.68-2.48H79a9.19,9.19,0,0,1,6.67,2.48,7.75,7.75,0,0,1,2.53,5.16ZM88.24,206v30.12a7.73,7.73,0,0,1-2.56,5.79A9.19,9.19,0,0,1,79,244.4H76.27a9.23,9.23,0,0,1-6.68-2.49,7.79,7.79,0,0,1-2.53-5.16Z"/><polygon class="a" points="160.27 158.75 140.17 166.26 140.17 181.91 159.5 174.79 159.5 244.4 141.55 244.4 141.55 258.95 190.37 258.95 190.37 244.4 175.43 244.4 175.43 158.75 160.27 158.75"/><path class="a" d="M254.43,158.74h-2.75c-7.67,0-13.84,2.18-18.33,6.48s-6.84,10.71-6.84,18.95v49.34c0,8.14,2.33,14.5,6.9,18.9S244.12,259,251.68,259h2.75c7.55,0,13.7-2.21,18.26-6.56s6.9-10.74,6.9-18.88V184.17c0-8.23-2.3-14.6-6.83-18.95S262.09,158.74,254.43,158.74Zm-12,53.07V181.58a7.67,7.67,0,0,1,2.56-5.8,9.22,9.22,0,0,1,6.67-2.48h2.75a9.18,9.18,0,0,1,6.66,2.48,7.76,7.76,0,0,1,2.54,5.16Zm21.2-5.81v30.12a7.73,7.73,0,0,1-2.56,5.79,9.18,9.18,0,0,1-6.66,2.49h-2.75a9.21,9.21,0,0,1-6.67-2.49,7.76,7.76,0,0,1-2.54-5.16Z"/><polygon class="a" points="335.68 158.75 315.59 166.26 315.59 181.91 334.91 174.79 334.91 244.4 316.96 244.4 316.96 258.95 365.78 258.95 365.78 244.4 350.84 244.4 350.84 158.75 335.68 158.75"/><polygon class="a" points="87.73 278.86 72.56 278.86 52.47 286.37 52.47 302.03 71.79 294.9 71.79 364.51 53.84 364.51 53.84 379.07 102.67 379.07 102.67 364.51 87.73 364.51 87.73 278.86"/><path class="a" d="M166.71,278.86H164c-7.67,0-13.84,2.17-18.33,6.47s-6.84,10.71-6.84,19v49.33c0,8.15,2.33,14.51,6.9,18.91s10.71,6.54,18.27,6.54h2.74c7.56,0,13.71-2.21,18.27-6.56s6.9-10.74,6.9-18.89V304.29c0-8.23-2.3-14.61-6.83-19S174.38,278.86,166.71,278.86Zm-12,53.06V301.69a7.7,7.7,0,0,1,2.56-5.8,9.21,9.21,0,0,1,6.67-2.48h2.74a9.19,9.19,0,0,1,6.67,2.48,7.8,7.8,0,0,1,2.54,5.17Zm21.2-5.8v30.11a7.73,7.73,0,0,1-2.56,5.79,9.19,9.19,0,0,1-6.67,2.49H164A9.21,9.21,0,0,1,157.3,362a7.76,7.76,0,0,1-2.54-5.15Z"/><polygon class="a" points="263.14 278.86 247.98 278.86 227.88 286.37 227.88 302.03 247.21 294.9 247.21 364.51 229.26 364.51 229.26 379.07 278.1 379.07 278.1 364.51 263.14 364.51 263.14 278.86"/><path class="a" d="M342.13,278.86h-2.75c-7.67,0-13.84,2.17-18.33,6.47s-6.83,10.71-6.83,19v49.33c0,8.15,2.32,14.51,6.9,18.91s10.7,6.54,18.26,6.54h2.75c7.55,0,13.7-2.21,18.27-6.56s6.89-10.74,6.89-18.89V304.29c0-8.23-2.3-14.61-6.83-19S349.79,278.86,342.13,278.86Zm-12,53.06V301.69a7.73,7.73,0,0,1,2.56-5.8,9.22,9.22,0,0,1,6.67-2.48h2.75a9.18,9.18,0,0,1,6.66,2.48,7.76,7.76,0,0,1,2.54,5.17Zm21.2-5.8v30.11a7.69,7.69,0,0,1-2.56,5.79,9.17,9.17,0,0,1-6.66,2.49h-2.75a9.22,9.22,0,0,1-6.67-2.49,7.8,7.8,0,0,1-2.54-5.15Z"/><polygon class="a" points="71.79 124.3 53.84 124.3 53.84 138.85 102.67 138.85 102.67 124.3 87.73 124.3 87.73 38.65 72.56 38.65 52.47 46.16 52.47 61.82 71.79 54.69 71.79 124.3"/><path class="a" d="M166.71,38.65H164c-7.67,0-13.84,2.17-18.33,6.47s-6.84,10.71-6.84,18.95v49.34c0,8.15,2.33,14.5,6.9,18.9s10.71,6.54,18.27,6.54h2.74c7.56,0,13.71-2.2,18.27-6.55s6.9-10.74,6.9-18.89V64.07c0-8.23-2.3-14.6-6.83-18.95S174.38,38.65,166.71,38.65Zm-12,53.06V61.48a7.67,7.67,0,0,1,2.56-5.8A9.21,9.21,0,0,1,164,53.2h2.74a9.19,9.19,0,0,1,6.67,2.48,7.76,7.76,0,0,1,2.54,5.17Zm21.2-5.8V116a7.73,7.73,0,0,1-2.56,5.79,9.19,9.19,0,0,1-6.67,2.49H164a9.21,9.21,0,0,1-6.67-2.49,7.76,7.76,0,0,1-2.54-5.16Z"/><polygon class="a" points="247.21 124.3 229.26 124.3 229.26 138.85 278.08 138.85 278.08 124.3 263.14 124.3 263.14 38.65 247.98 38.65 227.88 46.16 227.88 61.82 247.21 54.69 247.21 124.3"/><path class="a" d="M360.46,45.14v0c-4.5-4.3-10.67-6.47-18.33-6.47h-2.75c-7.67,0-13.84,2.17-18.33,6.47s-6.83,10.71-6.83,18.95v49.34c0,8.15,2.32,14.5,6.9,18.9s10.7,6.54,18.26,6.54h2.75c7.55,0,13.7-2.2,18.27-6.55s6.89-10.74,6.89-18.89V64.07C367.29,55.84,365,49.47,360.46,45.14ZM330.15,91.71V61.48a7.7,7.7,0,0,1,2.56-5.8,9.22,9.22,0,0,1,6.67-2.48h2.75a9.18,9.18,0,0,1,6.66,2.48,7.72,7.72,0,0,1,2.54,5.17Zm21.2-5.8V116a7.69,7.69,0,0,1-2.56,5.79,9.17,9.17,0,0,1-6.66,2.49h-2.75a9.22,9.22,0,0,1-6.67-2.49,7.8,7.8,0,0,1-2.54-5.16Z"/></svg>