<svg xmlns="http://www.w3.org/2000/svg" xmlns:xlink="http://www.w3.org/1999/xlink" viewBox="0 0 24 24"><defs><style>.a{fill:#eab236;}.b{fill:url(#a);}.c{fill:#fff;}.d{fill:url(#b);}.e{fill:#191919;}.f{fill:url(#c);}.g{fill:url(#d);}.h{fill:url(#e);}.i{opacity:0.8;fill:url(#f);}.j{fill:#ffcb48;}.k{fill:url(#g);}.l{fill:url(#h);}.m{fill:#a87a1e;opacity:0.6;}.n{fill:url(#i);}.o{fill:url(#j);}.p{fill:url(#k);}.q{fill:url(#l);}.r{fill:url(#m);}.s{fill:url(#n);}.t{fill:url(#o);}.u{fill:url(#p);}.v{fill:url(#q);}.w{fill:none;}</style><radialGradient id="a" cx="11.81" cy="16.21" r="11.92" gradientTransform="translate(2.08 28.01) rotate(-90) scale(1 0.6)" gradientUnits="userSpaceOnUse"><stop offset="0.83" stop-color="#ffcb48"/><stop offset="1" stop-color="#eab236"/></radialGradient><radialGradient id="b" cx="16.26" cy="12.37" r="2.76" gradientUnits="userSpaceOnUse"><stop offset="0" stop-color="#fff"/><stop offset="0.38" stop-color="#b28508"/><stop offset="0.95" stop-color="#191919"/></radialGradient><radialGradient id="c" cx="14.62" cy="10.93" r="0.33" gradientUnits="userSpaceOnUse"><stop offset="0.38" stop-color="#fff"/><stop offset="0.8" stop-color="#fff" stop-opacity="0"/></radialGradient><radialGradient id="d" cx="10.43" cy="12.37" r="2.76" xlink:href="#b"/><radialGradient id="e" cx="8.79" cy="10.93" r="0.33" xlink:href="#c"/><radialGradient id="f" cx="11.94" cy="14.61" r="2.27" gradientTransform="translate(0 1.46) scale(1 0.9)" gradientUnits="userSpaceOnUse"><stop offset="0.11" stop-color="#4c412e"/><stop offset="0.59" stop-color="#4c412e" stop-opacity="0"/></radialGradient><radialGradient id="g" cx="62.91" cy="14.17" r="1.56" gradientTransform="matrix(0.01, -1, 0.85, 0.01, -0.79, 76.91)" gradientUnits="userSpaceOnUse"><stop offset="0.1" stop-color="#fff" stop-opacity="0.5"/><stop offset="0.26" stop-color="#fff" stop-opacity="0.5"/><stop offset="0.82" stop-color="#fff" stop-opacity="0"/></radialGradient><radialGradient id="h" cx="12" cy="14.06" r="0.87" gradientUnits="userSpaceOnUse"><stop offset="0" stop-color="#fdc947" stop-opacity="0"/><stop offset="1" stop-color="#eab236"/></radialGradient><radialGradient id="i" cx="7.4" cy="10.15" r="8.1" gradientUnits="userSpaceOnUse"><stop offset="0.1" stop-color="#eab236"/><stop offset="0.64" stop-color="#ffcb48"/><stop offset="0.88" stop-color="#fff" stop-opacity="0.9"/></radialGradient><linearGradient id="j" x1="10.34" y1="9.97" x2="19.71" y2="1.59" gradientUnits="userSpaceOnUse"><stop offset="0.1" stop-color="#eab236"/><stop offset="1" stop-color="#eab236"/></linearGradient><radialGradient id="k" cx="12.74" cy="10.22" r="7.93" gradientTransform="translate(-6.71 12.54) rotate(-56.23) scale(1 1.46)" gradientUnits="userSpaceOnUse"><stop offset="0.1" stop-color="#eab236"/><stop offset="0.64" stop-color="#ffcb48"/><stop offset="0.99" stop-color="#fff" stop-opacity="0.9"/></radialGradient><radialGradient id="l" cx="11.97" cy="26.89" r="9.43" gradientTransform="matrix(0.02, -1, 1.17, 0.02, -19.61, 38.36)" gradientUnits="userSpaceOnUse"><stop offset="0.86" stop-color="#004ece"/><stop offset="1" stop-color="#532fa2"/></radialGradient><radialGradient id="m" cx="12" cy="18.38" r="7.07" gradientUnits="userSpaceOnUse"><stop offset="0" stop-color="#bcbcbc"/><stop offset="1" stop-color="#999"/></radialGradient><linearGradient id="n" x1="12" y1="22.12" x2="12" y2="14.63" gradientUnits="userSpaceOnUse"><stop offset="0.92" stop-color="#bcbcbc" stop-opacity="0"/><stop offset="0.98" stop-color="#fff" stop-opacity="0.5"/><stop offset="1" stop-color="#999" stop-opacity="0"/></linearGradient><linearGradient id="o" x1="15.18" y1="20.32" x2="18" y2="17.51" gradientUnits="userSpaceOnUse"><stop offset="0" stop-color="#2d2b27"/><stop offset="1" stop-color="#191919"/></linearGradient><linearGradient id="p" x1="4.65" y1="15.64" x2="8.1" y2="19.09" gradientUnits="userSpaceOnUse"><stop offset="0" stop-color="#d13add"/><stop offset="1" stop-color="#ffcb48"/></linearGradient><linearGradient id="q" x1="7.75" y1="20.67" x2="10.74" y2="17.69" gradientUnits="userSpaceOnUse"><stop offset="0" stop-color="#51e038"/><stop offset="1" stop-color="#8ad613"/></linearGradient></defs><polygon class="a" points="17.66 13.85 17.61 14.81 18.12 15.04 18.48 13.89 17.66 13.85"/><polygon class="a" points="5.52 13.89 5.88 15.04 6.39 14.81 6.34 13.85 5.52 13.89"/><path class="b" d="M6.3,14.66C3.57,6,7.38,2.13,12,2.13s8.63,4.3,5.75,12.53Z"/><path class="a" d="M16.4,12.13a2.88,2.88,0,0,1-1.52.48,2.87,2.87,0,0,1-1.51-.48,5.42,5.42,0,0,0,1.51.28A5.42,5.42,0,0,0,16.4,12.13Z"/><path class="c" d="M16.4,12.13a4,4,0,0,1-1.52.38,4,4,0,0,1-1.51-.38s-.24-2,1.48-2S16.4,12.13,16.4,12.13Z"/><circle class="d" cx="14.89" cy="11.39" r="1"/><circle class="e" cx="14.89" cy="11.39" r="0.65"/><circle class="f" cx="14.62" cy="10.93" r="0.33"/><path class="a" d="M13.39,11.32A1.56,1.56,0,0,1,14,10.27a1.63,1.63,0,0,1,1.2-.2,1.37,1.37,0,0,1,1,.67,2.28,2.28,0,0,1,.25,1.2h0a2.73,2.73,0,0,0-.4-1.1,1.2,1.2,0,0,0-.86-.53,1.63,1.63,0,0,0-1.05.12,1.7,1.7,0,0,0-.68.89Z"/><path class="a" d="M7.55,12.12a5.81,5.81,0,0,0,1.52.28,5.81,5.81,0,0,0,1.51-.28,3,3,0,0,1-1.51.48A3,3,0,0,1,7.55,12.12Z"/><path class="c" d="M7.55,12.13a4,4,0,0,0,1.52.38,4,4,0,0,0,1.51-.38s.24-2-1.48-2S7.55,12.13,7.55,12.13Z"/><circle class="g" cx="9.06" cy="11.39" r="1"/><circle class="e" cx="9.06" cy="11.39" r="0.65"/><circle class="h" cx="8.79" cy="10.93" r="0.33"/><path class="a" d="M10.54,11.32a1.7,1.7,0,0,0-.68-.89,1.57,1.57,0,0,0-1-.12,1.2,1.2,0,0,0-.86.53,2.73,2.73,0,0,0-.4,1.1h0a2.38,2.38,0,0,1,.25-1.2,1.37,1.37,0,0,1,1-.67,1.63,1.63,0,0,1,1.2.2,1.56,1.56,0,0,1,.59,1.05Z"/><path class="i" d="M11,13.57s-.5,1,1,1h0c1.46,0,1-1,1-1s.68.54.5,1a1.74,1.74,0,0,1-1.77,1.13A1.54,1.54,0,0,1,10.41,14C10.53,13.72,11,13.57,11,13.57Z"/><path class="j" d="M11,13.49s-.53,1.09,1,1.09h0c1.55,0,1-1.09,1-1.09l-.93-1.6Z"/><path class="k" d="M11,13.49s-.53,1.09,1,1.09h0c1.55,0,1-1.09,1-1.09l-.93-1.6Z"/><path class="l" d="M11,13.55s-.52,1,1,1h0c1.55,0,1-1,1-1s.44.78-1,.78S11,13.55,11,13.55Z"/><path class="j" d="M17.75,14.27c1.27-.07,1.69-2.89,1.32-3.54-.15-.25-.5-.1-.5-.1Z"/><path class="j" d="M6.25,14.27C5,14.2,4.56,11.38,4.93,10.73c.15-.25.5-.1.5-.1Z"/><path class="m" d="M7.14,5.05s-1.95,6-1.6,5.75C6.83,9.84,8,6,8.2,6.15a7,7,0,0,0,3.3.91c2.85.38,4.44.45,4.86.77a23.37,23.37,0,0,1,1.78,3.71s1-3.32,0-4.31S7.14,5.05,7.14,5.05Z"/><path class="m" d="M10.1,9.52a4.38,4.38,0,0,0-1.9.14c-.72.3-.34-.35-.34-.35C8,8.83,11,8.46,10.1,9.52Z"/><path class="m" d="M13.9,9.52a4.38,4.38,0,0,1,1.9.14c.72.3.34-.35.34-.35C16,8.83,13,8.46,13.9,9.52Z"/><path class="a" d="M6.68,4.16c-1,.2-1.63,2.44-1.63,2.44-.32,1.15-.39,4.57-.19,4.46s.84,1,.84,1l.42-2.28.75-1.27a19.35,19.35,0,0,0,1-3.24S7.52,4,6.68,4.16Z"/><path class="n" d="M5.7,12c-.23-.36-.6-.95-.8-1a19,19,0,0,1,.3-4.49C5.36,6,6,4.36,6.71,4.21h.12c.61,0,.9,1,.91,1h0c.24,0-.55,2.45-1,3.12A13.1,13.1,0,0,0,6.07,9.7Z"/><path class="o" d="M18.88,6.41s0,0,0,0c-.18-.91-1.66-4.38-7-4.38C8,2,6.68,4.16,6.68,4.16s.61,2.28,3.86,2.73a3.41,3.41,0,0,0,.54.1c2.11.14,4.61.38,5,.7s-.48-.77-.48-.77a13.15,13.15,0,0,1,1.15,1c.14.21.07-.49.07-.49a6.4,6.4,0,0,0,.77,1.83h0l.26.47.42,2.28s.63-1.13.84-1S19.26,7.3,18.88,6.41Z"/><path class="p" d="M18,9.69l-.3-.56-.06,0a6.68,6.68,0,0,1-.87-1.68l0,0c0,.08-.14.12-.13.19a8.75,8.75,0,0,0-1.07-.77l.05,0c0,.06.1.41.15.47a26.31,26.31,0,0,0-4.62-.5c-.17,0-1.17-.23-1.34-.27C7.2,5.94,6.8,4.64,6.67,4.28a6.39,6.39,0,0,1,5.22-2.22c4.89,0,6.58,3.07,6.81,4.26l.05.09a17,17,0,0,1,.4,4.62c-.22.07-.63.68-.84,1Z"/><path class="q" d="M2.36,22.12s2.45-4.82,9.51-4.73,9.77,4.71,9.77,4.71Z"/><path class="r" d="M4,14.66a.49.49,0,0,0-.5.52l.24,6.94,16.46,0,.24-7a.5.5,0,0,0-.5-.52Z"/><path class="s" d="M4,14.66a.49.49,0,0,0-.5.52l.24,6.94,16.46,0,.24-7a.5.5,0,0,0-.5-.52Z"/><path class="t" d="M16.69,21a2.14,2.14,0,0,1,0-4.28,2.14,2.14,0,1,1,0,4.28Z"/><path class="c" d="M16.69,16.72a2.08,2.08,0,0,1,1.81,1.05,2.09,2.09,0,1,1-1.81-1.05m0-.1a2.2,2.2,0,1,0,1.9,1.1h0a2.2,2.2,0,0,0-1.9-1.1Z"/><path class="c" d="M15.25,19.08v-.41l.84-.23v.24l-.68.18v0l.68.19v.24Z"/><path class="c" d="M16.88,17.93l.23.07-.6,1.83-.23-.08Z"/><path class="c" d="M17.3,19.32v-.24l.68-.19v0l-.68-.18v-.24l.83.23v.41Z"/><polygon class="u" points="4.63 19.09 4.68 15.62 8.15 15.67 8.1 19.09 4.63 19.09"/><path class="c" d="M8.05,15.72V19H4.73V15.72H8.05m.1-.1H4.63v3.52H8.15V15.62Z"/><polygon class="v" points="8.14 21.06 7.07 19.16 8.18 17.29 10.36 17.31 11.42 19.21 10.33 21.06 8.14 21.06"/><path class="c" d="M10.3,17.36l1,1.82L10.3,21H8.19l-1-1.83,1-1.82H10.3m.06-.1H8.14L7,19.18l1.11,1.93h2.22l1.11-1.93-1.11-1.92Z"/><rect class="w" width="24" height="24"/></svg>