<svg xmlns="http://www.w3.org/2000/svg" xmlns:xlink="http://www.w3.org/1999/xlink" viewBox="0 0 24 24"><defs><style>.a{fill:#191919;}.b{isolation:isolate;}.c{mask:url(#a);}.d{fill:url(#c);}.e,.g{mix-blend-mode:multiply;}.f,.g{fill:#3bbddb;}.h{fill:none;}.i{filter:url(#b);}</style><filter id="b" filterUnits="userSpaceOnUse" color-interpolation-filters="sRGB"><feColorMatrix values="-1 0 0 0 1 0 -1 0 0 1 0 0 -1 0 1 0 0 0 1 0"/></filter><mask id="a" x="1.86" y="1.98" width="20.27" height="20.27" maskUnits="userSpaceOnUse"><g class="i"><path class="a" d="M4.35,9.12H4.19a1.49,1.49,0,0,0-1.07.38,1.43,1.43,0,0,0-.4,1.1v2.88a1.47,1.47,0,0,0,.4,1.11A1.52,1.52,0,0,0,4.19,15h.16a1.48,1.48,0,0,0,1.06-.38,1.47,1.47,0,0,0,.41-1.11V10.6a1.47,1.47,0,0,0-.4-1.1A1.49,1.49,0,0,0,4.35,9.12Zm-.7,3.1V10.45a.46.46,0,0,1,.15-.34A.56.56,0,0,1,4.19,10h.16a.56.56,0,0,1,.39.14.48.48,0,0,1,.15.31Zm1.24-.34v1.76a.43.43,0,0,1-.15.33.53.53,0,0,1-.39.15H4.19A.53.53,0,0,1,3.8,14a.44.44,0,0,1-.15-.3Z"/><polygon class="a" points="9.09 9.12 7.92 9.56 7.92 10.47 9.05 10.06 9.05 14.12 8 14.12 8 14.97 10.85 14.97 10.85 14.12 9.98 14.12 9.98 9.12 9.09 9.12"/><path class="a" d="M14.59,9.12h-.16a1.49,1.49,0,0,0-1.07.38,1.43,1.43,0,0,0-.4,1.1v2.88a1.47,1.47,0,0,0,.4,1.11,1.52,1.52,0,0,0,1.07.38h.16a1.37,1.37,0,0,0,1.47-1.49V10.6a1.47,1.47,0,0,0-.4-1.1A1.49,1.49,0,0,0,14.59,9.12Zm-.7,3.1V10.45a.46.46,0,0,1,.15-.34.56.56,0,0,1,.39-.14h.16a.56.56,0,0,1,.39.14.48.48,0,0,1,.15.31Zm1.24-.34v1.76A.43.43,0,0,1,15,14a.53.53,0,0,1-.39.15h-.16A.53.53,0,0,1,14,14a.44.44,0,0,1-.15-.3Z"/><polygon class="a" points="19.33 9.12 18.16 9.56 18.16 10.47 19.29 10.06 19.29 14.12 18.24 14.12 18.24 14.97 21.09 14.97 21.09 14.12 20.22 14.12 20.22 9.12 19.33 9.12"/><polygon class="a" points="4.86 16.13 3.97 16.13 2.8 16.57 2.8 17.48 3.93 17.07 3.93 21.13 2.88 21.13 2.88 21.98 5.73 21.98 5.73 21.13 4.86 21.13 4.86 16.13"/><path class="a" d="M9.47,16.13H9.31a1.49,1.49,0,0,0-1.07.38,1.44,1.44,0,0,0-.4,1.11V20.5a1.46,1.46,0,0,0,.4,1.1A1.52,1.52,0,0,0,9.31,22h.16a1.48,1.48,0,0,0,1.06-.38,1.46,1.46,0,0,0,.41-1.1V17.62a1.35,1.35,0,0,0-1.47-1.49Zm-.7,3.1V17.46a.43.43,0,0,1,.15-.33A.53.53,0,0,1,9.31,17h.16a.53.53,0,0,1,.39.15.44.44,0,0,1,.15.3ZM10,18.89v1.76a.46.46,0,0,1-.15.34.56.56,0,0,1-.39.14H9.31A.56.56,0,0,1,8.92,21a.48.48,0,0,1-.15-.3Z"/><polygon class="a" points="15.1 16.13 14.21 16.13 13.04 16.57 13.04 17.48 14.17 17.07 14.17 21.13 13.12 21.13 13.12 21.98 15.97 21.98 15.97 21.13 15.1 21.13 15.1 16.13"/><path class="a" d="M19.71,16.13h-.16a1.49,1.49,0,0,0-1.07.38,1.44,1.44,0,0,0-.4,1.11V20.5a1.46,1.46,0,0,0,.4,1.1,1.52,1.52,0,0,0,1.07.38h.16a1.48,1.48,0,0,0,1.06-.38,1.46,1.46,0,0,0,.41-1.1V17.62a1.35,1.35,0,0,0-1.47-1.49Zm-.7,3.1V17.46a.43.43,0,0,1,.15-.33.53.53,0,0,1,.39-.15h.16a.53.53,0,0,1,.39.15.39.39,0,0,1,.14.3Zm1.24-.34v1.76a.46.46,0,0,1-.15.34.58.58,0,0,1-.39.14h-.16a.56.56,0,0,1-.39-.14.48.48,0,0,1-.15-.3Z"/><polygon class="a" points="3.93 7.11 2.88 7.11 2.88 7.96 5.73 7.96 5.73 7.11 4.86 7.11 4.86 2.11 3.97 2.11 2.8 2.55 2.8 3.46 3.93 3.05 3.93 7.11"/><path class="a" d="M9.47,2.11H9.31a1.49,1.49,0,0,0-1.07.38,1.43,1.43,0,0,0-.4,1.1V6.47a1.47,1.47,0,0,0,.4,1.11A1.52,1.52,0,0,0,9.31,8h.16a1.48,1.48,0,0,0,1.06-.38,1.47,1.47,0,0,0,.41-1.11V3.59a1.47,1.47,0,0,0-.4-1.1A1.49,1.49,0,0,0,9.47,2.11Zm-.7,3.1V3.44a.46.46,0,0,1,.15-.34A.56.56,0,0,1,9.31,3h.16a.56.56,0,0,1,.39.14.48.48,0,0,1,.15.31ZM10,4.87V6.63A.43.43,0,0,1,9.86,7a.53.53,0,0,1-.39.15H9.31A.53.53,0,0,1,8.92,7a.44.44,0,0,1-.15-.3Z"/><polygon class="a" points="14.17 7.11 13.12 7.11 13.12 7.96 15.97 7.96 15.97 7.11 15.1 7.11 15.1 2.11 14.21 2.11 13.04 2.55 13.04 3.46 14.17 3.05 14.17 7.11"/><path class="a" d="M20.78,2.49h0a1.49,1.49,0,0,0-1.07-.38h-.16a1.49,1.49,0,0,0-1.07.38,1.43,1.43,0,0,0-.4,1.1V6.47a1.47,1.47,0,0,0,.4,1.11A1.52,1.52,0,0,0,19.55,8h.16a1.48,1.48,0,0,0,1.06-.38,1.47,1.47,0,0,0,.41-1.11V3.59A1.47,1.47,0,0,0,20.78,2.49ZM19,5.21V3.44a.46.46,0,0,1,.15-.34A.56.56,0,0,1,19.55,3h.16a.56.56,0,0,1,.39.14.43.43,0,0,1,.14.31Zm1.24-.34V6.63A.43.43,0,0,1,20.1,7a.54.54,0,0,1-.39.15h-.16A.53.53,0,0,1,19.16,7a.44.44,0,0,1-.15-.3Z"/></g></mask><radialGradient id="c" cx="17.77" cy="19.93" fy="12.835063591415441" r="20.6" gradientUnits="userSpaceOnUse"><stop offset="0" stop-color="#470a77"/><stop offset="0.21" stop-color="#df00ff"/><stop offset="1" stop-color="#80edff"/></radialGradient></defs><g class="b"><g class="c"><rect class="d" x="1.86" y="1.98" width="20.27" height="20.27"/></g><g class="e"><polygon class="f" points="4.44 16.14 3.96 16.13 2.79 16.9 2.8 17.48 4.39 16.18 3.93 17.09 3.93 21.07 4.42 21.46 2.88 21.64 2.88 21.98 5.73 21.98 5.73 21.64 4.44 21.46 4.44 16.14"/><polygon class="f" points="14.69 16.14 14.22 16.13 13.04 16.9 13.05 17.48 14.65 16.18 14.18 17.09 14.18 21.07 14.67 21.46 13.13 21.64 13.13 21.98 15.98 21.98 15.98 21.64 14.69 21.46 14.69 16.14"/><polygon class="f" points="4.44 2.13 3.96 2.12 2.79 2.9 2.8 3.48 4.39 2.18 3.93 3.08 3.93 7.07 4.42 7.46 2.88 7.63 2.88 7.97 5.73 7.97 5.73 7.63 4.44 7.46 4.44 2.13"/><polygon class="f" points="14.69 2.13 14.22 2.12 13.04 2.9 13.05 3.48 14.65 2.18 14.18 3.08 14.18 7.07 14.67 7.46 13.13 7.63 13.13 7.97 15.98 7.97 15.98 7.63 14.69 7.46 14.69 2.13"/><polygon class="f" points="9.58 9.1 9.1 9.09 7.92 9.86 7.94 10.45 9.53 9.14 9.07 10.05 9.07 14.04 9.55 14.42 8.02 14.6 8.02 14.94 10.87 14.94 10.87 14.6 9.58 14.42 9.58 9.1"/><polygon class="f" points="19.83 9.1 19.36 9.09 18.18 9.86 18.19 10.45 19.79 9.14 19.32 10.05 19.32 14.04 19.81 14.42 18.27 14.6 18.27 14.94 21.12 14.94 21.12 14.6 19.83 14.42 19.83 9.1"/></g><polygon class="g" points="15.12 11.9 15.51 10.52 13.33 13.87 13.85 13.71 15.12 11.9"/><path class="g" d="M13.88,12.21l0-1.76a.45.45,0,0,1,.47-.43,1.06,1.06,0,0,1,.6.11.74.74,0,0,0-.9-.55c-.46.07-.66.78-.66.78l0,2.5Z"/><path class="g" d="M16,10.38a1,1,0,0,0-.17-.57l-.37.83s0,2.78,0,3-.26.85-.81.87a2.47,2.47,0,0,1-1-.23s.55.63.83.63a1.46,1.46,0,0,0,.88-.21,1.62,1.62,0,0,0,.6-.81C16.05,13.58,16.05,10.76,16,10.38Z"/><polygon class="g" points="4.89 11.9 5.28 10.52 3.1 13.87 3.62 13.71 4.89 11.9"/><path class="g" d="M3.65,12.21l0-1.76A.45.45,0,0,1,4.16,10a1.06,1.06,0,0,1,.6.11.74.74,0,0,0-.9-.55c-.46.07-.66.78-.66.78l0,2.5Z"/><path class="g" d="M5.81,10.38a1,1,0,0,0-.17-.57l-.37.83s0,2.78,0,3-.26.85-.81.87a2.47,2.47,0,0,1-1-.23S4,15,4.27,15a1.46,1.46,0,0,0,.88-.21,1.62,1.62,0,0,0,.6-.81C5.82,13.58,5.82,10.76,5.81,10.38Z"/><polygon class="g" points="20.23 19.03 20.63 17.65 18.45 21 18.96 20.84 20.23 19.03"/><path class="g" d="M19,19.34l0-1.76a.45.45,0,0,1,.48-.42,1.15,1.15,0,0,1,.6.1.74.74,0,0,0-.9-.54c-.47.06-.67.77-.67.77l0,2.5Z"/><path class="g" d="M21.15,17.52A.92.92,0,0,0,21,17l-.37.82s0,2.78,0,3.05-.27.84-.81.86a2.25,2.25,0,0,1-1-.23s.54.63.82.63a1.44,1.44,0,0,0,.88-.21,1.49,1.49,0,0,0,.6-.81C21.16,20.71,21.16,17.9,21.15,17.52Z"/><polygon class="g" points="9.95 18.94 10.35 17.56 8.17 20.91 8.69 20.75 9.95 18.94"/><path class="g" d="M8.72,19.25l0-1.76a.44.44,0,0,1,.47-.43,1.06,1.06,0,0,1,.6.11.74.74,0,0,0-.9-.55c-.46.07-.67.78-.67.78l0,2.5Z"/><path class="g" d="M10.88,17.42a1,1,0,0,0-.17-.57l-.37.83s0,2.78,0,3-.26.85-.81.87a2.47,2.47,0,0,1-1-.23s.55.63.83.63a1.46,1.46,0,0,0,.88-.21,1.62,1.62,0,0,0,.6-.81C10.89,20.62,10.89,17.8,10.88,17.42Z"/><polygon class="g" points="20.23 4.91 20.63 3.52 18.45 6.88 18.96 6.72 20.23 4.91"/><path class="g" d="M19,5.21l0-1.76A.45.45,0,0,1,19.51,3a1.06,1.06,0,0,1,.6.11.75.75,0,0,0-.9-.55c-.47.07-.67.78-.67.78l0,2.5Z"/><path class="g" d="M21.15,3.39A.92.92,0,0,0,21,2.82l-.37.83s0,2.78,0,3-.27.85-.81.86a2.32,2.32,0,0,1-1-.22s.54.63.82.63a1.52,1.52,0,0,0,.88-.21,1.57,1.57,0,0,0,.6-.81C21.16,6.59,21.16,3.77,21.15,3.39Z"/><polygon class="g" points="9.95 4.82 10.35 3.43 8.17 6.79 8.69 6.63 9.95 4.82"/><path class="g" d="M8.72,5.12l0-1.76a.44.44,0,0,1,.47-.42,1.15,1.15,0,0,1,.6.1.73.73,0,0,0-.9-.54c-.46.06-.67.77-.67.77l0,2.5Z"/><path class="g" d="M10.88,3.3a1,1,0,0,0-.17-.57l-.37.82s0,2.78,0,3.05-.26.84-.81.86a2.3,2.3,0,0,1-1-.23s.55.64.83.64a1.47,1.47,0,0,0,.88-.22,1.54,1.54,0,0,0,.6-.81C10.89,6.49,10.89,3.68,10.88,3.3Z"/><rect class="h" width="24" height="24"/></g></svg>