<svg xmlns="http://www.w3.org/2000/svg" xmlns:xlink="http://www.w3.org/1999/xlink" viewBox="0 0 24 24"><defs><style>.a{isolation:isolate;}.b{fill:url(#a);}.c{fill:#999;}.d{fill:url(#b);}.e{fill:#a5a5a5;}.f{fill:url(#c);}.g{fill:url(#d);}.h{fill:url(#e);}.i{fill:url(#f);}.j{fill:url(#g);}.k{fill:url(#h);}.l{fill:url(#i);}.m{fill:url(#j);}.n{fill:url(#k);}.o{fill:url(#l);}.p{fill:#1225d8;opacity:0.1;mix-blend-mode:multiply;}.q{fill:url(#m);}.r{fill:url(#n);}.s{fill:url(#o);}.t{fill:url(#p);}.u{mix-blend-mode:overlay;fill:url(#q);}.v{fill:url(#r);}.w{fill:url(#s);}.x{fill:url(#t);}.y{fill:url(#u);}.z{fill:url(#v);}.aa{fill:url(#w);}.ab{fill:url(#x);}.ac{fill:url(#y);}.ad{fill:url(#z);}.ae,.ah{opacity:0.8;}.ae{fill:url(#aa);}.af,.ag,.ai,.aj{opacity:0.51;}.af{fill:url(#ab);}.ag{fill:url(#ac);}.ah{fill:url(#ad);}.ai{fill:url(#ae);}.aj{fill:url(#af);}.ak{fill:none;}</style><radialGradient id="a" cx="11.88" cy="18.78" r="7.84" gradientTransform="translate(0 10.31) scale(1 0.45)" gradientUnits="userSpaceOnUse"><stop offset="0.89" stop-opacity="0.3"/><stop offset="0.95" stop-opacity="0"/></radialGradient><radialGradient id="b" cx="11.88" cy="17.22" r="8.17" gradientTransform="translate(0 7.51) scale(1 0.56)" gradientUnits="userSpaceOnUse"><stop offset="0.91" stop-opacity="0"/><stop offset="1" stop-color="#232323" stop-opacity="0.2"/></radialGradient><radialGradient id="c" cx="11.88" cy="17.22" r="7.82" gradientUnits="userSpaceOnUse"><stop offset="0.29" stop-color="#fff" stop-opacity="0.3"/><stop offset="1" stop-color="#a5a5a5" stop-opacity="0"/></radialGradient><radialGradient id="d" cx="11.88" cy="16.28" r="7.75" gradientTransform="translate(0 8.46) scale(1 0.48)" gradientUnits="userSpaceOnUse"><stop offset="0.47" stop-color="#a5a5a5" stop-opacity="0"/><stop offset="0.76" stop-color="#acacac" stop-opacity="0.01"/><stop offset="0.86" stop-color="#c4c4c4" stop-opacity="0.03"/><stop offset="0.93" stop-color="#ededed" stop-opacity="0.08"/><stop offset="0.95" stop-color="#fff" stop-opacity="0.1"/><stop offset="1" stop-color="#999" stop-opacity="0"/></radialGradient><radialGradient id="e" cx="11.88" cy="16.25" r="7.84" gradientTransform="translate(0 8.92) scale(1 0.45)" xlink:href="#a"/><radialGradient id="f" cx="11.88" cy="14.73" r="8.17" gradientTransform="translate(0 6.42) scale(1 0.56)" xlink:href="#b"/><radialGradient id="g" cx="11.88" cy="14.73" r="7.82" xlink:href="#c"/><radialGradient id="h" cx="11.88" cy="13.79" r="7.75" gradientTransform="translate(0 7.17) scale(1 0.48)" xlink:href="#d"/><radialGradient id="i" cx="11.88" cy="13.79" r="7.84" gradientTransform="translate(0 7.57) scale(1 0.45)" xlink:href="#a"/><radialGradient id="j" cx="11.88" cy="12.23" r="8.17" gradientTransform="translate(0 5.33) scale(1 0.56)" xlink:href="#b"/><radialGradient id="k" cx="11.88" cy="12.23" r="7.82" xlink:href="#c"/><radialGradient id="l" cx="11.88" cy="11.29" r="7.75" gradientTransform="translate(0 5.87) scale(1 0.48)" xlink:href="#d"/><radialGradient id="m" cx="11.88" cy="11.29" r="7.75" gradientTransform="translate(0 5.87) scale(1 0.48)" gradientUnits="userSpaceOnUse"><stop offset="0.47" stop-color="#e88f23" stop-opacity="0.2"/><stop offset="0.7" stop-color="#e58f28" stop-opacity="0.19"/><stop offset="0.78" stop-color="#d99139" stop-opacity="0.16"/><stop offset="0.84" stop-color="#c59357" stop-opacity="0.11"/><stop offset="0.89" stop-color="#a99782" stop-opacity="0.04"/><stop offset="0.91" stop-color="#999" stop-opacity="0"/></radialGradient><radialGradient id="n" cx="12.13" cy="15.58" r="11.72" gradientTransform="matrix(-0.01, -1, 0.74, -0.01, 0.62, 27.8)" gradientUnits="userSpaceOnUse"><stop offset="0.1" stop-color="#ed7032"/><stop offset="0.45" stop-color="#ec6e31"/><stop offset="0.58" stop-color="#e8672d"/><stop offset="0.67" stop-color="#e05c27"/><stop offset="0.74" stop-color="#d64b1d"/><stop offset="0.8" stop-color="#c93511"/><stop offset="0.83" stop-color="#c1280a"/></radialGradient><radialGradient id="o" cx="12.66" cy="11.87" r="5.82" gradientUnits="userSpaceOnUse"><stop offset="0" stop-color="#edc33e"/><stop offset="0.39" stop-color="#edc13d"/><stop offset="0.53" stop-color="#edba3c"/><stop offset="0.63" stop-color="#eeaf38"/><stop offset="0.71" stop-color="#ee9e34"/><stop offset="0.76" stop-color="#ef8f30"/></radialGradient><radialGradient id="p" cx="12" cy="9.79" r="2.04" gradientTransform="translate(0 -1.62) scale(1 1.17)" gradientUnits="userSpaceOnUse"><stop offset="0" stop-color="#f7ebcd"/><stop offset="0.18" stop-color="#f7eacb"/><stop offset="0.25" stop-color="#f8e8c4"/><stop offset="0.3" stop-color="#f9e5b9"/><stop offset="0.34" stop-color="#fbe0a8"/><stop offset="0.35" stop-color="#fcdea2"/><stop offset="0.47" stop-color="#fcdd9f"/><stop offset="0.55" stop-color="#fadb97"/><stop offset="0.62" stop-color="#f8d788"/><stop offset="0.69" stop-color="#f5d172"/><stop offset="0.75" stop-color="#f1ca57"/><stop offset="0.79" stop-color="#edc33e"/></radialGradient><linearGradient id="q" x1="11.93" y1="3.82" x2="12.01" y2="12.01" gradientUnits="userSpaceOnUse"><stop offset="0.06" stop-color="#fff" stop-opacity="0.4"/><stop offset="0.4" stop-color="#fff" stop-opacity="0.39"/><stop offset="0.52" stop-color="#fff" stop-opacity="0.37"/><stop offset="0.61" stop-color="#fff" stop-opacity="0.32"/><stop offset="0.68" stop-color="#fff" stop-opacity="0.25"/><stop offset="0.73" stop-color="#fff" stop-opacity="0.17"/><stop offset="0.79" stop-color="#fff" stop-opacity="0.06"/><stop offset="0.81" stop-color="#fff" stop-opacity="0"/></linearGradient><radialGradient id="r" cx="5.21" cy="13.86" r="0.45" gradientTransform="translate(2.63 -7.54) rotate(7.12) scale(1 1.51)" gradientUnits="userSpaceOnUse"><stop offset="0.89" stop-opacity="0.2"/><stop offset="1" stop-opacity="0"/></radialGradient><radialGradient id="s" cx="5.11" cy="13.8" r="0.39" gradientTransform="matrix(0.99, 0.12, -0.21, 1.72, 3, -10.53)" gradientUnits="userSpaceOnUse"><stop offset="0" stop-color="#ffe969"/><stop offset="0.24" stop-color="#fee767"/><stop offset="0.39" stop-color="#fcde61"/><stop offset="0.5" stop-color="#f9d055"/><stop offset="0.61" stop-color="#f4bc46"/><stop offset="0.7" stop-color="#eea231"/><stop offset="0.78" stop-color="#e78318"/><stop offset="0.8" stop-color="#e57c13"/></radialGradient><radialGradient id="t" cx="5.09" cy="13.78" r="0.4" gradientTransform="matrix(1, 0.05, -0.07, 1.5, 1, -7.19)" gradientUnits="userSpaceOnUse"><stop offset="0.92" stop-color="#fff" stop-opacity="0"/><stop offset="0.92" stop-color="#fefefe" stop-opacity="0.01"/><stop offset="0.93" stop-color="#fcfcfc" stop-opacity="0.05"/><stop offset="0.93" stop-color="#f8f8f8" stop-opacity="0.13"/><stop offset="0.93" stop-color="#f2f2f2" stop-opacity="0.23"/><stop offset="0.93" stop-color="#ebebeb" stop-opacity="0.36"/><stop offset="0.93" stop-color="#e1e1e1" stop-opacity="0.52"/><stop offset="0.94" stop-color="#d6d6d6" stop-opacity="0.71"/><stop offset="0.94" stop-color="#cacaca" stop-opacity="0.93"/><stop offset="0.94" stop-color="#c6c6c6"/></radialGradient><radialGradient id="u" cx="5.21" cy="16.34" r="0.45" gradientTransform="matrix(0.99, 0.12, -0.19, 1.5, 3.1, -8.77)" xlink:href="#r"/><radialGradient id="v" cx="5.11" cy="16.28" r="0.39" gradientTransform="translate(3.53 -12.31) rotate(7.12) scale(1 1.73)" xlink:href="#s"/><radialGradient id="w" cx="5.09" cy="16.26" r="0.4" gradientTransform="translate(1.17 -8.44) rotate(2.74) scale(1 1.51)" xlink:href="#t"/><radialGradient id="x" cx="5.21" cy="18.82" r="0.45" gradientTransform="translate(3.56 -10.01) rotate(7.12) scale(1 1.51)" xlink:href="#r"/><radialGradient id="y" cx="5.11" cy="18.76" r="0.39" gradientTransform="matrix(0.99, 0.12, -0.21, 1.72, 4.06, -14.09)" xlink:href="#s"/><radialGradient id="z" cx="5.09" cy="18.74" r="0.4" gradientTransform="translate(1.35 -9.69) rotate(2.74) scale(1 1.51)" xlink:href="#t"/><radialGradient id="aa" cx="-1394.48" cy="19.16" r="3.19" gradientTransform="matrix(-1, 0, 0, 1, -1390.46, 0)" gradientUnits="userSpaceOnUse"><stop offset="0.38" stop-color="#fff"/><stop offset="0.8" stop-color="#fff" stop-opacity="0"/></radialGradient><radialGradient id="ab" cx="-1397.52" cy="20.75" r="3.19" xlink:href="#aa"/><radialGradient id="ac" cx="-1393.72" cy="17.67" r="3.19" xlink:href="#aa"/><radialGradient id="ad" cx="19.34" cy="19.2" r="3.19" gradientTransform="matrix(1, 0, 0, 1, 0, 0)" xlink:href="#aa"/><radialGradient id="ae" cx="16.52" cy="20.64" r="3.19" gradientTransform="matrix(1, 0, 0, 1, 0, 0)" xlink:href="#aa"/><radialGradient id="af" cx="20.57" cy="17.71" r="3.19" gradientTransform="matrix(1, 0, 0, 1, 0, 0)" xlink:href="#aa"/></defs><g class="a"><ellipse class="b" cx="11.88" cy="18.78" rx="7.61" ry="3.58"/><path class="c" d="M4.27,16.28c0-2,3.41-3.58,7.61-3.58s7.6,1.6,7.6,3.58h0v1.89h0c0,2-3.4,3.58-7.6,3.58s-7.61-1.61-7.61-3.58V16.27Z"/><path class="d" d="M4.27,16.28c0-2,3.41-3.58,7.61-3.58s7.6,1.6,7.6,3.58h0v1.89h0c0,2-3.4,3.58-7.6,3.58s-7.61-1.61-7.61-3.58V16.27Z"/><ellipse class="e" cx="11.88" cy="16.28" rx="7.61" ry="3.58"/><path class="f" d="M4.27,16.28c0-2,3.41-3.58,7.61-3.58s7.6,1.6,7.6,3.58h0v1.89h0c0,2-3.4,3.58-7.6,3.58s-7.61-1.61-7.61-3.58V16.27Z"/><ellipse class="g" cx="11.88" cy="16.28" rx="7.61" ry="3.58"/><ellipse class="h" cx="11.88" cy="16.25" rx="7.61" ry="3.58"/><path class="c" d="M4.27,13.79c0-2,3.41-3.59,7.61-3.59s7.6,1.61,7.6,3.59h0v1.88h0c0,2-3.4,3.59-7.6,3.59s-7.61-1.61-7.61-3.59V13.78Z"/><path class="i" d="M4.27,13.79c0-2,3.41-3.59,7.61-3.59s7.6,1.61,7.6,3.59h0v1.88h0c0,2-3.4,3.59-7.6,3.59s-7.61-1.61-7.61-3.59V13.78Z"/><ellipse class="e" cx="11.88" cy="13.79" rx="7.61" ry="3.58"/><path class="j" d="M4.27,13.79c0-2,3.41-3.59,7.61-3.59s7.6,1.61,7.6,3.59h0v1.88h0c0,2-3.4,3.59-7.6,3.59s-7.61-1.61-7.61-3.59V13.78Z"/><ellipse class="k" cx="11.88" cy="13.79" rx="7.61" ry="3.58"/><ellipse class="l" cx="11.88" cy="13.79" rx="7.61" ry="3.58"/><path class="c" d="M4.27,11.29c0-2,3.41-3.58,7.61-3.58s7.6,1.61,7.6,3.58h0v1.88h0c0,2-3.4,3.58-7.6,3.58s-7.61-1.6-7.61-3.58V11.29Z"/><path class="m" d="M4.27,11.29c0-2,3.41-3.58,7.61-3.58s7.6,1.61,7.6,3.58h0v1.88h0c0,2-3.4,3.58-7.6,3.58s-7.61-1.6-7.61-3.58V11.29Z"/><ellipse class="e" cx="11.88" cy="11.29" rx="7.61" ry="3.58"/><path class="n" d="M4.27,11.29c0-2,3.41-3.58,7.61-3.58s7.6,1.61,7.6,3.58h0v1.88h0c0,2-3.4,3.58-7.6,3.58s-7.61-1.6-7.61-3.58V11.29Z"/><ellipse class="o" cx="11.88" cy="11.29" rx="7.61" ry="3.58"/><path class="p" d="M19.49,13.17V11.29h0c0-2-3.4-3.58-7.6-3.58S4.27,9.32,4.27,11.29v1.88a3,3,0,0,0,0,.31,3,3,0,0,0,0,.31v1.87c0,.1,0,.2,0,.3a2.58,2.58,0,0,0,0,.29h0v1.9c0,2,3.41,3.58,7.61,3.58s7.6-1.61,7.6-3.58h0V16.27h0v0h0a1.36,1.36,0,0,0,0-.29,1.53,1.53,0,0,0,0-.3h0V13.78h0a1.55,1.55,0,0,0,0-.31,1.55,1.55,0,0,0,0-.31Z"/><ellipse class="q" cx="11.88" cy="11.29" rx="7.61" ry="3.58"/><path class="r" d="M12.13,12.09c-3.05,0-3.32-1-3.32-1a2.91,2.91,0,0,1-1.4-2.2,3.56,3.56,0,0,1,1.33-2.4s1,.47,1.19-.3a6.74,6.74,0,0,1,.85-1.77.52.52,0,0,0,.66-.06C11.81,4,11.63,2,11.63,2A5.56,5.56,0,0,1,15,5.42c.29.78-.34,1.81.23,1.81s.62-.69.62-.69A2.94,2.94,0,0,1,16.16,10a7.83,7.83,0,0,1-1,1.14S14.93,12.09,12.13,12.09Z"/><path class="s" d="M12.1,12.09c-2.25,0-2.45-.75-2.45-.75a2.14,2.14,0,0,1-1-1.62A2.6,2.6,0,0,1,9.6,8s.72.34.88-.23a4.86,4.86,0,0,1,.62-1.3.38.38,0,0,0,.49,0c.27-.23.13-1.73.13-1.73A4.1,4.1,0,0,1,14.2,7.18c.21.57-.25,1.33.17,1.33s.46-.51.46-.51a2.19,2.19,0,0,1,.23,2.55,5.92,5.92,0,0,1-.72.84S14.16,12.09,12.1,12.09Z"/><path class="t" d="M12.06,12.09a2.61,2.61,0,0,1-1.86-.5s.35,0,.35,0a1.33,1.33,0,0,1-.64-1,1.61,1.61,0,0,1,.6-1.09s.45.21.55-.14a3.2,3.2,0,0,1,.38-.8.24.24,0,0,0,.31,0c.16-.14.08-1.07.08-1.07a2.53,2.53,0,0,1,1.53,1.56c.13.35-.15.82.11.82s.28-.31.28-.31a1.34,1.34,0,0,1,.15,1.57,3.69,3.69,0,0,1-.45.52,2.19,2.19,0,0,1,.39-.06A2.48,2.48,0,0,1,12.06,12.09Z"/><path class="u" d="M12.12,12.09c-2.9,0-3.16-1-3.16-1A3.26,3.26,0,0,1,7.54,8.87a3.22,3.22,0,0,1,1.2-2.23s1.09.55,1.29-.19a6.52,6.52,0,0,1,.81-1.68.49.49,0,0,0,.63-.06c.35-.29.35-2,.52-2.25s1.92.68,2.86,3.28c.27.74-.33,1.72.22,1.72s.8-.63.8-.63A2.93,2.93,0,0,1,16,10.09,7.57,7.57,0,0,1,15,11.18S14.79,12.09,12.12,12.09Z"/><ellipse class="v" cx="5.21" cy="13.86" rx="0.48" ry="0.68" transform="translate(-1.68 0.75) rotate(-7.12)"/><ellipse class="w" cx="5.11" cy="13.8" rx="0.41" ry="0.59" transform="translate(-1.67 0.74) rotate(-7.12)"/><ellipse class="x" cx="5.12" cy="13.78" rx="0.43" ry="0.61" transform="translate(-1.67 0.74) rotate(-7.12)"/><ellipse class="y" cx="5.21" cy="16.34" rx="0.48" ry="0.68" transform="translate(-1.99 0.77) rotate(-7.12)"/><ellipse class="z" cx="5.11" cy="16.28" rx="0.41" ry="0.59" transform="translate(-1.98 0.76) rotate(-7.12)"/><ellipse class="aa" cx="5.12" cy="16.26" rx="0.43" ry="0.61" transform="translate(-1.98 0.76) rotate(-7.12)"/><ellipse class="ab" cx="5.21" cy="18.82" rx="0.48" ry="0.68" transform="translate(-2.29 0.79) rotate(-7.12)"/><ellipse class="ac" cx="5.11" cy="18.76" rx="0.41" ry="0.59" transform="translate(-2.29 0.78) rotate(-7.12)"/><ellipse class="ad" cx="5.12" cy="18.74" rx="0.43" ry="0.61" transform="translate(-2.28 0.78) rotate(-7.12)"/><circle class="ae" cx="4.02" cy="19.16" r="3.19"/><circle class="af" cx="7.05" cy="20.75" r="3.19"/><circle class="ag" cx="3.26" cy="17.67" r="3.19"/><circle class="ah" cx="19.34" cy="19.2" r="3.19"/><circle class="ai" cx="16.52" cy="20.64" r="3.19"/><circle class="aj" cx="20.57" cy="17.71" r="3.19"/><rect class="ak" width="24" height="24"/></g></svg>