<svg xmlns="http://www.w3.org/2000/svg" viewBox="0 0 24 24"><defs><style>.a{fill:#050a28;}.b{fill:none;}</style></defs><path class="a" d="M4.35,9.12H4.19a1.49,1.49,0,0,0-1.07.38,1.43,1.43,0,0,0-.4,1.1v2.88a1.47,1.47,0,0,0,.4,1.11A1.52,1.52,0,0,0,4.19,15h.16a1.48,1.48,0,0,0,1.06-.38,1.47,1.47,0,0,0,.41-1.11V10.6a1.47,1.47,0,0,0-.4-1.1A1.49,1.49,0,0,0,4.35,9.12Zm-.7,3.1V10.45a.46.46,0,0,1,.15-.34A.56.56,0,0,1,4.19,10h.16a.56.56,0,0,1,.39.14.48.48,0,0,1,.15.31Zm1.24-.34v1.76a.43.43,0,0,1-.15.33.53.53,0,0,1-.39.15H4.19A.53.53,0,0,1,3.8,14a.44.44,0,0,1-.15-.3Z"/><polygon class="a" points="9.09 9.12 7.92 9.56 7.92 10.47 9.05 10.06 9.05 14.12 8 14.12 8 14.97 10.85 14.97 10.85 14.12 9.98 14.12 9.98 9.12 9.09 9.12"/><path class="a" d="M14.59,9.12h-.16a1.49,1.49,0,0,0-1.07.38,1.43,1.43,0,0,0-.4,1.1v2.88a1.47,1.47,0,0,0,.4,1.11,1.52,1.52,0,0,0,1.07.38h.16a1.37,1.37,0,0,0,1.47-1.49V10.6a1.47,1.47,0,0,0-.4-1.1A1.49,1.49,0,0,0,14.59,9.12Zm-.7,3.1V10.45a.46.46,0,0,1,.15-.34.56.56,0,0,1,.39-.14h.16a.56.56,0,0,1,.39.14.48.48,0,0,1,.15.31Zm1.24-.34v1.76A.43.43,0,0,1,15,14a.53.53,0,0,1-.39.15h-.16A.53.53,0,0,1,14,14a.44.44,0,0,1-.15-.3Z"/><polygon class="a" points="19.33 9.12 18.16 9.56 18.16 10.47 19.29 10.06 19.29 14.12 18.24 14.12 18.24 14.97 21.09 14.97 21.09 14.12 20.22 14.12 20.22 9.12 19.33 9.12"/><polygon class="a" points="4.86 16.13 3.97 16.13 2.8 16.57 2.8 17.48 3.93 17.07 3.93 21.13 2.88 21.13 2.88 21.98 5.73 21.98 5.73 21.13 4.86 21.13 4.86 16.13"/><path class="a" d="M9.47,16.13H9.31a1.49,1.49,0,0,0-1.07.38,1.44,1.44,0,0,0-.4,1.11V20.5a1.46,1.46,0,0,0,.4,1.1A1.52,1.52,0,0,0,9.31,22h.16a1.48,1.48,0,0,0,1.06-.38,1.46,1.46,0,0,0,.41-1.1V17.62a1.35,1.35,0,0,0-1.47-1.49Zm-.7,3.1V17.46a.43.43,0,0,1,.15-.33A.53.53,0,0,1,9.31,17h.16a.53.53,0,0,1,.39.15.44.44,0,0,1,.15.3ZM10,18.89v1.76a.46.46,0,0,1-.15.34.56.56,0,0,1-.39.14H9.31A.56.56,0,0,1,8.92,21a.48.48,0,0,1-.15-.3Z"/><polygon class="a" points="15.1 16.13 14.21 16.13 13.04 16.57 13.04 17.48 14.17 17.07 14.17 21.13 13.12 21.13 13.12 21.98 15.97 21.98 15.97 21.13 15.1 21.13 15.1 16.13"/><path class="a" d="M19.71,16.13h-.16a1.49,1.49,0,0,0-1.07.38,1.44,1.44,0,0,0-.4,1.11V20.5a1.46,1.46,0,0,0,.4,1.1,1.52,1.52,0,0,0,1.07.38h.16a1.48,1.48,0,0,0,1.06-.38,1.46,1.46,0,0,0,.41-1.1V17.62a1.35,1.35,0,0,0-1.47-1.49Zm-.7,3.1V17.46a.43.43,0,0,1,.15-.33.53.53,0,0,1,.39-.15h.16a.53.53,0,0,1,.39.15.39.39,0,0,1,.14.3Zm1.24-.34v1.76a.46.46,0,0,1-.15.34.58.58,0,0,1-.39.14h-.16a.56.56,0,0,1-.39-.14.48.48,0,0,1-.15-.3Z"/><polygon class="a" points="3.93 7.11 2.88 7.11 2.88 7.96 5.73 7.96 5.73 7.11 4.86 7.11 4.86 2.11 3.97 2.11 2.8 2.55 2.8 3.46 3.93 3.05 3.93 7.11"/><path class="a" d="M9.47,2.11H9.31a1.49,1.49,0,0,0-1.07.38,1.43,1.43,0,0,0-.4,1.1V6.47a1.47,1.47,0,0,0,.4,1.11A1.52,1.52,0,0,0,9.31,8h.16a1.48,1.48,0,0,0,1.06-.38,1.47,1.47,0,0,0,.41-1.11V3.59a1.47,1.47,0,0,0-.4-1.1A1.49,1.49,0,0,0,9.47,2.11Zm-.7,3.1V3.44a.46.46,0,0,1,.15-.34A.56.56,0,0,1,9.31,3h.16a.56.56,0,0,1,.39.14.48.48,0,0,1,.15.31ZM10,4.87V6.63A.43.43,0,0,1,9.86,7a.53.53,0,0,1-.39.15H9.31A.53.53,0,0,1,8.92,7a.44.44,0,0,1-.15-.3Z"/><polygon class="a" points="14.17 7.11 13.12 7.11 13.12 7.96 15.97 7.96 15.97 7.11 15.1 7.11 15.1 2.11 14.21 2.11 13.04 2.55 13.04 3.46 14.17 3.05 14.17 7.11"/><path class="a" d="M20.78,2.49h0a1.49,1.49,0,0,0-1.07-.38h-.16a1.49,1.49,0,0,0-1.07.38,1.43,1.43,0,0,0-.4,1.1V6.47a1.47,1.47,0,0,0,.4,1.11A1.52,1.52,0,0,0,19.55,8h.16a1.48,1.48,0,0,0,1.06-.38,1.47,1.47,0,0,0,.41-1.11V3.59A1.47,1.47,0,0,0,20.78,2.49ZM19,5.21V3.44a.46.46,0,0,1,.15-.34A.56.56,0,0,1,19.55,3h.16a.56.56,0,0,1,.39.14.43.43,0,0,1,.14.31Zm1.24-.34V6.63A.43.43,0,0,1,20.1,7a.54.54,0,0,1-.39.15h-.16A.53.53,0,0,1,19.16,7a.44.44,0,0,1-.15-.3Z"/><rect class="b" width="24" height="24"/></svg>