<svg xmlns="http://www.w3.org/2000/svg" xmlns:xlink="http://www.w3.org/1999/xlink" viewBox="0 0 24 24"><defs><style>.a{isolation:isolate;}.b{fill:#0a0a2b;}.c{opacity:0.45;fill:url(#a);}.d{fill:url(#b);}.e{fill:url(#c);}.f{fill:url(#d);}.g{fill:url(#e);}.h,.i,.j,.k,.l,.m,.n,.o{mix-blend-mode:multiply;}.h{fill:url(#f);}.i{fill:url(#g);}.j{fill:url(#h);}.k{fill:url(#i);}.l{fill:url(#j);}.m{fill:url(#k);}.n{fill:url(#l);}.o{fill:url(#m);}.p{opacity:0.14;}.q{fill:url(#n);}.r{fill:url(#o);}.s{opacity:0.22;fill:url(#p);}.t{fill:none;}</style><radialGradient id="a" cx="12" cy="13.02" r="7.82" gradientUnits="userSpaceOnUse"><stop offset="0.79"/><stop offset="0.81" stop-opacity="0.67"/><stop offset="1" stop-opacity="0"/></radialGradient><linearGradient id="b" x1="11.95" y1="3.85" x2="11.95" y2="15.45" gradientUnits="userSpaceOnUse"><stop offset="0.07" stop-color="#110086"/><stop offset="0.14" stop-color="#1a2998"/><stop offset="0.23" stop-color="#2350aa"/><stop offset="0.32" stop-color="#2a72b9"/><stop offset="0.42" stop-color="#308dc6"/><stop offset="0.53" stop-color="#35a3cf"/><stop offset="0.65" stop-color="#38b2d6"/><stop offset="0.79" stop-color="#3abada"/><stop offset="1" stop-color="#3bbddb"/></linearGradient><radialGradient id="c" cx="11.98" cy="7.24" r="3.14" gradientTransform="translate(0.16 2.73) rotate(2.11) scale(1 0.56)" gradientUnits="userSpaceOnUse"><stop offset="0.42" stop-color="#af37e2" stop-opacity="0.6"/><stop offset="0.92" stop-color="#51e038" stop-opacity="0.1"/></radialGradient><radialGradient id="d" cx="13.74" cy="5.29" fx="29.887895362729324" r="19.8" gradientUnits="userSpaceOnUse"><stop offset="0.1" stop-color="#670fce"/><stop offset="0.15" stop-color="#861cd2"/><stop offset="0.21" stop-color="#a127d6"/><stop offset="0.27" stop-color="#b72fd9"/><stop offset="0.34" stop-color="#c635db"/><stop offset="0.42" stop-color="#ce39dd"/><stop offset="0.55" stop-color="#d13add"/><stop offset="0.56" stop-color="#d548db"/><stop offset="0.59" stop-color="#dd63d7"/><stop offset="0.63" stop-color="#e479d4"/><stop offset="0.67" stop-color="#e98ad1"/><stop offset="0.72" stop-color="#ec95cf"/><stop offset="0.8" stop-color="#ee9cce"/><stop offset="1" stop-color="#ef9ece"/></radialGradient><radialGradient id="e" cx="11.31" cy="7.36" fx="24.167123885202223" r="19.41" xlink:href="#d"/><radialGradient id="f" cx="13.74" cy="5.29" fx="29.887895362729324" r="19.8" gradientUnits="userSpaceOnUse"><stop offset="0.1" stop-color="#670fce"/><stop offset="0.18" stop-color="#8832ce"/><stop offset="0.28" stop-color="#a853ce"/><stop offset="0.38" stop-color="#c26ece"/><stop offset="0.5" stop-color="#d684ce"/><stop offset="0.62" stop-color="#e493ce"/><stop offset="0.77" stop-color="#ec9bce"/><stop offset="1" stop-color="#ef9ece"/></radialGradient><radialGradient id="g" cx="11.31" cy="7.36" fx="24.167123885202223" r="19.41" xlink:href="#f"/><radialGradient id="h" cx="13.74" cy="5.29" fx="29.887895362729324" r="19.8" gradientUnits="userSpaceOnUse"><stop offset="0.04" stop-color="#670fce"/><stop offset="0.11" stop-color="#670fce"/><stop offset="0.19" stop-color="#8832ce"/><stop offset="0.29" stop-color="#a853ce"/><stop offset="0.39" stop-color="#c26ece"/><stop offset="0.5" stop-color="#d684ce"/><stop offset="0.63" stop-color="#e493ce"/><stop offset="0.78" stop-color="#ec9bce"/><stop offset="1" stop-color="#ef9ece"/></radialGradient><radialGradient id="i" cx="11.31" cy="7.36" fx="24.167123885202223" r="19.41" xlink:href="#h"/><radialGradient id="j" cx="13.74" cy="5.86" fx="25.513189481850077" r="14.43" xlink:href="#h"/><radialGradient id="k" cx="11.31" cy="7.36" fx="21.55650852166201" r="15.47" xlink:href="#h"/><radialGradient id="l" cx="13.66" cy="6.42" fx="21.18927094744969" r="9.23" xlink:href="#h"/><radialGradient id="m" cx="11.34" cy="7.35" fx="19.174207082698562" r="11.83" xlink:href="#h"/><radialGradient id="n" cx="13.87" cy="8.8" r="12.39" gradientUnits="userSpaceOnUse"><stop offset="0.34" stop-color="#fff"/><stop offset="0.34" stop-color="#fff" stop-opacity="0.99"/><stop offset="0.4" stop-color="#fff" stop-opacity="0.78"/><stop offset="0.45" stop-color="#fff" stop-opacity="0.6"/><stop offset="0.51" stop-color="#fff" stop-opacity="0.44"/><stop offset="0.57" stop-color="#fff" stop-opacity="0.3"/><stop offset="0.64" stop-color="#fff" stop-opacity="0.19"/><stop offset="0.71" stop-color="#fff" stop-opacity="0.11"/><stop offset="0.78" stop-color="#fff" stop-opacity="0.05"/><stop offset="0.87" stop-color="#fff" stop-opacity="0.01"/><stop offset="1" stop-color="#fff" stop-opacity="0"/></radialGradient><radialGradient id="o" cx="-1655.75" cy="8.8" r="12.39" gradientTransform="matrix(-1, 0, 0, 1, -1645.58, 0)" xlink:href="#n"/><radialGradient id="p" cx="15.05" cy="11.19" r="3.17" gradientUnits="userSpaceOnUse"><stop offset="0.38" stop-color="#fff" stop-opacity="0.6"/><stop offset="0.8" stop-color="#fff" stop-opacity="0"/></radialGradient></defs><g class="a"><path class="b" d="M15.69,7.27a2.14,2.14,0,0,1-.18-.44l.21-.32a8.9,8.9,0,0,1,.58-.79c.2-.25.41-.5.64-.74l.27-.26a2.32,2.32,0,0,1,.46.07c0,.13,0,.25,0,.37v.1l-.23.24c-.22.22-.41.45-.61.69a7.54,7.54,0,0,0-.53.73l-.19.29h0Z"/><path class="b" d="M8.43,7.42,8,7.36H8L7.8,7.13a8.41,8.41,0,0,0-.61-.84,8.72,8.72,0,0,0-.64-.71L6.3,5.33V5.22c0-.12,0-.25,0-.38l.48-.07.29.29a9.83,9.83,0,0,1,.67.76c.21.26.41.53.61.82L8.6,7A3,3,0,0,1,8.43,7.42Z"/><path class="b" d="M20,12l-.5-.32a9.33,9.33,0,0,1-1-.88,8.57,8.57,0,0,1-.89-1l-.34-.49a2.56,2.56,0,0,1,.1-.54l.54.14c.07.12.16.24.24.35a8.53,8.53,0,0,0,.88,1,8.58,8.58,0,0,0,.95.8,4.55,4.55,0,0,0,.43.28c0,.09.13.44.16.53A4.12,4.12,0,0,1,20,12Z"/><path class="b" d="M4,12a4.12,4.12,0,0,1-.53-.12c0-.09.14-.44.16-.53a4.17,4.17,0,0,0,.44-.29A8.21,8.21,0,0,0,5,10.31a8.12,8.12,0,0,0,.82-.94,3.45,3.45,0,0,0,.3-.43l.54-.14a2.56,2.56,0,0,1,.1.54l-.35.49a7.68,7.68,0,0,1-.88,1,8.27,8.27,0,0,1-1,.87A5.39,5.39,0,0,1,4,12Z"/><path class="b" d="M19.88,19.2a3.6,3.6,0,0,1-.55-.07,4.14,4.14,0,0,1-.34-.48,7.52,7.52,0,0,1-.67-1.18,9.6,9.6,0,0,1-.48-1.26l-.15-.58a3.24,3.24,0,0,1,.28-.47l.46.32a2.09,2.09,0,0,0,.11.43A7.69,7.69,0,0,0,19,17.15a6.59,6.59,0,0,0,.61,1.08,4,4,0,0,0,.3.42C19.9,18.74,19.88,19.11,19.88,19.2Z"/><path class="b" d="M4.09,18.65l.31-.42A7.39,7.39,0,0,0,5,17.15,6.76,6.76,0,0,0,5.44,16c.06-.21.11-.36.14-.51L6,15.16a3.24,3.24,0,0,1,.28.47l-.15.58a9.6,9.6,0,0,1-.48,1.26A8.37,8.37,0,0,1,5,18.65a5.92,5.92,0,0,1-.35.48,3.6,3.6,0,0,1-.55.07C4.12,19.11,4.1,18.74,4.09,18.65Z"/><path class="c" d="M19,11.94v0a3.51,3.51,0,0,0-.52-1.82A11.55,11.55,0,0,0,18,8.93a8.93,8.93,0,0,0-.64-1.26.52.52,0,0,0-.24,0,.62.62,0,0,0-.42-.08h0A5.26,5.26,0,0,0,12.06,5.3,5.88,5.88,0,0,0,7.3,7.59a.68.68,0,0,0-.37.07.47.47,0,0,0-.23,0,7.43,7.43,0,0,0-.44.81,9.79,9.79,0,0,0-1.4,4.73c-.06,3.28,1.47,6.93,3.75,7.36a34.9,34.9,0,0,0,6.78,0c2.28-.43,3.81-4.08,3.75-7.36A7.49,7.49,0,0,0,19,11.94Z"/><path class="d" d="M7.73,7.51a5.19,5.19,0,0,1,4.32-2.18,4.67,4.67,0,0,1,4.11,2L12,10.5Z"/><path class="e" d="M8.08,8.35a5.87,5.87,0,0,1,.73-1.12A4.23,4.23,0,0,1,12,5.45a4.1,4.1,0,0,1,3.15,1.66,5.47,5.47,0,0,1,.7,1.1L12.12,9Z"/><path class="f" d="M7.93,7.38a.66.66,0,0,0-.7.28,8.85,8.85,0,0,0-1.56,4.7C5.62,15.27,7,18.5,9,18.88c1,.18,1.74.28,2.24.33a.7.7,0,0,0,.76-.69l0-9.74a.7.7,0,0,0-.55-.68Z"/><path class="g" d="M16.16,7.36a.53.53,0,0,1,.56.22,9,9,0,0,1,1.61,4.78c.05,2.91-1.3,6.14-3.33,6.52a23.62,23.62,0,0,1-2.41.34.54.54,0,0,1-.59-.55v-10a.54.54,0,0,1,.44-.53Z"/><path class="h" d="M7.93,7.38a.66.66,0,0,0-.7.28,8.85,8.85,0,0,0-1.56,4.7C5.62,15.27,7,18.5,9,18.88c1,.18,1.74.28,2.24.33a.7.7,0,0,0,.76-.69l0-9.74a.7.7,0,0,0-.55-.68Z"/><path class="i" d="M16.16,7.36a.53.53,0,0,1,.56.22,9,9,0,0,1,1.61,4.78c.05,2.91-1.3,6.14-3.33,6.52a23.62,23.62,0,0,1-2.41.34.54.54,0,0,1-.59-.55v-10a.54.54,0,0,1,.44-.53Z"/><path class="j" d="M7.93,7.38a.66.66,0,0,0-.7.28,8.85,8.85,0,0,0-1.56,4.7C5.62,15.27,7,18.5,9,18.88c1,.18,1.74.28,2.24.33a.7.7,0,0,0,.76-.69l0-9.74a.7.7,0,0,0-.55-.68Z"/><path class="k" d="M16.16,7.36a.53.53,0,0,1,.56.22,9,9,0,0,1,1.61,4.78c.05,2.91-1.3,6.14-3.33,6.52a23.62,23.62,0,0,1-2.41.34.54.54,0,0,1-.59-.55v-10a.54.54,0,0,1,.44-.53Z"/><path class="l" d="M12,10.6l0-1.82a.7.7,0,0,0-.55-.68L7.93,7.38a.66.66,0,0,0-.7.28,8.85,8.85,0,0,0-1.56,4.7s1.92,3.34,3.08,3.57S12,10.6,12,10.6Z"/><path class="m" d="M12,10.6V8.66a.54.54,0,0,1,.44-.53l3.73-.77a.53.53,0,0,1,.56.22,9,9,0,0,1,1.61,4.78,18.6,18.6,0,0,1-2.74,3.4C14.67,16.36,12,10.6,12,10.6Z"/><path class="n" d="M12,9.6l0-.82a.7.7,0,0,0-.55-.68L7.93,7.38a.66.66,0,0,0-.7.28A9.29,9.29,0,0,0,6,10.35c-.1.34,1.39,2.68,3.09,2.37C10.38,12.48,12,9.6,12,9.6Z"/><path class="o" d="M12,9.6V8.66a.54.54,0,0,1,.44-.53l3.73-.77a.53.53,0,0,1,.56.22,9.5,9.5,0,0,1,1.37,3,3,3,0,0,1-2.84,1.76C13.66,12,12,9.6,12,9.6Z"/><g class="p"><path class="q" d="M14.79,7.7a10.68,10.68,0,0,1,1.95-.26,10.26,10.26,0,0,1,1.41,5.35c-.07,1.82-5.29,5.42-5.6,5.44a17.84,17.84,0,0,1-.37-3.43V8.52a.33.33,0,0,1,.27-.33Z"/></g><g class="p"><path class="r" d="M9.25,7.7A10.57,10.57,0,0,0,7.3,7.44a10.26,10.26,0,0,0-1.41,5.35c.07,1.82,5.29,5.42,5.6,5.44a17.84,17.84,0,0,0,.37-3.43V8.52a.34.34,0,0,0-.28-.33Z"/></g><circle class="s" cx="15.05" cy="11.19" r="3.17"/><rect class="t" width="24" height="24"/></g></svg>