<svg xmlns="http://www.w3.org/2000/svg" xmlns:xlink="http://www.w3.org/1999/xlink" viewBox="0 0 24 24"><defs><style>.a{fill:#999;}.b{fill:url(#a);}.c{fill:url(#b);}.d{fill:url(#c);}.e{fill:url(#d);}.f{fill:url(#e);}.g,.h,.i{opacity:0.34;}.g{fill:url(#f);}.h{fill:url(#g);}.i{fill:url(#h);}.j{fill:url(#i);}.k{fill:url(#j);}.l{fill:url(#k);}.m{fill:#f4f4f4;}.n{fill:none;}</style><linearGradient id="a" x1="8.08" y1="4.95" x2="9.23" y2="4.95" gradientUnits="userSpaceOnUse"><stop offset="0" stop-color="#fff" stop-opacity="0.3"/><stop offset="0.98" stop-color="#fff" stop-opacity="0"/></linearGradient><linearGradient id="b" x1="14.84" y1="4.95" x2="15.99" y2="4.95" xlink:href="#a"/><linearGradient id="c" x1="11.69" y1="19.72" x2="11.81" y2="19.72" gradientUnits="userSpaceOnUse"><stop offset="0.08" stop-color="#643fcc"/><stop offset="0.9" stop-color="#1225d8"/></linearGradient><linearGradient id="d" x1="10.06" y1="19.74" x2="13.45" y2="19.74" gradientUnits="userSpaceOnUse"><stop offset="0.08" stop-color="#032556"/><stop offset="0.9" stop-color="#050a28"/></linearGradient><linearGradient id="e" x1="5.59" y1="12.93" x2="18.41" y2="12.93" xlink:href="#d"/><linearGradient id="f" x1="7.81" y1="12.94" x2="16.45" y2="12.94" xlink:href="#a"/><linearGradient id="g" x1="9.63" y1="17.09" x2="14.63" y2="17.09" xlink:href="#a"/><linearGradient id="h" x1="6.46" y1="8.51" x2="17.8" y2="8.51" xlink:href="#a"/><radialGradient id="i" cx="16.57" cy="16.62" r="5.38" gradientUnits="userSpaceOnUse"><stop offset="0.65" stop-opacity="0.8"/><stop offset="0.98" stop-opacity="0"/></radialGradient><linearGradient id="j" x1="16.64" y1="11.62" x2="16.64" y2="21.15" gradientUnits="userSpaceOnUse"><stop offset="0.02" stop-color="#ed3800"/><stop offset="1" stop-color="#af0970"/></linearGradient><linearGradient id="k" x1="16.64" y1="12.12" x2="16.64" y2="20.65" gradientUnits="userSpaceOnUse"><stop offset="0" stop-color="#fff" stop-opacity="0.3"/><stop offset="1" stop-color="#fff" stop-opacity="0"/></linearGradient></defs><rect class="a" x="7.87" y="1.93" width="1.36" height="6.05" rx="0.68"/><path class="b" d="M8.65,2a.67.67,0,0,0-.57.66V7.29A.67.67,0,0,0,8.65,8a.67.67,0,0,0,.58-.66V2.61A.67.67,0,0,0,8.65,2Z"/><rect class="a" x="14.63" y="1.93" width="1.36" height="6.05" rx="0.68"/><path class="c" d="M15.41,2a.67.67,0,0,0-.57.66V7.29a.67.67,0,0,0,.57.66A.67.67,0,0,0,16,7.29V2.61A.67.67,0,0,0,15.41,2Z"/><path class="d" d="M11.79,17.43s.05,2.63,0,3-.1,1.62-.1,1.62"/><path class="e" d="M13.33,22.07,10.06,22c0-.41.06-1.41.11-1.78,0-.21,0-1.59,0-2.71l3.28-.06a28.17,28.17,0,0,1,0,3.22C13.39,20.78,13.35,21.5,13.33,22.07Z"/><path class="f" d="M17.93,7H6.07a.48.48,0,0,0-.48.48V9.18a.49.49,0,0,0,.48.48h.57a.47.47,0,0,1,.48.47V15a.47.47,0,0,0,.47.47H8.7a.47.47,0,0,1,.47.48v2.51a.48.48,0,0,0,.48.47h4.7a.48.48,0,0,0,.48-.47V15.9a.47.47,0,0,1,.47-.48h1.11a.47.47,0,0,0,.47-.47V10.13a.47.47,0,0,1,.48-.47h.57a.49.49,0,0,0,.48-.48V7.46A.48.48,0,0,0,17.93,7Z"/><path class="g" d="M7.81,10.76v3.62a.42.42,0,0,0,.42.42h.58a.42.42,0,0,1,.4.31h5.44a.41.41,0,0,1,.4-.31h1a.42.42,0,0,0,.42-.42V10.76Z"/><path class="h" d="M9.63,16.32v1.12a.42.42,0,0,0,.42.42h4.16a.42.42,0,0,0,.42-.42V16.32Z"/><path class="i" d="M17.38,7.33H6.88a.42.42,0,0,0-.42.42v.14h9.69V8H6.46V8.5h9.69v.14H6.46v.64a.42.42,0,0,0,.42.42h.34v0h9.66v0h.5a.42.42,0,0,0,.42-.42V7.75A.42.42,0,0,0,17.38,7.33Z"/><circle class="j" cx="16.57" cy="16.62" r="5.38"/><circle class="k" cx="16.64" cy="16.38" r="4.76"/><path class="l" d="M16.64,20.65a4.27,4.27,0,1,1,4.26-4.27A4.27,4.27,0,0,1,16.64,20.65Z"/><rect class="m" x="15.96" y="13.79" width="1.36" height="5.18" transform="translate(16.46 -6.97) rotate(45)"/><rect class="m" x="15.96" y="13.79" width="1.36" height="5.18" transform="translate(39.99 16.2) rotate(135)"/><rect class="n" width="24" height="24"/></svg>