<svg xmlns="http://www.w3.org/2000/svg" xmlns:xlink="http://www.w3.org/1999/xlink" viewBox="0 0 24 24"><defs><style>.a{isolation:isolate;}.b{fill:#b28508;}.c{opacity:0.45;fill:url(#a);}.d,.e,.l,.m{mix-blend-mode:multiply;}.d,.f{fill:url(#b);}.e,.g{fill:url(#c);}.h{fill:url(#f);}.i{opacity:0.44;fill:url(#g);}.j{fill:url(#h);}.k{fill:url(#i);}.l{fill:url(#j);}.m{fill:url(#k);}.n{fill:url(#l);}.o{fill:url(#m);}.p,.s{opacity:0.4;}.q{fill:url(#n);}.r{fill:url(#o);}.s{fill:url(#p);}.t{fill:none;}</style><radialGradient id="a" cx="12" cy="13.13" r="7.88" gradientUnits="userSpaceOnUse"><stop offset="0.79"/><stop offset="0.81" stop-opacity="0.67"/><stop offset="1" stop-opacity="0"/></radialGradient><radialGradient id="b" cx="13.74" cy="5.39" fx="29.887895362722837" r="19.8" gradientUnits="userSpaceOnUse"><stop offset="0.04" stop-color="#b28508"/><stop offset="0.11" stop-color="#cad316"/><stop offset="0.17" stop-color="#d4d838"/><stop offset="0.25" stop-color="#dfdf5f"/><stop offset="0.34" stop-color="#e9e481"/><stop offset="0.44" stop-color="#f1e89c"/><stop offset="0.54" stop-color="#f7ecb2"/><stop offset="0.66" stop-color="#fceec1"/><stop offset="0.79" stop-color="#fef0c9"/><stop offset="1" stop-color="#fff0cc"/></radialGradient><radialGradient id="c" cx="11.31" cy="7.46" fx="24.167123885201953" r="19.41" gradientUnits="userSpaceOnUse"><stop offset="0.04" stop-color="#b28508"/><stop offset="0.11" stop-color="#cad316"/><stop offset="0.12" stop-color="#c9d015"/><stop offset="0.25" stop-color="#c1b511"/><stop offset="0.39" stop-color="#ba9f0d"/><stop offset="0.54" stop-color="#b6900a"/><stop offset="0.72" stop-color="#b38808"/><stop offset="1" stop-color="#b28508"/></radialGradient><linearGradient id="f" x1="11.95" y1="4.78" x2="11.95" y2="16.39" gradientUnits="userSpaceOnUse"><stop offset="0" stop-color="#443512"/><stop offset="0.01" stop-color="#463712"/><stop offset="0.1" stop-color="#674f0f"/><stop offset="0.2" stop-color="#82620c"/><stop offset="0.31" stop-color="#98720a"/><stop offset="0.44" stop-color="#a77d09"/><stop offset="0.58" stop-color="#af8308"/><stop offset="0.8" stop-color="#b28508"/></linearGradient><radialGradient id="g" cx="12.13" cy="8.6" r="3.21" gradientUnits="userSpaceOnUse"><stop offset="0.71" stop-color="#f2f0c4" stop-opacity="0.7"/><stop offset="0.92" stop-color="#fff" stop-opacity="0"/></radialGradient><radialGradient id="h" cx="13.74" cy="5.39" fx="29.887895362722837" r="19.8" gradientUnits="userSpaceOnUse"><stop offset="0.04" stop-color="#fff"/><stop offset="0.11" stop-color="#d1bf18"/><stop offset="0.17" stop-color="#cbb415"/><stop offset="0.32" stop-color="#c09f0f"/><stop offset="0.49" stop-color="#b8900b"/><stop offset="0.69" stop-color="#b38809"/><stop offset="1" stop-color="#b28508"/></radialGradient><radialGradient id="i" cx="11.31" cy="7.46" fx="24.167123885201953" r="19.41" xlink:href="#h"/><radialGradient id="j" cx="13.74" cy="5.86" fx="25.513189481852926" r="14.43" gradientUnits="userSpaceOnUse"><stop offset="0.04" stop-color="#b28508"/><stop offset="0.43" stop-color="#cad316"/><stop offset="0.44" stop-color="#c9d015"/><stop offset="0.52" stop-color="#c1b511"/><stop offset="0.61" stop-color="#ba9f0d"/><stop offset="0.71" stop-color="#b6900a"/><stop offset="0.82" stop-color="#b38808"/><stop offset="1" stop-color="#b28508"/></radialGradient><radialGradient id="k" cx="11.31" cy="7.36" fx="21.556508521664618" r="15.47" xlink:href="#j"/><radialGradient id="l" cx="13.66" cy="6.42" fx="21.18927094745385" r="9.23" gradientUnits="userSpaceOnUse"><stop offset="0.11" stop-color="#fcee21"/><stop offset="0.21" stop-color="#f3e11e"/><stop offset="0.75" stop-color="#c49f0e"/><stop offset="1" stop-color="#b28508"/></radialGradient><radialGradient id="m" cx="11.34" cy="7.35" fx="19.174207082698207" r="11.83" xlink:href="#l"/><radialGradient id="n" cx="13.87" cy="8.8" r="12.39" gradientUnits="userSpaceOnUse"><stop offset="0.34" stop-color="#fff"/><stop offset="0.34" stop-color="#fff" stop-opacity="0.99"/><stop offset="0.4" stop-color="#fff" stop-opacity="0.78"/><stop offset="0.45" stop-color="#fff" stop-opacity="0.6"/><stop offset="0.51" stop-color="#fff" stop-opacity="0.44"/><stop offset="0.57" stop-color="#fff" stop-opacity="0.3"/><stop offset="0.64" stop-color="#fff" stop-opacity="0.19"/><stop offset="0.71" stop-color="#fff" stop-opacity="0.11"/><stop offset="0.78" stop-color="#fff" stop-opacity="0.05"/><stop offset="0.87" stop-color="#fff" stop-opacity="0.01"/><stop offset="1" stop-color="#fff" stop-opacity="0"/></radialGradient><radialGradient id="o" cx="-1872.27" cy="8.8" r="12.39" gradientTransform="matrix(-1, 0, 0, 1, -1862.09, 0)" xlink:href="#n"/><radialGradient id="p" cx="15.05" cy="11.2" r="3.17" gradientUnits="userSpaceOnUse"><stop offset="0.38" stop-color="#fff"/><stop offset="0.8" stop-color="#fff" stop-opacity="0"/></radialGradient></defs><g class="a"><path class="b" d="M7.77,5.82c-.22-.27-.44-.52-.67-.76l-.29-.29-.44.07h0c0,.13,0,.26,0,.38v.11l.25.25a8.72,8.72,0,0,1,.64.71,10.37,10.37,0,0,1,.61.84,1.64,1.64,0,0,1,.14.22H8l.47.06A3,3,0,0,0,8.6,7l-.22-.33C8.18,6.35,8,6.08,7.77,5.82Z"/><path class="b" d="M20.49,11.81c0-.14-.11-.35-.13-.42a4.55,4.55,0,0,1-.43-.28,8.58,8.58,0,0,1-.95-.8,8.53,8.53,0,0,1-.88-1c-.08-.11-.17-.23-.24-.35l-.54-.14a2.29,2.29,0,0,0-.07.36,1.13,1.13,0,0,0,0,.18l.34.49a8.57,8.57,0,0,0,.89,1,9.33,9.33,0,0,0,1,.88L20,12a4.12,4.12,0,0,0,.53-.12A.53.53,0,0,1,20.49,11.81Z"/><path class="b" d="M6,15.17l-.44.31a3.83,3.83,0,0,1-.13.51A7.7,7.7,0,0,1,5,17.15a7.39,7.39,0,0,1-.6,1.08l-.31.42c0,.09,0,.41,0,.52v0a3.6,3.6,0,0,0,.55-.07A5.92,5.92,0,0,0,5,18.65a8.37,8.37,0,0,0,.66-1.18,9.6,9.6,0,0,0,.48-1.26l.15-.58A3.24,3.24,0,0,0,6,15.16Z"/><path class="b" d="M17.72,5.26v-.1c0-.12,0-.24,0-.37h0a3.18,3.18,0,0,0-.43-.06L16.94,5c-.23.24-.44.49-.64.74a8.9,8.9,0,0,0-.58.79l-.21.32a2.14,2.14,0,0,0,.18.44l.31,0,.16,0h0l.18-.29c.17-.25.35-.5.54-.73s.39-.47.61-.69Z"/><path class="b" d="M19,17.15a7.69,7.69,0,0,1-.46-1.24,2.09,2.09,0,0,1-.11-.43L18,15.16a2.25,2.25,0,0,0-.12.21,1.83,1.83,0,0,0-.16.26l.15.58a9.6,9.6,0,0,0,.48,1.26A7.52,7.52,0,0,0,19,18.65a4.14,4.14,0,0,0,.34.48,3.6,3.6,0,0,0,.55.07v0c0-.13,0-.43,0-.51a4,4,0,0,1-.3-.42A6.59,6.59,0,0,1,19,17.15Z"/><path class="b" d="M6.68,8.8l-.54.14a3.45,3.45,0,0,1-.3.43,8.12,8.12,0,0,1-.82.94,8.21,8.21,0,0,1-.94.79,4.17,4.17,0,0,1-.44.29c0,.07-.09.31-.14.45l0,.08A4.12,4.12,0,0,0,4,12a5.39,5.39,0,0,0,.5-.33,8.27,8.27,0,0,0,1-.87,7.68,7.68,0,0,0,.88-1l.35-.49a1.38,1.38,0,0,0,0-.2C6.73,9,6.71,8.91,6.68,8.8Z"/><path class="c" d="M19,11.94v0a3.51,3.51,0,0,0-.52-1.82A11.55,11.55,0,0,0,18,8.93a8.93,8.93,0,0,0-.64-1.26.52.52,0,0,0-.24,0,.62.62,0,0,0-.42-.08h0A5.26,5.26,0,0,0,12.06,5.3,5.88,5.88,0,0,0,7.3,7.59a.68.68,0,0,0-.37.07.47.47,0,0,0-.23,0,7.43,7.43,0,0,0-.44.81,9.79,9.79,0,0,0-1.4,4.73c-.06,3.28,1.47,6.93,3.75,7.36,1.13.21,2,.32,2.54.37a.78.78,0,0,0,.85-.76v.16a.61.61,0,0,0,.66.62c.56-.05,1.46-.16,2.73-.39,2.28-.43,3.81-4.08,3.75-7.36A7.49,7.49,0,0,0,19,11.94Z"/><path class="d" d="M7.93,7.48a.66.66,0,0,0-.7.28,8.85,8.85,0,0,0-1.56,4.7C5.62,15.37,7,18.6,9,19c1,.19,1.74.28,2.24.33a.69.69,0,0,0,.76-.68l0-9.75a.68.68,0,0,0-.55-.67Z"/><path class="e" d="M16.16,7.46a.55.55,0,0,1,.56.22,9,9,0,0,1,1.61,4.78C18.38,15.37,17,18.6,15,19a23.62,23.62,0,0,1-2.41.34.54.54,0,0,1-.59-.54v-10a.55.55,0,0,1,.44-.54Z"/><path class="f" d="M7.93,7.48a.66.66,0,0,0-.7.28,8.85,8.85,0,0,0-1.56,4.7C5.62,15.37,7,18.6,9,19c1,.19,1.74.28,2.24.33a.69.69,0,0,0,.76-.68l0-9.75a.68.68,0,0,0-.55-.67Z"/><path class="g" d="M16.16,7.46a.55.55,0,0,1,.56.22,9,9,0,0,1,1.61,4.78C18.38,15.37,17,18.6,15,19a23.62,23.62,0,0,1-2.41.34.54.54,0,0,1-.59-.54v-10a.55.55,0,0,1,.44-.54Z"/><path class="h" d="M7.73,7.51a5.19,5.19,0,0,1,4.32-2.18,4.67,4.67,0,0,1,4.11,2L12,10.5Z"/><path class="i" d="M8.86,7.16A4.21,4.21,0,0,1,12,5.45a4.06,4.06,0,0,1,3.12,1.63c.49.6-3.1.68-3.1.68S8.34,7.79,8.86,7.16Z"/><path class="j" d="M7.93,7.48a.66.66,0,0,0-.7.28,8.85,8.85,0,0,0-1.56,4.7C5.62,15.37,7,18.6,9,19c1,.19,1.74.28,2.24.33a.69.69,0,0,0,.76-.68l0-9.75a.68.68,0,0,0-.55-.67Z"/><path class="k" d="M16.16,7.46a.55.55,0,0,1,.56.22,9,9,0,0,1,1.61,4.78C18.38,15.37,17,18.6,15,19a23.62,23.62,0,0,1-2.41.34.54.54,0,0,1-.59-.54v-10a.55.55,0,0,1,.44-.54Z"/><path class="l" d="M12,10.6l0-1.82a.7.7,0,0,0-.55-.68L7.93,7.38a.66.66,0,0,0-.7.28,8.85,8.85,0,0,0-1.56,4.7s1.92,3.34,3.08,3.57S12,10.6,12,10.6Z"/><path class="m" d="M12,10.6V8.66a.54.54,0,0,1,.44-.53l3.73-.77a.53.53,0,0,1,.56.22,9,9,0,0,1,1.61,4.78,18.6,18.6,0,0,1-2.74,3.4C14.67,16.36,12,10.6,12,10.6Z"/><path class="n" d="M12,9.6l0-.82a.7.7,0,0,0-.55-.68L7.93,7.38a.66.66,0,0,0-.7.28A9.29,9.29,0,0,0,6,10.35c-.1.34,1.39,2.68,3.09,2.37C10.38,12.48,12,9.6,12,9.6Z"/><path class="o" d="M12,9.6V8.66a.54.54,0,0,1,.44-.53l3.73-.77a.53.53,0,0,1,.56.22,9.5,9.5,0,0,1,1.37,3,3,3,0,0,1-2.84,1.76C13.66,12,12,9.6,12,9.6Z"/><g class="p"><path class="q" d="M14.79,7.71a9.88,9.88,0,0,1,1.95-.26,10.26,10.26,0,0,1,1.41,5.35c-.07,1.82-5.29,5.41-5.6,5.44a18,18,0,0,1-.37-3.44V8.53a.35.35,0,0,1,.27-.34Z"/></g><g class="p"><path class="r" d="M9.25,7.71A9.78,9.78,0,0,0,7.3,7.45,10.26,10.26,0,0,0,5.89,12.8c.07,1.82,5.29,5.41,5.6,5.44a18,18,0,0,0,.37-3.44V8.53a.36.36,0,0,0-.28-.34Z"/></g><circle class="s" cx="15.05" cy="11.2" r="3.17"/><rect class="t" width="24" height="24"/></g></svg>