<svg xmlns="http://www.w3.org/2000/svg" xmlns:xlink="http://www.w3.org/1999/xlink" viewBox="0 0 24 24"><defs><style>.a{fill:#180042;}.b{opacity:0.45;fill:url(#a);}.c{fill:url(#b);}.d{fill:url(#c);}.e{fill:url(#d);}.f{opacity:0.2;fill:url(#e);}.g{fill:url(#f);}.h{fill:url(#g);}.i{fill:url(#h);}.j{fill:url(#i);}.k{opacity:0.4;}.l{fill:url(#j);}.m{fill:url(#k);}.n{fill:none;}</style><radialGradient id="a" cx="12" cy="14.09" r="8.91" gradientUnits="userSpaceOnUse"><stop offset="0.79"/><stop offset="0.81" stop-opacity="0.67"/><stop offset="1" stop-opacity="0"/></radialGradient><linearGradient id="b" x1="8.57" y1="4.51" x2="15.33" y2="4.51" gradientUnits="userSpaceOnUse"><stop offset="0" stop-color="#fc3030"/><stop offset="1" stop-color="#082159"/></linearGradient><radialGradient id="c" cx="-18.44" cy="6.05" r="2.82" gradientTransform="matrix(0.03, -1.08, 1.6, 0.02, 2.9, -13.95)" gradientUnits="userSpaceOnUse"><stop offset="0.61" stop-color="blue" stop-opacity="0.3"/><stop offset="0.67" stop-color="#0201f1" stop-opacity="0.28"/><stop offset="0.75" stop-color="#0805c9" stop-opacity="0.22"/><stop offset="0.84" stop-color="#120b87" stop-opacity="0.11"/><stop offset="0.92" stop-color="#1d123f" stop-opacity="0"/></radialGradient><linearGradient id="d" x1="7.32" y1="8.49" x2="16.53" y2="8.49" gradientUnits="userSpaceOnUse"><stop offset="0" stop-color="#f31f05"/><stop offset="1" stop-color="#6a1100"/></linearGradient><radialGradient id="e" cx="12.01" cy="8.29" r="3.99" gradientTransform="translate(9.38 -6.06) rotate(45)" gradientUnits="userSpaceOnUse"><stop offset="0.38" stop-color="#fff"/><stop offset="0.8" stop-color="#fff" stop-opacity="0"/></radialGradient><radialGradient id="f" cx="13.91" cy="6.25" fx="31.644456130924027" r="21.74" gradientUnits="userSpaceOnUse"><stop offset="0" stop-color="#ffe111"/><stop offset="0.1" stop-color="#f86e11"/><stop offset="0.13" stop-color="#f96511"/><stop offset="0.26" stop-color="#fb4912"/><stop offset="0.41" stop-color="#fc3312"/><stop offset="0.56" stop-color="#fd2413"/><stop offset="0.74" stop-color="#fe1b13"/><stop offset="1" stop-color="#fe1813"/></radialGradient><radialGradient id="g" cx="-196.67" cy="6.25" fx="-178.94156367546262" r="21.74" gradientTransform="matrix(-1, 0, 0, 1, -186.59, 0)" xlink:href="#f"/><linearGradient id="h" x1="9.95" y1="8.56" x2="5.04" y2="22.04" gradientUnits="userSpaceOnUse"><stop offset="0.41" stop-color="#fff" stop-opacity="0"/><stop offset="0.46" stop-color="#fef1d4" stop-opacity="0.18"/><stop offset="0.51" stop-color="#fee2a6" stop-opacity="0.37"/><stop offset="0.56" stop-color="#fdd57e" stop-opacity="0.54"/><stop offset="0.62" stop-color="#fcca5c" stop-opacity="0.68"/><stop offset="0.68" stop-color="#fcc240" stop-opacity="0.8"/><stop offset="0.75" stop-color="#fbbb2b" stop-opacity="0.89"/><stop offset="0.81" stop-color="#fbb61c" stop-opacity="0.95"/><stop offset="0.89" stop-color="#fbb313" stop-opacity="0.99"/><stop offset="1" stop-color="#fbb210"/></linearGradient><linearGradient id="i" x1="14.66" y1="8.45" x2="18.29" y2="23.01" xlink:href="#h"/><radialGradient id="j" cx="13.93" cy="10.17" r="13.44" gradientTransform="translate(0 1.57) scale(1 0.81)" gradientUnits="userSpaceOnUse"><stop offset="0.34" stop-color="#fff"/><stop offset="0.34" stop-color="#fff" stop-opacity="0.99"/><stop offset="0.4" stop-color="#fff" stop-opacity="0.78"/><stop offset="0.45" stop-color="#fff" stop-opacity="0.6"/><stop offset="0.51" stop-color="#fff" stop-opacity="0.44"/><stop offset="0.57" stop-color="#fff" stop-opacity="0.3"/><stop offset="0.64" stop-color="#fff" stop-opacity="0.19"/><stop offset="0.71" stop-color="#fff" stop-opacity="0.11"/><stop offset="0.78" stop-color="#fff" stop-opacity="0.05"/><stop offset="0.87" stop-color="#fff" stop-opacity="0.01"/><stop offset="1" stop-color="#fff" stop-opacity="0"/></radialGradient><radialGradient id="k" cx="-2021.67" cy="10.17" r="13.44" gradientTransform="matrix(-1, 0, 0, 0.81, -2011.6, 1.57)" xlink:href="#j"/></defs><path class="a" d="M16,7.15a2.83,2.83,0,0,1,0-.77c.13-.19.25-.37.39-.55a9.56,9.56,0,0,1,.89-1,8.71,8.71,0,0,1,1-.87c.18-.13.38-.25.57-.37a4.81,4.81,0,0,1,.76,0c-.12.24-.27.41-.38.63s-.35.22-.51.34a7.31,7.31,0,0,0-.95.8,8,8,0,0,0-.82.93c-.12.17-.25.33-.36.51Z"/><path class="a" d="M8,7.15l-.64-.36c-.11-.18-.24-.34-.36-.51a8,8,0,0,0-.82-.93,7.31,7.31,0,0,0-1-.8c-.16-.12-.34-.23-.51-.34s-.26-.39-.38-.63a4.81,4.81,0,0,1,.76,0c.19.12.39.24.57.37a8.71,8.71,0,0,1,1,.87,9.56,9.56,0,0,1,.89,1c.14.18.26.36.39.55A2.83,2.83,0,0,1,8,7.15Z"/><path class="a" d="M17.54,9.6l.64.36.35.51a8.11,8.11,0,0,0,.83.93,8,8,0,0,0,.94.8l.52.34c.11.22.25.39.38.63a4.84,4.84,0,0,1-.76,0c-.2-.12-.39-.24-.57-.37a8.71,8.71,0,0,1-1-.87,9.56,9.56,0,0,1-.89-1c-.14-.18-.27-.37-.39-.55A2.83,2.83,0,0,1,17.54,9.6Z"/><path class="a" d="M6.46,9.6a2.83,2.83,0,0,1,0,.77c-.12.18-.25.37-.39.55a9.56,9.56,0,0,1-.89,1,8.71,8.71,0,0,1-1,.87c-.18.13-.37.25-.57.37a4.84,4.84,0,0,1-.76,0c.13-.24.27-.41.38-.63l.52-.34a8,8,0,0,0,.94-.8,8.11,8.11,0,0,0,.83-.93L5.82,10Z"/><path class="a" d="M18.64,16.21l.48.56q.06.3.15.6a8.61,8.61,0,0,0,.44,1.16,6.79,6.79,0,0,0,.61,1.08c.11.17.23.33.36.5s.1.45.13.72a3.55,3.55,0,0,1-.71-.26c-.14-.17-.28-.35-.41-.54A9.22,9.22,0,0,1,19,18.84a9.09,9.09,0,0,1-.48-1.26c-.07-.22-.12-.43-.17-.65A2.7,2.7,0,0,1,18.64,16.21Z"/><path class="a" d="M5.36,16.21a2.7,2.7,0,0,1,.26.72c0,.22-.1.43-.17.65A9.09,9.09,0,0,1,5,18.84,9.22,9.22,0,0,1,4.31,20c-.13.19-.27.37-.41.54a3.55,3.55,0,0,1-.71.26c0-.27.1-.48.13-.72s.25-.33.36-.5a6.79,6.79,0,0,0,.61-1.08,8.61,8.61,0,0,0,.44-1.16q.09-.3.15-.6Z"/><path class="b" d="M20,12.87s0,0,0,0a4,4,0,0,0-.59-2.08,13.45,13.45,0,0,0-.59-1.3A8.18,8.18,0,0,0,18.09,8S18,8,17.82,8a.69.69,0,0,0-.47-.08h0l0,0A6,6,0,0,0,12.07,5.3,6.69,6.69,0,0,0,6.65,7.91,1,1,0,0,0,6.23,8C6.09,8,6,8,6,8a8.66,8.66,0,0,0-.5.91,11.29,11.29,0,0,0-1.6,5.4c-.06,3.74,1.68,7.9,4.28,8.38a39,39,0,0,0,7.72,0c2.6-.48,4.34-4.64,4.28-8.38A9.48,9.48,0,0,0,20,12.87Z"/><path class="c" d="M8.57,5s1.24-2.87,3.49-2.87S15.33,5,15.33,5L12,6.9Z"/><path class="d" d="M8.84,6s.54-3.72,3.23-3.69,3.14,3.6,3.14,3.6l-3.08.51Z"/><path class="e" d="M7.32,8.66S7.71,5.22,8.59,5A8.09,8.09,0,0,1,12,5h-.15a8.09,8.09,0,0,1,3.41,0c.88.25,1.27,3.69,1.27,3.69l-4.65,3.52Z"/><ellipse class="f" cx="12.01" cy="8.29" rx="3.96" ry="4" transform="translate(-2.35 10.92) rotate(-45)"/><path class="g" d="M7.53,8.54a.75.75,0,0,0-.77.31A9.81,9.81,0,0,0,5,14c0,3.2,1.43,6.75,3.66,7.16,1.1.21,1.92.31,2.47.36a.75.75,0,0,0,.83-.75l0-10.7a.75.75,0,0,0-.6-.74Z"/><path class="h" d="M16.47,8.54a.75.75,0,0,1,.77.31A9.81,9.81,0,0,1,19,14c.05,3.2-1.43,6.75-3.66,7.16-1.1.21-1.92.31-2.47.36a.75.75,0,0,1-.83-.75l0-10.7a.75.75,0,0,1,.6-.74Z"/><path class="i" d="M7.53,8.54a.75.75,0,0,0-.77.31A9.81,9.81,0,0,0,5,14c0,3.2,1.43,5.75,3.66,6.16C9.8,20.38,12,10.08,12,10.08a.75.75,0,0,0-.6-.74Z"/><path class="j" d="M16.47,8.54a.75.75,0,0,1,.77.31A9.81,9.81,0,0,1,19,14c.05,3.2-1.43,5.75-3.66,6.16C14.2,20.38,12,10.08,12,10.08a.75.75,0,0,1,.6-.74Z"/><g class="k"><path class="l" d="M14.93,8.84A12.36,12.36,0,0,1,17,8.61a7.74,7.74,0,0,1,1.53,4.7c-.07,1.59-5.74,4.75-6.07,4.77s-.4-2.84-.4-3V9.7a.33.33,0,0,1,.3-.29Z"/></g><g class="k"><path class="m" d="M9.07,8.84A12.36,12.36,0,0,0,7,8.61a7.74,7.74,0,0,0-1.53,4.7c.07,1.59,5.74,4.75,6.07,4.77s.4-2.84.4-3V9.7a.33.33,0,0,0-.3-.29Z"/></g><rect class="n" width="24" height="24"/></svg>