<svg xmlns="http://www.w3.org/2000/svg" xmlns:xlink="http://www.w3.org/1999/xlink" viewBox="0 0 24 24"><defs><style>.a{fill:#f98fce;}.b{opacity:0.2;fill:url(#a);}.c{fill:url(#b);}.d{fill:url(#c);}.e{fill:url(#d);}.f,.m{opacity:0.4;}.f{fill:url(#e);}.g{fill:url(#f);}.h{fill:url(#g);}.i{opacity:0.9;}.j{fill:url(#h);}.k{fill:url(#i);}.l{opacity:0.3;}.n{fill:url(#j);}.o{fill:url(#k);}.p{fill:none;}</style><radialGradient id="a" cx="92.05" cy="12.14" r="7.82" gradientTransform="translate(-39.69 -1.9) scale(0.56 1.26)" gradientUnits="userSpaceOnUse"><stop offset="0.79"/><stop offset="0.81" stop-opacity="0.67"/><stop offset="1" stop-opacity="0"/></radialGradient><linearGradient id="b" x1="12" y1="0.69" x2="12" y2="11.16" gradientUnits="userSpaceOnUse"><stop offset="0" stop-color="#fc3030"/><stop offset="1" stop-color="#082159"/></linearGradient><radialGradient id="c" cx="12.04" cy="5.93" r="3.7" gradientTransform="matrix(0.02, -1.08, 0.62, 0.01, 8.13, 18.74)" gradientUnits="userSpaceOnUse"><stop offset="0" stop-color="#f7349b"/><stop offset="0.53" stop-color="#f7349b"/><stop offset="0.61" stop-color="#f73499" stop-opacity="0.99"/><stop offset="0.66" stop-color="#f73494" stop-opacity="0.95"/><stop offset="0.7" stop-color="#f7348a" stop-opacity="0.89"/><stop offset="0.74" stop-color="#f6347c" stop-opacity="0.8"/><stop offset="0.78" stop-color="#f6346b" stop-opacity="0.69"/><stop offset="0.81" stop-color="#f63455" stop-opacity="0.55"/><stop offset="0.85" stop-color="#f5343b" stop-opacity="0.38"/><stop offset="0.88" stop-color="#f5341e" stop-opacity="0.2"/><stop offset="0.91" stop-color="#f43400" stop-opacity="0"/></radialGradient><radialGradient id="d" cx="12" cy="9.55" r="7.39" gradientTransform="translate(7.66 21.53) rotate(-89.67) scale(1 0.45)" gradientUnits="userSpaceOnUse"><stop offset="0.13" stop-color="#f42f47"/><stop offset="0.62" stop-color="#f32f4a"/><stop offset="1" stop-color="#d43a87"/></radialGradient><radialGradient id="e" cx="12.03" cy="6.36" r="2.23" gradientUnits="userSpaceOnUse"><stop offset="0.38" stop-color="#fff" stop-opacity="0.6"/><stop offset="0.8" stop-color="#fff" stop-opacity="0"/></radialGradient><radialGradient id="f" cx="10.23" cy="15.06" r="7.46" gradientTransform="translate(6.7 25.29) rotate(-90) scale(1 0.23)" gradientUnits="userSpaceOnUse"><stop offset="0" stop-color="#ff0074"/><stop offset="0.27" stop-color="#fd0376"/><stop offset="0.44" stop-color="#f80b7b"/><stop offset="0.59" stop-color="#ee1a84"/><stop offset="0.72" stop-color="#e12f91"/><stop offset="0.79" stop-color="#d83d99"/><stop offset="0.86" stop-color="#c93358"/><stop offset="0.96" stop-color="#b52606"/></radialGradient><radialGradient id="g" cx="13.45" cy="15.06" r="7.46" gradientTransform="matrix(0, -1, -0.23, 0, 17.31, 28.5)" xlink:href="#f"/><radialGradient id="h" cx="-209.68" cy="14.88" fx="-202.4252209859772" r="8.81" gradientTransform="matrix(0, -0.7, -0.39, 0, 19.35, -133.15)" gradientUnits="userSpaceOnUse"><stop offset="0" stop-color="#ff0074"/><stop offset="0.16" stop-color="#fe0172" stop-opacity="0.99"/><stop offset="0.26" stop-color="#fa036c" stop-opacity="0.96"/><stop offset="0.35" stop-color="#f30662" stop-opacity="0.92"/><stop offset="0.43" stop-color="#ea0b54" stop-opacity="0.85"/><stop offset="0.51" stop-color="#de1142" stop-opacity="0.77"/><stop offset="0.58" stop-color="#cf192c" stop-opacity="0.67"/><stop offset="0.64" stop-color="#bd2212" stop-opacity="0.55"/><stop offset="0.67" stop-color="#b52606" stop-opacity="0.49"/><stop offset="0.96" stop-color="#fff" stop-opacity="0"/></radialGradient><radialGradient id="i" cx="-208.69" cy="14.88" fx="-201.43976233950298" r="8.81" gradientTransform="matrix(0, -0.7, 0.39, 0, 4.63, -132.46)" xlink:href="#h"/><radialGradient id="j" cx="-12.65" cy="4.87" r="4.28" gradientTransform="translate(29.35) scale(1.31 1)" gradientUnits="userSpaceOnUse"><stop offset="0.34" stop-color="#fff"/><stop offset="0.34" stop-color="#fff" stop-opacity="0.99"/><stop offset="0.4" stop-color="#fff" stop-opacity="0.78"/><stop offset="0.45" stop-color="#fff" stop-opacity="0.6"/><stop offset="0.51" stop-color="#fff" stop-opacity="0.44"/><stop offset="0.57" stop-color="#fff" stop-opacity="0.3"/><stop offset="0.64" stop-color="#fff" stop-opacity="0.19"/><stop offset="0.71" stop-color="#fff" stop-opacity="0.11"/><stop offset="0.78" stop-color="#fff" stop-opacity="0.05"/><stop offset="0.87" stop-color="#fff" stop-opacity="0.01"/><stop offset="1" stop-color="#fff" stop-opacity="0"/></radialGradient><radialGradient id="k" cx="-1924.21" cy="4.87" r="4.27" gradientTransform="matrix(-1.31, 0, 0, 1, -2511.92, 0)" xlink:href="#j"/></defs><path class="a" d="M16,4.82A6.79,6.79,0,0,1,17,4a4.17,4.17,0,0,1,.44-.29c0-.09.13-.44.16-.53a2.93,2.93,0,0,0-.53-.13c-.17.11-.34.21-.5.33a9.17,9.17,0,0,0-1,.88,8.29,8.29,0,0,0-.88,1l-.35.49a3.33,3.33,0,0,0,.1.55l.54-.15c.07-.12.17-.25.3-.43A8,8,0,0,1,16,4.82Z"/><path class="a" d="M8.49,4.28a9,9,0,0,0-1-.87c-.16-.12-.33-.22-.5-.33a2.93,2.93,0,0,0-.53.13c0,.09.14.44.16.53A4.55,4.55,0,0,1,7,4a7.07,7.07,0,0,1,1,.8,8.11,8.11,0,0,1,.87,1l.26.36.53.15a2.54,2.54,0,0,0,.1-.55L9.38,5.3A9.56,9.56,0,0,0,8.49,4.28Z"/><path class="a" d="M18.13,12.71a4.55,4.55,0,0,1-.43-.28,7.07,7.07,0,0,1-.95-.8,8.38,8.38,0,0,1-.88-1c-.08-.12-.17-.23-.24-.35l-.54-.15a3.33,3.33,0,0,0-.1.55l.34.48a8.57,8.57,0,0,0,.89,1,8.45,8.45,0,0,0,1.05.88,4.13,4.13,0,0,0,.49.32,2.93,2.93,0,0,0,.53-.12C18.26,13.15,18.15,12.8,18.13,12.71Z"/><path class="a" d="M8.37,10.27l-.3.43a9.09,9.09,0,0,1-.82.93,8.21,8.21,0,0,1-.94.79,4.17,4.17,0,0,1-.44.29c0,.09-.14.44-.16.53a2.93,2.93,0,0,0,.53.12,5.29,5.29,0,0,0,.5-.32,9.17,9.17,0,0,0,1-.88,10.49,10.49,0,0,0,.88-1L9,10.67a3.76,3.76,0,0,0-.1-.55Z"/><path class="a" d="M16.31,19a9,9,0,0,1-.44-1.16l0-.1c0-.14-.07-.27-.1-.41L15.29,17a3.31,3.31,0,0,0-.29.47l.15.58a10.17,10.17,0,0,0,.48,1.26,8.41,8.41,0,0,0,.67,1.18,4.21,4.21,0,0,0,.35.48,3.64,3.64,0,0,0,.54.07c0-.09,0-.45,0-.55s-.21-.27-.3-.42A8,8,0,0,1,16.31,19Z"/><path class="a" d="M8.26,17.33c0,.14-.07.27-.1.41l0,.1A9,9,0,0,1,7.69,19a8,8,0,0,1-.61,1.08c-.09.14-.2.28-.3.42s0,.46,0,.55A2.67,2.67,0,0,0,7.35,21a4.21,4.21,0,0,0,.35-.48,8.41,8.41,0,0,0,.67-1.18,8.74,8.74,0,0,0,.47-1.26L9,17.48A3.31,3.31,0,0,0,8.71,17Z"/><path class="b" d="M15.94,12a.43.43,0,0,0,0-.05,9,9,0,0,0-.29-2.29c-.1-.53-.19-1-.29-1.43-.15-.8-.3-1.37-.36-1.58,0,0-.07,0-.14,0s-.15-.13-.23-.09h0v0S13.92,3.65,12,3.65c-1.6,0-2.45,2.22-2.67,2.89a.21.21,0,0,0-.21.07c-.07,0-.12,0-.13,0s-.14.52-.25,1A24.57,24.57,0,0,0,8,13.59c0,4.13.83,8.71,2.11,9.24a8.59,8.59,0,0,0,3.81,0c1.28-.53,2.14-5.11,2.11-9.24C16,13,16,12.51,15.94,12Z"/><path class="c" d="M9.57,4.84S10.3,2,12.06,2s2.37,2.71,2.37,2.71l-2.38,2Z"/><path class="d" d="M9.75,5.87S10.13,2.15,12,2.19s2.21,3.59,2.21,3.59l-2.17.51Z"/><path d="M14.49,7.75h-5a19.46,19.46,0,0,0-1,6.15c0,3.53.72,7.46,1.84,7.92a5.06,5.06,0,0,0,1.66.45h0a5.06,5.06,0,0,0,1.66-.45c1.12-.46,1.87-4.39,1.84-7.92A19.46,19.46,0,0,0,14.49,7.75Z"/><path class="e" d="M14.69,8s.63-3.23-.15-3.45A5.21,5.21,0,0,0,12,4.5h.13a5.71,5.71,0,0,0-2.68,0c-.78.22,0,3.35,0,3.35L12,14.76Z"/><circle class="f" cx="12.03" cy="6.36" r="2.23"/><path class="g" d="M12,8.9h0L9.47,7.75a19.92,19.92,0,0,0-1,6.2c0,3.56.77,7.38,1.82,8s1.71.26,1.71.26Z"/><path class="h" d="M12,8.9h.05l2.48-1.15a19.57,19.57,0,0,1,1,6.2c0,3.56-.77,7.38-1.81,8s-1.72.26-1.72.26Z"/><g class="i"><path class="j" d="M14.31,7.78a10.26,10.26,0,0,1,1,4.32c0,2.47-.77,5.13-1.81,5.57s-1.6-7-1.72-8.74A12.23,12.23,0,0,1,14.31,7.78Z"/></g><g class="i"><path class="k" d="M9.67,7.78a10.26,10.26,0,0,0-1,4.32c0,2.47.77,5.13,1.82,5.57s1.6-7,1.72-8.74A12.55,12.55,0,0,0,9.67,7.78Z"/></g><g class="l"><g class="m"><path class="n" d="M13,4.4a6.83,6.83,0,0,1,1,0,2.94,2.94,0,0,1,.64,1.84c0,.62-2.38,1.85-2.52,1.86A4.73,4.73,0,0,1,12,7V4.8a.13.13,0,0,1,.12-.11Z"/></g><g class="m"><path class="o" d="M11,4.4a6.83,6.83,0,0,0-1,0,2.94,2.94,0,0,0-.64,1.84c0,.62,2.38,1.85,2.52,1.86A4.73,4.73,0,0,0,12,7V4.8a.13.13,0,0,0-.12-.11Z"/></g></g><rect class="p" width="24" height="24"/></svg>