<?xml version="1.0" encoding="UTF-8"?>
<svg width="20px" height="20px" viewBox="0 0 20 20" version="1.1" xmlns="http://www.w3.org/2000/svg" xmlns:xlink="http://www.w3.org/1999/xlink">
    <title>Social/gift</title>
    <g id="Page-1" stroke="none" stroke-width="1" fill="none" fill-rule="evenodd">
        <g id="001-Openess-Landing" transform="translate(-334.000000, -660.000000)">
            <g id="Copy-&amp;-Content" transform="translate(140.000000, 240.000000)">
                <g id="More-Block" transform="translate(0.000000, 354.000000)">
                    <g id="Icons" transform="translate(0.000000, 64.000000)">
                        <g id="Group" transform="translate(192.000000, 0.000000)">
                            <rect id="Rectangle" x="0" y="0" width="24" height="24"></rect>
                            <path d="M20,12 L16,12 L16,10 L20,10 L20,12 Z M19,20 L16,20 L16,14 L19,14 L19,20 Z M15.293,4.294 C15.482,4.105 15.733,4.001 16,4.001 C16.267,4.001 16.518,4.105 16.707,4.293 C17.096,4.684 17.097,5.319 16.707,5.707 C16.116,6.299 15.057,6.643 14.174,6.828 C14.358,5.944 14.703,4.885 15.293,4.294 L15.293,4.294 Z M14,12 L10,12 L10,10 L14,10 L14,12 Z M14,20 L10,20 L10,14 L14,14 L14,20 Z M7.293,5.707 C7.104,5.519 7,5.267 7,5 C7,4.734 7.104,4.483 7.293,4.293 C7.482,4.105 7.732,4.001 8,4.001 C8.267,4.001 8.518,4.105 8.707,4.294 C9.297,4.884 9.641,5.942 9.825,6.824 C8.945,6.64 7.88,6.295 7.293,5.707 L7.293,5.707 Z M8,12 L4,12 L4,10 L8,10 L8,12 Z M8,20 L5,20 L5,14 L8,14 L8,20 Z M20,8 L16.885,8 C17.336,7.766 17.764,7.479 18.121,7.122 C19.29,5.953 19.29,4.05 18.121,2.88 C16.987,1.747 15.013,1.747 13.879,2.88 C12.243,4.516 12.02,7.597 12,7.943 C11.98,7.597 11.757,4.516 10.121,2.88 C8.987,1.747 7.011,1.748 5.879,2.88 C5.312,3.446 5,4.199 5,5 C5,5.802 5.312,6.555 5.878,7.122 C6.236,7.479 6.663,7.766 7.115,8 L4,8 C2.897,8 2,8.898 2,10 L2,13 C2,13.553 2.448,14 3,14 L3,20 C3,21.103 3.897,22 5,22 L19,22 C20.103,22 21,21.103 21,20 L21,14 C21.552,14 22,13.553 22,13 L22,10 C22,8.898 21.103,8 20,8 L20,8 Z" id="Fill-393" fill="#FFFFFF"></path>
                        </g>
                    </g>
                </g>
            </g>
        </g>
    </g>
</svg>